<?xml version="1.0" standalone="no"?>
<!DOCTYPE svg PUBLIC "-//W3C//DTD SVG 1.1//EN" "http://www.w3.org/Graphics/SVG/1.1/DTD/svg11.dtd">
<svg width="73mm" height="78mm" viewBox="-33 -39 73 78" xmlns="http://www.w3.org/2000/svg" version="1.1">
<title>OpenSCAD Model</title>
<path d="
M 40,-0 L 12.3607,-38.0423 L -32.3607,-23.5114 L -32.3607,23.5114 L 12.3607,38.0423 z
M 4.43056,-27.2711 L 4.2135,-27.3055 L 4.00247,-27.3668 L 3.80078,-27.4541 L 3.61162,-27.5659 L 3.43797,-27.7006
 L 3.28258,-27.856 L 3.14787,-28.0297 L 3.036,-28.2189 L 2.94873,-28.4205 L 2.88741,-28.6316 L 2.85303,-28.8486
 L 2.84613,-29.0683 L 2.86681,-29.2871 L 2.91475,-29.5016 L 2.9892,-29.7083 L 3.08896,-29.9042 L 3.21249,-30.0859
 L 3.35782,-30.2508 L 3.52267,-30.3961 L 3.70444,-30.5196 L 3.90025,-30.6194 L 4.10703,-30.6938 L 4.3215,-30.7418
 L 4.54028,-30.7625 L 4.75995,-30.7556 L 4.97701,-30.7212 L 5.18803,-30.6599 L 5.38972,-30.5726 L 5.57889,-30.4607
 L 5.75253,-30.326 L 5.90793,-30.1706 L 6.04263,-29.997 L 6.15451,-29.8078 L 6.24178,-29.6061 L 6.3031,-29.3951
 L 6.33748,-29.178 L 6.34438,-28.9584 L 6.32372,-28.7396 L 6.27576,-28.5251 L 6.20131,-28.3183 L 6.10155,-28.1225
 L 5.97801,-27.9408 L 5.83269,-27.7759 L 5.66783,-27.6306 L 5.48607,-27.507 L 5.29025,-27.4073 L 5.08348,-27.3328
 L 4.869,-27.2849 L 4.65022,-27.2642 z
M -1.17731,18.713 L -3.5134,18.4179 L -5.79407,17.8323 L -7.98335,16.9655 L -10.0467,15.8311 L -11.9517,14.4471
 L -13.6682,12.8353 L -15.1691,11.021 L -16.4307,9.03287 L -17.4333,6.90233 L -18.1609,4.66293 L -18.6021,2.34999
 L -18.75,-0 L -18.6021,-2.34999 L -18.1609,-4.66293 L -17.4333,-6.90233 L -16.4307,-9.03287 L -15.1691,-11.021
 L -13.6682,-12.8353 L -11.9517,-14.4471 L -10.0467,-15.8311 L -7.98335,-16.9655 L -5.79407,-17.8323 L -3.5134,-18.4179
 L -1.17731,-18.713 L 1.17731,-18.713 L 3.5134,-18.4179 L 5.79407,-17.8323 L 7.98335,-16.9655 L 10.0467,-15.8311
 L 11.9517,-14.4471 L 13.6682,-12.8353 L 15.1691,-11.021 L 16.4307,-9.03287 L 17.4333,-6.90233 L 18.1609,-4.66293
 L 18.6021,-2.34999 L 18.75,-0 L 18.6021,2.34999 L 18.1609,4.66293 L 17.4333,6.90233 L 16.4307,9.03287
 L 15.1691,11.021 L 13.6682,12.8353 L 11.9517,14.4471 L 10.0467,15.8311 L 7.98335,16.9655 L 5.79407,17.8323
 L 3.5134,18.4179 L 1.17731,18.713 z
M -4.75995,30.7556 L -4.97701,30.7212 L -5.18803,30.6599 L -5.38972,30.5726 L -5.57889,30.4607 L -5.75253,30.326
 L -5.90793,30.1706 L -6.04263,29.997 L -6.15451,29.8078 L -6.24178,29.6061 L -6.3031,29.3951 L -6.33748,29.178
 L -6.34438,28.9584 L -6.32372,28.7396 L -6.27576,28.5251 L -6.20131,28.3183 L -6.10155,28.1225 L -5.97801,27.9408
 L -5.83269,27.7759 L -5.66783,27.6306 L -5.48607,27.507 L -5.29025,27.4073 L -5.08348,27.3328 L -4.869,27.2849
 L -4.65022,27.2642 L -4.43056,27.2711 L -4.2135,27.3055 L -4.00247,27.3668 L -3.80078,27.4541 L -3.61162,27.5659
 L -3.43797,27.7006 L -3.28258,27.856 L -3.14787,28.0297 L -3.036,28.2189 L -2.94873,28.4205 L -2.88741,28.6316
 L -2.85303,28.8486 L -2.84613,29.0683 L -2.86681,29.2871 L -2.91475,29.5016 L -2.9892,29.7083 L -3.08896,29.9042
 L -3.21249,30.0859 L -3.35782,30.2508 L -3.52267,30.3961 L -3.70444,30.5196 L -3.90025,30.6194 L -4.10703,30.6938
 L -4.3215,30.7418 L -4.54028,30.7625 z
" stroke="black" fill="lightgray" stroke-width="0.5"/>
</svg>
