<?xml version="1.0" standalone="no"?>
<!DOCTYPE svg PUBLIC "-//W3C//DTD SVG 1.1//EN" "http://www.w3.org/Graphics/SVG/1.1/DTD/svg11.dtd">
<svg width="91mm" height="96mm" viewBox="-41 -48 91 96" xmlns="http://www.w3.org/2000/svg" version="1.1">
<title>OpenSCAD Model</title>
<path d="
M 50,-0 L 15.4508,-47.5528 L -40.4508,-29.3893 L -40.4508,29.3893 L 15.4508,47.5528 z
M 2.0011,-31.3176 L 1.63155,-31.3908 L 1.27405,-31.5097 L 0.934296,-31.6725 L 0.61763,-31.8766 L 0.329025,-32.1187
 L 0.0730438,-32.3952 L -0.146255,-32.7015 L -0.325439,-33.0329 L -0.461685,-33.3841 L -0.552826,-33.7497 L -0.597427,-34.1238
 L -0.594803,-34.5005 L -0.544968,-34.8739 L -0.448746,-35.2382 L -0.307602,-35.5875 L -0.123795,-35.9164 L 0.0997467,-36.2196
 L 0.359543,-36.4924 L 0.65152,-36.7306 L 0.971008,-36.9302 L 1.313,-37.0882 L 1.6721,-37.2021 L 2.04266,-37.2701
 L 2.41882,-37.2912 L 2.79463,-37.2649 L 3.1642,-37.1917 L 3.52168,-37.0728 L 3.86143,-36.91 L 4.17812,-36.7059
 L 4.46672,-36.4638 L 4.7227,-36.1873 L 4.94202,-35.881 L 5.12119,-35.5496 L 5.25743,-35.1984 L 5.34859,-34.8328
 L 5.39319,-34.4587 L 5.39056,-34.082 L 5.34073,-33.7085 L 5.24449,-33.3443 L 5.10336,-32.995 L 4.91956,-32.6661
 L 4.696,-32.3629 L 4.43619,-32.0901 L 4.14423,-31.8519 L 3.82474,-31.6523 L 3.48274,-31.4943 L 3.12363,-31.3804
 L 2.75307,-31.3123 L 2.37692,-31.2913 z
M -1.17731,18.713 L -3.5134,18.4179 L -5.79407,17.8323 L -7.98335,16.9655 L -10.0467,15.8311 L -11.9517,14.4471
 L -13.6682,12.8353 L -15.1691,11.021 L -16.4307,9.03287 L -17.4333,6.90233 L -18.1609,4.66293 L -18.6021,2.34999
 L -18.75,-0 L -18.6021,-2.34999 L -18.1609,-4.66293 L -17.4333,-6.90233 L -16.4307,-9.03287 L -15.1691,-11.021
 L -13.6682,-12.8353 L -11.9517,-14.4471 L -10.0467,-15.8311 L -7.98335,-16.9655 L -5.79407,-17.8323 L -3.5134,-18.4179
 L -1.17731,-18.713 L 1.17731,-18.713 L 3.5134,-18.4179 L 5.79407,-17.8323 L 7.98335,-16.9655 L 10.0467,-15.8311
 L 11.9517,-14.4471 L 13.6682,-12.8353 L 15.1691,-11.021 L 16.4307,-9.03287 L 17.4333,-6.90233 L 18.1609,-4.66293
 L 18.6021,-2.34999 L 18.75,-0 L 18.6021,2.34999 L 18.1609,4.66293 L 17.4333,6.90233 L 16.4307,9.03287
 L 15.1691,11.021 L 13.6682,12.8353 L 11.9517,14.4471 L 10.0467,15.8311 L 7.98335,16.9655 L 5.79407,17.8323
 L 3.5134,18.4179 L 1.17731,18.713 z
M -2.79463,37.2649 L -3.1642,37.1917 L -3.52168,37.0728 L -3.86143,36.91 L -4.17812,36.7059 L -4.46672,36.4638
 L -4.7227,36.1873 L -4.94202,35.881 L -5.12119,35.5496 L -5.25743,35.1984 L -5.34859,34.8328 L -5.39319,34.4587
 L -5.39056,34.082 L -5.34073,33.7085 L -5.24449,33.3443 L -5.10336,32.995 L -4.91956,32.6661 L -4.696,32.3629
 L -4.43619,32.0901 L -4.14423,31.8519 L -3.82474,31.6523 L -3.48274,31.4943 L -3.12363,31.3804 L -2.75307,31.3123
 L -2.37692,31.2913 L -2.0011,31.3176 L -1.63155,31.3908 L -1.27405,31.5097 L -0.934296,31.6725 L -0.61763,31.8766
 L -0.329025,32.1187 L -0.0730438,32.3952 L 0.146255,32.7015 L 0.325439,33.0329 L 0.461685,33.3841 L 0.552826,33.7497
 L 0.597427,34.1238 L 0.594803,34.5005 L 0.544968,34.8739 L 0.448746,35.2382 L 0.307602,35.5875 L 0.123795,35.9164
 L -0.0997467,36.2196 L -0.359543,36.4924 L -0.65152,36.7306 L -0.971008,36.9302 L -1.313,37.0882 L -1.6721,37.2021
 L -2.04266,37.2701 L -2.41882,37.2912 z
" stroke="black" fill="lightgray" stroke-width="0.5"/>
</svg>
