<?xml version="1.0" standalone="no"?>
<!DOCTYPE svg PUBLIC "-//W3C//DTD SVG 1.1//EN" "http://www.w3.org/Graphics/SVG/1.1/DTD/svg11.dtd">
<svg width="73mm" height="78mm" viewBox="-33 -39 73 78" xmlns="http://www.w3.org/2000/svg" version="1.1">
<title>OpenSCAD Model</title>
<path d="
M 40,-0 L 12.3607,-38.0423 L -32.3607,-23.5114 L -32.3607,23.5114 L 12.3607,38.0423 z
M 0.372314,-27.6261 L 0.1548,-27.6575 L -0.0570679,-27.7159 L -0.259949,-27.8003 L -0.450653,-27.9095 L -0.626175,-28.0418
 L -0.783722,-28.195 L -0.920837,-28.3668 L -1.03532,-28.5543 L -1.12543,-28.7548 L -1.18967,-28.965 L -1.22708,-29.1815
 L -1.23706,-29.4011 L -1.21942,-29.6201 L -1.17448,-29.8352 L -1.10294,-30.043 L -1.00591,-30.2402 L -0.884933,-30.4237
 L -0.741913,-30.5905 L -0.579102,-30.7382 L -0.399078,-30.8642 L -0.204681,-30.9667 L 0.00100708,-31.044 L 0.214798,-31.095
 L 0.433273,-31.1187 L 0.653,-31.1149 L 0.870514,-31.0835 L 1.0824,-31.0252 L 1.28528,-30.9407 L 1.47598,-30.8315
 L 1.6515,-30.6992 L 1.80905,-30.546 L 1.94617,-30.3743 L 2.06065,-30.1867 L 2.15076,-29.9862 L 2.215,-29.7761
 L 2.25241,-29.5595 L 2.26239,-29.34 L 2.24475,-29.1209 L 2.19981,-28.9058 L 2.12827,-28.698 L 2.03123,-28.5008
 L 1.91026,-28.3173 L 1.76724,-28.1505 L 1.60443,-28.0029 L 1.42441,-27.8768 L 1.23001,-27.7743 L 1.02429,-27.697
 L 0.810516,-27.646 L 0.592041,-27.6223 z
M -1.17731,18.713 L -3.5134,18.4179 L -5.79407,17.8323 L -7.98335,16.9655 L -10.0467,15.8311 L -11.9517,14.4471
 L -13.6682,12.8353 L -15.1691,11.021 L -16.4307,9.03287 L -17.4333,6.90233 L -18.1609,4.66293 L -18.6021,2.34999
 L -18.75,-0 L -18.6021,-2.34999 L -18.1609,-4.66293 L -17.4333,-6.90233 L -16.4307,-9.03287 L -15.1691,-11.021
 L -13.6682,-12.8353 L -11.9517,-14.4471 L -10.0467,-15.8311 L -7.98335,-16.9655 L -5.79407,-17.8323 L -3.5134,-18.4179
 L -1.17731,-18.713 L 1.17731,-18.713 L 3.5134,-18.4179 L 5.79407,-17.8323 L 7.98335,-16.9655 L 10.0467,-15.8311
 L 11.9517,-14.4471 L 13.6682,-12.8353 L 15.1691,-11.021 L 16.4307,-9.03287 L 17.4333,-6.90233 L 18.1609,-4.66293
 L 18.6021,-2.34999 L 18.75,-0 L 18.6021,2.34999 L 18.1609,4.66293 L 17.4333,6.90233 L 16.4307,9.03287
 L 15.1691,11.021 L 13.6682,12.8353 L 11.9517,14.4471 L 10.0467,15.8311 L 7.98335,16.9655 L 5.79407,17.8323
 L 3.5134,18.4179 L 1.17731,18.713 z
M -0.653,31.1149 L -0.870514,31.0835 L -1.0824,31.0252 L -1.28528,30.9407 L -1.47598,30.8315 L -1.6515,30.6992
 L -1.80905,30.546 L -1.94617,30.3743 L -2.06065,30.1867 L -2.15076,29.9862 L -2.215,29.7761 L -2.25241,29.5595
 L -2.26239,29.34 L -2.24475,29.1209 L -2.19981,28.9058 L -2.12827,28.698 L -2.03123,28.5008 L -1.91026,28.3173
 L -1.76724,28.1505 L -1.60443,28.0029 L -1.42441,27.8768 L -1.23001,27.7743 L -1.02429,27.697 L -0.810516,27.646
 L -0.592041,27.6223 L -0.372314,27.6261 L -0.1548,27.6575 L 0.0570679,27.7159 L 0.259949,27.8003 L 0.450653,27.9095
 L 0.626175,28.0418 L 0.783722,28.195 L 0.920837,28.3668 L 1.03532,28.5543 L 1.12543,28.7548 L 1.18967,28.965
 L 1.22708,29.1815 L 1.23706,29.4011 L 1.21942,29.6201 L 1.17448,29.8352 L 1.10294,30.043 L 1.00591,30.2402
 L 0.884933,30.4237 L 0.741913,30.5905 L 0.579102,30.7382 L 0.399078,30.8642 L 0.204681,30.9667 L -0.00100708,31.044
 L -0.214798,31.095 L -0.433273,31.1187 z
" stroke="black" fill="lightgray" stroke-width="0.5"/>
</svg>
