<?xml version="1.0" standalone="no"?>
<!DOCTYPE svg PUBLIC "-//W3C//DTD SVG 1.1//EN" "http://www.w3.org/Graphics/SVG/1.1/DTD/svg11.dtd">
<svg width="73mm" height="78mm" viewBox="-33 -39 73 78" xmlns="http://www.w3.org/2000/svg" version="1.1">
<title>OpenSCAD Model</title>
<path d="
M 40,-0 L 12.3607,-38.0423 L -32.3607,-23.5114 L -32.3607,23.5114 L 12.3607,38.0423 z
M 9.31395,-26.0425 L 9.09883,-26.0874 L 8.89104,-26.159 L 8.69386,-26.256 L 8.51039,-26.377 L 8.34352,-26.52
 L 8.19591,-26.6828 L 8.06985,-26.8628 L 7.96736,-27.0572 L 7.89003,-27.2629 L 7.8391,-27.4767 L 7.81535,-27.6952
 L 7.8192,-27.9149 L 7.85054,-28.1325 L 7.90891,-28.3443 L 7.99336,-28.5472 L 8.10258,-28.7379 L 8.23483,-28.9135
 L 8.38806,-29.071 L 8.5598,-29.2081 L 8.74739,-29.3226 L 8.94785,-29.4127 L 9.158,-29.4769 L 9.37457,-29.5143
 L 9.5941,-29.5243 L 9.81316,-29.5067 L 10.0283,-29.4618 L 10.2361,-29.3902 L 10.4333,-29.2932 L 10.6167,-29.1722
 L 10.7836,-29.0292 L 10.9312,-28.8664 L 11.0573,-28.6864 L 11.1597,-28.492 L 11.2371,-28.2862 L 11.288,-28.0725
 L 11.3118,-27.854 L 11.3079,-27.6342 L 11.2766,-27.4167 L 11.2182,-27.2048 L 11.1337,-27.002 L 11.0245,-26.8113
 L 10.8923,-26.6357 L 10.7391,-26.4782 L 10.5673,-26.3411 L 10.3797,-26.2266 L 10.1793,-26.1365 L 9.9691,-26.0722
 L 9.75255,-26.0348 L 9.533,-26.0249 z
M -1.17731,18.713 L -3.5134,18.4179 L -5.79407,17.8323 L -7.98335,16.9655 L -10.0467,15.8311 L -11.9517,14.4471
 L -13.6682,12.8353 L -15.1691,11.021 L -16.4307,9.03287 L -17.4333,6.90233 L -18.1609,4.66293 L -18.6021,2.34999
 L -18.75,-0 L -18.6021,-2.34999 L -18.1609,-4.66293 L -17.4333,-6.90233 L -16.4307,-9.03287 L -15.1691,-11.021
 L -13.6682,-12.8353 L -11.9517,-14.4471 L -10.0467,-15.8311 L -7.98335,-16.9655 L -5.79407,-17.8323 L -3.5134,-18.4179
 L -1.17731,-18.713 L 1.17731,-18.713 L 3.5134,-18.4179 L 5.79407,-17.8323 L 7.98335,-16.9655 L 10.0467,-15.8311
 L 11.9517,-14.4471 L 13.6682,-12.8353 L 15.1691,-11.021 L 16.4307,-9.03287 L 17.4333,-6.90233 L 18.1609,-4.66293
 L 18.6021,-2.34999 L 18.75,-0 L 18.6021,2.34999 L 18.1609,4.66293 L 17.4333,6.90233 L 16.4307,9.03287
 L 15.1691,11.021 L 13.6682,12.8353 L 11.9517,14.4471 L 10.0467,15.8311 L 7.98335,16.9655 L 5.79407,17.8323
 L 3.5134,18.4179 L 1.17731,18.713 z
M -9.81316,29.5067 L -10.0283,29.4618 L -10.2361,29.3902 L -10.4333,29.2932 L -10.6167,29.1722 L -10.7836,29.0292
 L -10.9312,28.8664 L -11.0573,28.6864 L -11.1597,28.492 L -11.2371,28.2862 L -11.288,28.0725 L -11.3118,27.854
 L -11.3079,27.6342 L -11.2766,27.4167 L -11.2182,27.2048 L -11.1337,27.002 L -11.0245,26.8113 L -10.8923,26.6357
 L -10.7391,26.4782 L -10.5673,26.3411 L -10.3797,26.2266 L -10.1793,26.1365 L -9.9691,26.0722 L -9.75255,26.0348
 L -9.533,26.0249 L -9.31395,26.0425 L -9.09883,26.0874 L -8.89104,26.159 L -8.69386,26.256 L -8.51039,26.377
 L -8.34352,26.52 L -8.19591,26.6828 L -8.06985,26.8628 L -7.96736,27.0572 L -7.89003,27.2629 L -7.8391,27.4767
 L -7.81535,27.6952 L -7.8192,27.9149 L -7.85054,28.1325 L -7.90891,28.3443 L -7.99336,28.5472 L -8.10258,28.7379
 L -8.23483,28.9135 L -8.38806,29.071 L -8.5598,29.2081 L -8.74739,29.3226 L -8.94785,29.4127 L -9.158,29.4769
 L -9.37457,29.5143 L -9.5941,29.5243 z
" stroke="black" fill="lightgray" stroke-width="0.5"/>
</svg>
