<?xml version="1.0" standalone="no"?>
<!DOCTYPE svg PUBLIC "-//W3C//DTD SVG 1.1//EN" "http://www.w3.org/Graphics/SVG/1.1/DTD/svg11.dtd">
<svg width="73mm" height="78mm" viewBox="-33 -39 73 78" xmlns="http://www.w3.org/2000/svg" version="1.1">
<title>OpenSCAD Model</title>
<path d="
M 40,-0 L 12.3607,-38.0423 L -32.3607,-23.5114 L -32.3607,23.5114 L 12.3607,38.0423 z
M -0.109879,-27.6284 L -0.327911,-27.656 L -0.540771,-27.7106 L -0.745102,-27.7915 L -0.937683,-27.8974 L -1.11548,-28.0266
 L -1.27568,-28.177 L -1.41577,-28.3464 L -1.53352,-28.5319 L -1.62711,-28.7308 L -1.69501,-28.9398 L -1.73619,-29.1557
 L -1.75,-29.375 L -1.73619,-29.5943 L -1.69501,-29.8102 L -1.62711,-30.0192 L -1.53352,-30.2181 L -1.41577,-30.4036
 L -1.27568,-30.573 L -1.11548,-30.7234 L -0.937683,-30.8526 L -0.745102,-30.9584 L -0.540771,-31.0393 L -0.327911,-31.094
 L -0.109879,-31.1215 L 0.109879,-31.1215 L 0.327911,-31.094 L 0.540771,-31.0393 L 0.745102,-30.9584 L 0.937683,-30.8526
 L 1.11548,-30.7234 L 1.27568,-30.573 L 1.41577,-30.4036 L 1.53352,-30.2181 L 1.62711,-30.0192 L 1.69501,-29.8102
 L 1.73619,-29.5943 L 1.75,-29.375 L 1.73619,-29.1557 L 1.69501,-28.9398 L 1.62711,-28.7308 L 1.53352,-28.5319
 L 1.41577,-28.3464 L 1.27568,-28.177 L 1.11548,-28.0266 L 0.937683,-27.8974 L 0.745102,-27.7915 L 0.540771,-27.7106
 L 0.327911,-27.656 L 0.109879,-27.6284 z
M -1.17731,18.713 L -3.5134,18.4179 L -5.79407,17.8323 L -7.98335,16.9655 L -10.0467,15.8311 L -11.9517,14.4471
 L -13.6682,12.8353 L -15.1691,11.021 L -16.4307,9.03287 L -17.4333,6.90233 L -18.1609,4.66293 L -18.6021,2.34999
 L -18.75,-0 L -18.6021,-2.34999 L -18.1609,-4.66293 L -17.4333,-6.90233 L -16.4307,-9.03287 L -15.1691,-11.021
 L -13.6682,-12.8353 L -11.9517,-14.4471 L -10.0467,-15.8311 L -7.98335,-16.9655 L -5.79407,-17.8323 L -3.5134,-18.4179
 L -1.17731,-18.713 L 1.17731,-18.713 L 3.5134,-18.4179 L 5.79407,-17.8323 L 7.98335,-16.9655 L 10.0467,-15.8311
 L 11.9517,-14.4471 L 13.6682,-12.8353 L 15.1691,-11.021 L 16.4307,-9.03287 L 17.4333,-6.90233 L 18.1609,-4.66293
 L 18.6021,-2.34999 L 18.75,-0 L 18.6021,2.34999 L 18.1609,4.66293 L 17.4333,6.90233 L 16.4307,9.03287
 L 15.1691,11.021 L 13.6682,12.8353 L 11.9517,14.4471 L 10.0467,15.8311 L 7.98335,16.9655 L 5.79407,17.8323
 L 3.5134,18.4179 L 1.17731,18.713 z
M -0.109879,31.1215 L -0.327911,31.094 L -0.540771,31.0393 L -0.745102,30.9584 L -0.937683,30.8526 L -1.11548,30.7234
 L -1.27568,30.573 L -1.41577,30.4036 L -1.53352,30.2181 L -1.62711,30.0192 L -1.69501,29.8102 L -1.73619,29.5943
 L -1.75,29.375 L -1.73619,29.1557 L -1.69501,28.9398 L -1.62711,28.7308 L -1.53352,28.5319 L -1.41577,28.3464
 L -1.27568,28.177 L -1.11548,28.0266 L -0.937683,27.8974 L -0.745102,27.7915 L -0.540771,27.7106 L -0.327911,27.656
 L -0.109879,27.6284 L 0.109879,27.6284 L 0.327911,27.656 L 0.540771,27.7106 L 0.745102,27.7915 L 0.937683,27.8974
 L 1.11548,28.0266 L 1.27568,28.177 L 1.41577,28.3464 L 1.53352,28.5319 L 1.62711,28.7308 L 1.69501,28.9398
 L 1.73619,29.1557 L 1.75,29.375 L 1.73619,29.5943 L 1.69501,29.8102 L 1.62711,30.0192 L 1.53352,30.2181
 L 1.41577,30.4036 L 1.27568,30.573 L 1.11548,30.7234 L 0.937683,30.8526 L 0.745102,30.9584 L 0.540771,31.0393
 L 0.327911,31.094 L 0.109879,31.1215 z
" stroke="black" fill="lightgray" stroke-width="0.5"/>
</svg>
