<?xml version="1.0" standalone="no"?>
<!DOCTYPE svg PUBLIC "-//W3C//DTD SVG 1.1//EN" "http://www.w3.org/Graphics/SVG/1.1/DTD/svg11.dtd">
<svg width="91mm" height="96mm" viewBox="-41 -48 91 96" xmlns="http://www.w3.org/2000/svg" version="1.1">
<title>OpenSCAD Model</title>
<path d="
M 50,-0 L 15.4508,-47.5528 L -40.4508,-29.3893 L -40.4508,29.3893 L 15.4508,47.5528 z
M 0.359329,-31.3794 L -0.0135498,-31.4332 L -0.37677,-31.5332 L -0.724579,-31.678 L -1.0515,-31.8652 L -1.35237,-32.0919
 L -1.62248,-32.3546 L -1.85751,-32.649 L -2.0538,-32.9706 L -2.20824,-33.3142 L -2.31839,-33.6745 L -2.38251,-34.0457
 L -2.39961,-34.4221 L -2.36938,-34.7976 L -2.29234,-35.1664 L -2.16969,-35.5226 L -2.00334,-35.8607 L -1.79597,-36.1752
 L -1.5508,-36.4612 L -1.2717,-36.7143 L -0.963089,-36.9304 L -0.629822,-37.1061 L -0.277176,-37.2387 L 0.0892944,-37.326
 L 0.463837,-37.3667 L 0.840515,-37.3601 L 1.21339,-37.3064 L 1.57661,-37.2063 L 1.92442,-37.0615 L 2.25134,-36.8743
 L 2.55223,-36.6476 L 2.82233,-36.3849 L 3.05737,-36.0905 L 3.25365,-35.7689 L 3.4081,-35.4253 L 3.51825,-35.065
 L 3.58237,-34.6937 L 3.59946,-34.3174 L 3.56924,-33.9419 L 3.4922,-33.5731 L 3.36954,-33.2169 L 3.2032,-32.8788
 L 2.99582,-32.5643 L 2.75066,-32.2783 L 2.47154,-32.0252 L 2.16293,-31.8091 L 1.82968,-31.6334 L 1.47704,-31.5008
 L 1.11053,-31.4135 L 0.736008,-31.3728 z
M -1.17731,18.713 L -3.5134,18.4179 L -5.79407,17.8323 L -7.98335,16.9655 L -10.0467,15.8311 L -11.9517,14.4471
 L -13.6682,12.8353 L -15.1691,11.021 L -16.4307,9.03287 L -17.4333,6.90233 L -18.1609,4.66293 L -18.6021,2.34999
 L -18.75,-0 L -18.6021,-2.34999 L -18.1609,-4.66293 L -17.4333,-6.90233 L -16.4307,-9.03287 L -15.1691,-11.021
 L -13.6682,-12.8353 L -11.9517,-14.4471 L -10.0467,-15.8311 L -7.98335,-16.9655 L -5.79407,-17.8323 L -3.5134,-18.4179
 L -1.17731,-18.713 L 1.17731,-18.713 L 3.5134,-18.4179 L 5.79407,-17.8323 L 7.98335,-16.9655 L 10.0467,-15.8311
 L 11.9517,-14.4471 L 13.6682,-12.8353 L 15.1691,-11.021 L 16.4307,-9.03287 L 17.4333,-6.90233 L 18.1609,-4.66293
 L 18.6021,-2.34999 L 18.75,-0 L 18.6021,2.34999 L 18.1609,4.66293 L 17.4333,6.90233 L 16.4307,9.03287
 L 15.1691,11.021 L 13.6682,12.8353 L 11.9517,14.4471 L 10.0467,15.8311 L 7.98335,16.9655 L 5.79407,17.8323
 L 3.5134,18.4179 L 1.17731,18.713 z
M -0.840515,37.3601 L -1.21339,37.3064 L -1.57661,37.2063 L -1.92442,37.0615 L -2.25134,36.8743 L -2.55223,36.6476
 L -2.82233,36.3849 L -3.05737,36.0905 L -3.25365,35.7689 L -3.4081,35.4253 L -3.51825,35.065 L -3.58237,34.6937
 L -3.59946,34.3174 L -3.56924,33.9419 L -3.4922,33.5731 L -3.36954,33.2169 L -3.2032,32.8788 L -2.99582,32.5643
 L -2.75066,32.2783 L -2.47154,32.0252 L -2.16293,31.8091 L -1.82968,31.6334 L -1.47704,31.5008 L -1.11053,31.4135
 L -0.736008,31.3728 L -0.359329,31.3794 L 0.0135498,31.4332 L 0.37677,31.5332 L 0.724579,31.678 L 1.0515,31.8652
 L 1.35237,32.0919 L 1.62248,32.3546 L 1.85751,32.649 L 2.0538,32.9706 L 2.20824,33.3142 L 2.31839,33.6745
 L 2.38251,34.0457 L 2.39961,34.4221 L 2.36938,34.7976 L 2.29234,35.1664 L 2.16969,35.5226 L 2.00334,35.8607
 L 1.79597,36.1752 L 1.5508,36.4612 L 1.2717,36.7143 L 0.963089,36.9304 L 0.629822,37.1061 L 0.277176,37.2387
 L -0.0892944,37.326 L -0.463837,37.3667 z
" stroke="black" fill="lightgray" stroke-width="0.5"/>
</svg>
