<?xml version="1.0" standalone="no"?>
<!DOCTYPE svg PUBLIC "-//W3C//DTD SVG 1.1//EN" "http://www.w3.org/Graphics/SVG/1.1/DTD/svg11.dtd">
<svg width="73mm" height="78mm" viewBox="-33 -39 73 78" xmlns="http://www.w3.org/2000/svg" version="1.1">
<title>OpenSCAD Model</title>
<path d="
M 40,-0 L 12.3607,-38.0423 L -32.3607,-23.5114 L -32.3607,23.5114 L 12.3607,38.0423 z
M 3.95393,-27.3443 L 3.73631,-27.3748 L 3.52425,-27.4325 L 3.32106,-27.5162 L 3.12997,-27.6248 L 2.95401,-27.7564
 L 2.79591,-27.9091 L 2.65822,-28.0804 L 2.54305,-28.2675 L 2.45227,-28.4677 L 2.38727,-28.6776 L 2.34912,-28.894
 L 2.33838,-29.1135 L 2.35524,-29.3327 L 2.39943,-29.5479 L 2.47026,-29.756 L 2.56659,-29.9535 L 2.68694,-30.1374
 L 2.82936,-30.3047 L 2.99165,-30.453 L 3.17123,-30.5796 L 3.36528,-30.6828 L 3.57072,-30.7608 L 3.78432,-30.8125
 L 4.00272,-30.837 L 4.22246,-30.834 L 4.44008,-30.8034 L 4.65216,-30.7457 L 4.85535,-30.662 L 5.04642,-30.5535
 L 5.2224,-30.4218 L 5.38048,-30.2691 L 5.51819,-30.0979 L 5.63335,-29.9107 L 5.72414,-29.7106 L 5.78912,-29.5006
 L 5.82729,-29.2842 L 5.83803,-29.0647 L 5.82117,-28.8456 L 5.77696,-28.6303 L 5.70615,-28.4222 L 5.60982,-28.2247
 L 5.48947,-28.0408 L 5.34705,-27.8735 L 5.18474,-27.7253 L 5.00516,-27.5986 L 4.81113,-27.4954 L 4.60568,-27.4174
 L 4.39207,-27.3657 L 4.17368,-27.3412 z
M -1.17731,18.713 L -3.5134,18.4179 L -5.79407,17.8323 L -7.98335,16.9655 L -10.0467,15.8311 L -11.9517,14.4471
 L -13.6682,12.8353 L -15.1691,11.021 L -16.4307,9.03287 L -17.4333,6.90233 L -18.1609,4.66293 L -18.6021,2.34999
 L -18.75,-0 L -18.6021,-2.34999 L -18.1609,-4.66293 L -17.4333,-6.90233 L -16.4307,-9.03287 L -15.1691,-11.021
 L -13.6682,-12.8353 L -11.9517,-14.4471 L -10.0467,-15.8311 L -7.98335,-16.9655 L -5.79407,-17.8323 L -3.5134,-18.4179
 L -1.17731,-18.713 L 1.17731,-18.713 L 3.5134,-18.4179 L 5.79407,-17.8323 L 7.98335,-16.9655 L 10.0467,-15.8311
 L 11.9517,-14.4471 L 13.6682,-12.8353 L 15.1691,-11.021 L 16.4307,-9.03287 L 17.4333,-6.90233 L 18.1609,-4.66293
 L 18.6021,-2.34999 L 18.75,-0 L 18.6021,2.34999 L 18.1609,4.66293 L 17.4333,6.90233 L 16.4307,9.03287
 L 15.1691,11.021 L 13.6682,12.8353 L 11.9517,14.4471 L 10.0467,15.8311 L 7.98335,16.9655 L 5.79407,17.8323
 L 3.5134,18.4179 L 1.17731,18.713 z
M -4.22246,30.834 L -4.44008,30.8034 L -4.65216,30.7457 L -4.85535,30.662 L -5.04642,30.5535 L -5.2224,30.4218
 L -5.38048,30.2691 L -5.51819,30.0979 L -5.63335,29.9107 L -5.72414,29.7106 L -5.78912,29.5006 L -5.82729,29.2842
 L -5.83803,29.0647 L -5.82117,28.8456 L -5.77696,28.6303 L -5.70615,28.4222 L -5.60982,28.2247 L -5.48947,28.0408
 L -5.34705,27.8735 L -5.18474,27.7253 L -5.00516,27.5986 L -4.81113,27.4954 L -4.60568,27.4174 L -4.39207,27.3657
 L -4.17368,27.3412 L -3.95393,27.3443 L -3.73631,27.3748 L -3.52425,27.4325 L -3.32106,27.5162 L -3.12997,27.6248
 L -2.95401,27.7564 L -2.79591,27.9091 L -2.65822,28.0804 L -2.54305,28.2675 L -2.45227,28.4677 L -2.38727,28.6776
 L -2.34912,28.894 L -2.33838,29.1135 L -2.35524,29.3327 L -2.39943,29.5479 L -2.47026,29.756 L -2.56659,29.9535
 L -2.68694,30.1374 L -2.82936,30.3047 L -2.99165,30.453 L -3.17123,30.5796 L -3.36528,30.6828 L -3.57072,30.7608
 L -3.78432,30.8125 L -4.00272,30.837 z
" stroke="black" fill="lightgray" stroke-width="0.5"/>
</svg>
