<?xml version="1.0" standalone="no"?>
<!DOCTYPE svg PUBLIC "-//W3C//DTD SVG 1.1//EN" "http://www.w3.org/Graphics/SVG/1.1/DTD/svg11.dtd">
<svg width="73mm" height="78mm" viewBox="-33 -39 73 78" xmlns="http://www.w3.org/2000/svg" version="1.1">
<title>OpenSCAD Model</title>
<path d="
M 40,-0 L 12.3607,-38.0423 L -32.3607,-23.5114 L -32.3607,23.5114 L 12.3607,38.0423 z
M 3.258,-27.4359 L 3.04494,-27.4898 L 2.84033,-27.57 L 2.64738,-27.6752 L 2.46913,-27.8037 L 2.30841,-27.9536
 L 2.16774,-28.1225 L 2.04933,-28.3076 L 1.95506,-28.5061 L 1.88641,-28.7149 L 1.8445,-28.9306 L 1.82993,-29.1499
 L 1.84294,-29.3693 L 1.88338,-29.5853 L 1.95056,-29.7946 L 2.04344,-29.9937 L 2.16055,-30.1797 L 2.30005,-30.3495
 L 2.45973,-30.5005 L 2.63707,-30.6303 L 2.82928,-30.7369 L 3.03333,-30.8185 L 3.246,-30.8739 L 3.46393,-30.9022
 L 3.6837,-30.9029 L 3.90181,-30.8762 L 4.11487,-30.8223 L 4.31947,-30.7421 L 4.51242,-30.6369 L 4.69067,-30.5083
 L 4.85139,-30.3584 L 4.99207,-30.1896 L 5.11047,-30.0044 L 5.20474,-29.8059 L 5.27339,-29.5972 L 5.31531,-29.3814
 L 5.32988,-29.1621 L 5.31686,-28.9428 L 5.27643,-28.7267 L 5.20924,-28.5175 L 5.11636,-28.3183 L 4.99925,-28.1324
 L 4.85977,-27.9625 L 4.70007,-27.8115 L 4.52274,-27.6817 L 4.33052,-27.5752 L 4.12648,-27.4936 L 3.91382,-27.4382
 L 3.69588,-27.4099 L 3.47612,-27.4091 z
M -1.17731,18.713 L -3.5134,18.4179 L -5.79407,17.8323 L -7.98335,16.9655 L -10.0467,15.8311 L -11.9517,14.4471
 L -13.6682,12.8353 L -15.1691,11.021 L -16.4307,9.03287 L -17.4333,6.90233 L -18.1609,4.66293 L -18.6021,2.34999
 L -18.75,-0 L -18.6021,-2.34999 L -18.1609,-4.66293 L -17.4333,-6.90233 L -16.4307,-9.03287 L -15.1691,-11.021
 L -13.6682,-12.8353 L -11.9517,-14.4471 L -10.0467,-15.8311 L -7.98335,-16.9655 L -5.79407,-17.8323 L -3.5134,-18.4179
 L -1.17731,-18.713 L 1.17731,-18.713 L 3.5134,-18.4179 L 5.79407,-17.8323 L 7.98335,-16.9655 L 10.0467,-15.8311
 L 11.9517,-14.4471 L 13.6682,-12.8353 L 15.1691,-11.021 L 16.4307,-9.03287 L 17.4333,-6.90233 L 18.1609,-4.66293
 L 18.6021,-2.34999 L 18.75,-0 L 18.6021,2.34999 L 18.1609,4.66293 L 17.4333,6.90233 L 16.4307,9.03287
 L 15.1691,11.021 L 13.6682,12.8353 L 11.9517,14.4471 L 10.0467,15.8311 L 7.98335,16.9655 L 5.79407,17.8323
 L 3.5134,18.4179 L 1.17731,18.713 z
M -3.90181,30.8762 L -4.11487,30.8223 L -4.31947,30.7421 L -4.51242,30.6369 L -4.69067,30.5083 L -4.85139,30.3584
 L -4.99207,30.1896 L -5.11047,30.0044 L -5.20474,29.8059 L -5.27339,29.5972 L -5.31531,29.3814 L -5.32988,29.1621
 L -5.31686,28.9428 L -5.27643,28.7267 L -5.20924,28.5175 L -5.11636,28.3183 L -4.99925,28.1324 L -4.85977,27.9625
 L -4.70007,27.8115 L -4.52274,27.6817 L -4.33052,27.5752 L -4.12648,27.4936 L -3.91382,27.4382 L -3.69588,27.4099
 L -3.47612,27.4091 L -3.258,27.4359 L -3.04494,27.4898 L -2.84033,27.57 L -2.64738,27.6752 L -2.46913,27.8037
 L -2.30841,27.9536 L -2.16774,28.1225 L -2.04933,28.3076 L -1.95506,28.5061 L -1.88641,28.7149 L -1.8445,28.9306
 L -1.82993,29.1499 L -1.84294,29.3693 L -1.88338,29.5853 L -1.95056,29.7946 L -2.04344,29.9937 L -2.16055,30.1797
 L -2.30005,30.3495 L -2.45973,30.5005 L -2.63707,30.6303 L -2.82928,30.7369 L -3.03333,30.8185 L -3.246,30.8739
 L -3.46393,30.9022 L -3.6837,30.9029 z
" stroke="black" fill="lightgray" stroke-width="0.5"/>
</svg>
