<?xml version="1.0" standalone="no"?>
<!DOCTYPE svg PUBLIC "-//W3C//DTD SVG 1.1//EN" "http://www.w3.org/Graphics/SVG/1.1/DTD/svg11.dtd">
<svg width="91mm" height="96mm" viewBox="-41 -48 91 96" xmlns="http://www.w3.org/2000/svg" version="1.1">
<title>OpenSCAD Model</title>
<path d="
M 50,-0 L 15.4508,-47.5528 L -40.4508,-29.3893 L -40.4508,29.3893 L 15.4508,47.5528 z
M 6.70871,-30.656 L 6.34019,-30.7343 L 5.98442,-30.8582 L 5.64696,-31.0257 L 5.33316,-31.2342 L 5.04797,-31.4804
 L 4.79588,-31.7604 L 4.58086,-32.0697 L 4.40633,-32.4036 L 4.27501,-32.7567 L 4.18898,-33.1235 L 4.14958,-33.4982
 L 4.15749,-33.8748 L 4.21251,-34.2476 L 4.31384,-34.6104 L 4.45982,-34.9577 L 4.64819,-35.284 L 4.87598,-35.5841
 L 5.13957,-35.8532 L 5.43481,-36.0872 L 5.75708,-36.2824 L 6.10126,-36.4357 L 6.46191,-36.5445 L 6.83337,-36.6074
 L 7.20979,-36.6232 L 7.58521,-36.5916 L 7.95372,-36.5133 L 8.30949,-36.3894 L 8.64696,-36.2219 L 8.96074,-36.0134
 L 9.24593,-35.7672 L 9.49803,-35.4873 L 9.71304,-35.1779 L 9.88759,-34.844 L 10.0189,-34.4909 L 10.1049,-34.1241
 L 10.1443,-33.7494 L 10.1364,-33.3728 L 10.0814,-33.0001 L 9.98007,-32.6372 L 9.83409,-32.2899 L 9.64571,-31.9636
 L 9.41792,-31.6636 L 9.15434,-31.3944 L 8.8591,-31.1604 L 8.53683,-30.9652 L 8.19266,-30.812 L 7.832,-30.7031
 L 7.46054,-30.6402 L 7.08412,-30.6245 z
M -1.17731,18.713 L -3.5134,18.4179 L -5.79407,17.8323 L -7.98335,16.9655 L -10.0467,15.8311 L -11.9517,14.4471
 L -13.6682,12.8353 L -15.1691,11.021 L -16.4307,9.03287 L -17.4333,6.90233 L -18.1609,4.66293 L -18.6021,2.34999
 L -18.75,-0 L -18.6021,-2.34999 L -18.1609,-4.66293 L -17.4333,-6.90233 L -16.4307,-9.03287 L -15.1691,-11.021
 L -13.6682,-12.8353 L -11.9517,-14.4471 L -10.0467,-15.8311 L -7.98335,-16.9655 L -5.79407,-17.8323 L -3.5134,-18.4179
 L -1.17731,-18.713 L 1.17731,-18.713 L 3.5134,-18.4179 L 5.79407,-17.8323 L 7.98335,-16.9655 L 10.0467,-15.8311
 L 11.9517,-14.4471 L 13.6682,-12.8353 L 15.1691,-11.021 L 16.4307,-9.03287 L 17.4333,-6.90233 L 18.1609,-4.66293
 L 18.6021,-2.34999 L 18.75,-0 L 18.6021,2.34999 L 18.1609,4.66293 L 17.4333,6.90233 L 16.4307,9.03287
 L 15.1691,11.021 L 13.6682,12.8353 L 11.9517,14.4471 L 10.0467,15.8311 L 7.98335,16.9655 L 5.79407,17.8323
 L 3.5134,18.4179 L 1.17731,18.713 z
M -7.58521,36.5916 L -7.95372,36.5133 L -8.30949,36.3894 L -8.64696,36.2219 L -8.96074,36.0134 L -9.24593,35.7672
 L -9.49803,35.4873 L -9.71304,35.1779 L -9.88759,34.844 L -10.0189,34.4909 L -10.1049,34.1241 L -10.1443,33.7494
 L -10.1364,33.3728 L -10.0814,33.0001 L -9.98007,32.6372 L -9.83409,32.2899 L -9.64571,31.9636 L -9.41792,31.6636
 L -9.15434,31.3944 L -8.8591,31.1604 L -8.53683,30.9652 L -8.19266,30.812 L -7.832,30.7031 L -7.46054,30.6402
 L -7.08412,30.6245 L -6.70871,30.656 L -6.34019,30.7343 L -5.98442,30.8582 L -5.64696,31.0257 L -5.33316,31.2342
 L -5.04797,31.4804 L -4.79588,31.7604 L -4.58086,32.0697 L -4.40633,32.4036 L -4.27501,32.7567 L -4.18898,33.1235
 L -4.14958,33.4982 L -4.15749,33.8748 L -4.21251,34.2476 L -4.31384,34.6104 L -4.45982,34.9577 L -4.64819,35.284
 L -4.87598,35.5841 L -5.13957,35.8532 L -5.43481,36.0872 L -5.75708,36.2824 L -6.10126,36.4357 L -6.46191,36.5445
 L -6.83337,36.6074 L -7.20979,36.6232 z
" stroke="black" fill="lightgray" stroke-width="0.5"/>
</svg>
