<?xml version="1.0" standalone="no"?>
<!DOCTYPE svg PUBLIC "-//W3C//DTD SVG 1.1//EN" "http://www.w3.org/Graphics/SVG/1.1/DTD/svg11.dtd">
<svg width="73mm" height="78mm" viewBox="-33 -39 73 78" xmlns="http://www.w3.org/2000/svg" version="1.1">
<title>OpenSCAD Model</title>
<path d="
M 40,-0 L 12.3607,-38.0423 L -32.3607,-23.5114 L -32.3607,23.5114 L 12.3607,38.0423 z
M 8.3994,-26.3517 L 8.18285,-26.3891 L 7.97269,-26.4533 L 7.77223,-26.5434 L 7.58466,-26.6579 L 7.41292,-26.795
 L 7.25969,-26.9526 L 7.12744,-27.1281 L 7.01822,-27.3188 L 6.93376,-27.5217 L 6.8754,-27.7336 L 6.84406,-27.9511
 L 6.84023,-28.1708 L 6.86395,-28.3893 L 6.91487,-28.6031 L 6.9922,-28.8088 L 7.09471,-29.0032 L 7.22075,-29.1832
 L 7.36838,-29.346 L 7.53523,-29.489 L 7.71872,-29.61 L 7.91591,-29.707 L 8.1237,-29.7786 L 8.33882,-29.8235
 L 8.55788,-29.8412 L 8.77742,-29.8312 L 8.99397,-29.7938 L 9.20413,-29.7295 L 9.40459,-29.6395 L 9.59216,-29.5249
 L 9.7639,-29.3878 L 9.91711,-29.2303 L 10.0494,-29.0548 L 10.1586,-28.8641 L 10.2431,-28.6612 L 10.3014,-28.4493
 L 10.3328,-28.2318 L 10.3366,-28.0121 L 10.3129,-27.7936 L 10.2619,-27.5798 L 10.1846,-27.3741 L 10.0821,-27.1797
 L 9.95607,-26.9996 L 9.80844,-26.8369 L 9.64159,-26.6938 L 9.4581,-26.5728 L 9.26091,-26.4758 L 9.05312,-26.4043
 L 8.838,-26.3593 L 8.61894,-26.3417 z
M -1.17731,18.713 L -3.5134,18.4179 L -5.79407,17.8323 L -7.98335,16.9655 L -10.0467,15.8311 L -11.9517,14.4471
 L -13.6682,12.8353 L -15.1691,11.021 L -16.4307,9.03287 L -17.4333,6.90233 L -18.1609,4.66293 L -18.6021,2.34999
 L -18.75,-0 L -18.6021,-2.34999 L -18.1609,-4.66293 L -17.4333,-6.90233 L -16.4307,-9.03287 L -15.1691,-11.021
 L -13.6682,-12.8353 L -11.9517,-14.4471 L -10.0467,-15.8311 L -7.98335,-16.9655 L -5.79407,-17.8323 L -3.5134,-18.4179
 L -1.17731,-18.713 L 1.17731,-18.713 L 3.5134,-18.4179 L 5.79407,-17.8323 L 7.98335,-16.9655 L 10.0467,-15.8311
 L 11.9517,-14.4471 L 13.6682,-12.8353 L 15.1691,-11.021 L 16.4307,-9.03287 L 17.4333,-6.90233 L 18.1609,-4.66293
 L 18.6021,-2.34999 L 18.75,-0 L 18.6021,2.34999 L 18.1609,4.66293 L 17.4333,6.90233 L 16.4307,9.03287
 L 15.1691,11.021 L 13.6682,12.8353 L 11.9517,14.4471 L 10.0467,15.8311 L 7.98335,16.9655 L 5.79407,17.8323
 L 3.5134,18.4179 L 1.17731,18.713 z
M -8.77742,29.8312 L -8.99397,29.7938 L -9.20413,29.7295 L -9.40459,29.6395 L -9.59216,29.5249 L -9.7639,29.3878
 L -9.91711,29.2303 L -10.0494,29.0548 L -10.1586,28.8641 L -10.2431,28.6612 L -10.3014,28.4493 L -10.3328,28.2318
 L -10.3366,28.0121 L -10.3129,27.7936 L -10.2619,27.5798 L -10.1846,27.3741 L -10.0821,27.1797 L -9.95607,26.9996
 L -9.80844,26.8369 L -9.64159,26.6938 L -9.4581,26.5728 L -9.26091,26.4758 L -9.05312,26.4043 L -8.838,26.3593
 L -8.61894,26.3417 L -8.3994,26.3517 L -8.18285,26.3891 L -7.97269,26.4533 L -7.77223,26.5434 L -7.58466,26.6579
 L -7.41292,26.795 L -7.25969,26.9526 L -7.12744,27.1281 L -7.01822,27.3188 L -6.93376,27.5217 L -6.8754,27.7336
 L -6.84406,27.9511 L -6.84023,28.1708 L -6.86395,28.3893 L -6.91487,28.6031 L -6.9922,28.8088 L -7.09471,29.0032
 L -7.22075,29.1832 L -7.36838,29.346 L -7.53523,29.489 L -7.71872,29.61 L -7.91591,29.707 L -8.1237,29.7786
 L -8.33882,29.8235 L -8.55788,29.8412 z
" stroke="black" fill="lightgray" stroke-width="0.5"/>
</svg>
