<?xml version="1.0" standalone="no"?>
<!DOCTYPE svg PUBLIC "-//W3C//DTD SVG 1.1//EN" "http://www.w3.org/Graphics/SVG/1.1/DTD/svg11.dtd">
<svg width="91mm" height="96mm" viewBox="-41 -48 91 96" xmlns="http://www.w3.org/2000/svg" version="1.1">
<title>OpenSCAD Model</title>
<path d="
M 50,-0 L 15.4508,-47.5528 L -40.4508,-29.3893 L -40.4508,29.3893 L 15.4508,47.5528 z
M 8.67717,-30.2117 L 8.30392,-30.2629 L 7.94002,-30.3604 L 7.59122,-30.5027 L 7.26299,-30.6877 L 6.96053,-30.9123
 L 6.68861,-31.173 L 6.45152,-31.4658 L 6.25299,-31.786 L 6.09616,-32.1286 L 5.98351,-32.4881 L 5.91678,-32.8589
 L 5.89706,-33.2351 L 5.92467,-33.6108 L 5.99911,-33.9801 L 6.11929,-34.3372 L 6.28326,-34.6764 L 6.48845,-34.9924
 L 6.73163,-35.2801 L 7.00894,-35.5351 L 7.31602,-35.7534 L 7.64807,-35.9314 L 7.99979,-36.0664 L 8.36565,-36.1563
 L 8.7399,-36.1996 L 9.11662,-36.1956 L 9.48987,-36.1445 L 9.85378,-36.047 L 10.2026,-35.9046 L 10.5308,-35.7197
 L 10.8333,-35.4951 L 11.1052,-35.2343 L 11.3423,-34.9415 L 11.5408,-34.6213 L 11.6976,-34.2788 L 11.8103,-33.9193
 L 11.877,-33.5485 L 11.8967,-33.1723 L 11.8691,-32.7965 L 11.7947,-32.4272 L 11.6745,-32.0702 L 11.5105,-31.731
 L 11.3053,-31.415 L 11.0622,-31.1273 L 10.7849,-30.8722 L 10.4778,-30.654 L 10.1457,-30.476 L 9.79401,-30.341
 L 9.42815,-30.2511 L 9.05389,-30.2078 z
M -1.17731,18.713 L -3.5134,18.4179 L -5.79407,17.8323 L -7.98335,16.9655 L -10.0467,15.8311 L -11.9517,14.4471
 L -13.6682,12.8353 L -15.1691,11.021 L -16.4307,9.03287 L -17.4333,6.90233 L -18.1609,4.66293 L -18.6021,2.34999
 L -18.75,-0 L -18.6021,-2.34999 L -18.1609,-4.66293 L -17.4333,-6.90233 L -16.4307,-9.03287 L -15.1691,-11.021
 L -13.6682,-12.8353 L -11.9517,-14.4471 L -10.0467,-15.8311 L -7.98335,-16.9655 L -5.79407,-17.8323 L -3.5134,-18.4179
 L -1.17731,-18.713 L 1.17731,-18.713 L 3.5134,-18.4179 L 5.79407,-17.8323 L 7.98335,-16.9655 L 10.0467,-15.8311
 L 11.9517,-14.4471 L 13.6682,-12.8353 L 15.1691,-11.021 L 16.4307,-9.03287 L 17.4333,-6.90233 L 18.1609,-4.66293
 L 18.6021,-2.34999 L 18.75,-0 L 18.6021,2.34999 L 18.1609,4.66293 L 17.4333,6.90233 L 16.4307,9.03287
 L 15.1691,11.021 L 13.6682,12.8353 L 11.9517,14.4471 L 10.0467,15.8311 L 7.98335,16.9655 L 5.79407,17.8323
 L 3.5134,18.4179 L 1.17731,18.713 z
M -9.11662,36.1956 L -9.48987,36.1445 L -9.85378,36.047 L -10.2026,35.9046 L -10.5308,35.7197 L -10.8333,35.4951
 L -11.1052,35.2343 L -11.3423,34.9415 L -11.5408,34.6213 L -11.6976,34.2788 L -11.8103,33.9193 L -11.877,33.5485
 L -11.8967,33.1723 L -11.8691,32.7965 L -11.7947,32.4272 L -11.6745,32.0702 L -11.5105,31.731 L -11.3053,31.415
 L -11.0622,31.1273 L -10.7849,30.8722 L -10.4778,30.654 L -10.1457,30.476 L -9.79401,30.341 L -9.42815,30.2511
 L -9.05389,30.2078 L -8.67717,30.2117 L -8.30392,30.2629 L -7.94002,30.3604 L -7.59122,30.5027 L -7.26299,30.6877
 L -6.96053,30.9123 L -6.68861,31.173 L -6.45152,31.4658 L -6.25299,31.786 L -6.09616,32.1286 L -5.98351,32.4881
 L -5.91678,32.8589 L -5.89706,33.2351 L -5.92467,33.6108 L -5.99911,33.9801 L -6.11929,34.3372 L -6.28326,34.6764
 L -6.48845,34.9924 L -6.73163,35.2801 L -7.00894,35.5351 L -7.31602,35.7534 L -7.64807,35.9314 L -7.99979,36.0664
 L -8.36565,36.1563 L -8.7399,36.1996 z
" stroke="black" fill="lightgray" stroke-width="0.5"/>
</svg>
