<?xml version="1.0" standalone="no"?>
<!DOCTYPE svg PUBLIC "-//W3C//DTD SVG 1.1//EN" "http://www.w3.org/Graphics/SVG/1.1/DTD/svg11.dtd">
<svg width="91mm" height="96mm" viewBox="-41 -48 91 96" xmlns="http://www.w3.org/2000/svg" version="1.1">
<title>OpenSCAD Model</title>
<path d="
M 50,-0 L 15.4508,-47.5528 L -40.4508,-29.3893 L -40.4508,29.3893 L 15.4508,47.5528 z
M 10.7635,-29.5329 L 10.3947,-29.6099 L 10.0385,-29.7325 L 9.70049,-29.8989 L 9.38596,-30.1063 L 9.09991,-30.3514
 L 8.84685,-30.6305 L 8.63075,-30.9391 L 8.45503,-31.2724 L 8.32248,-31.6251 L 8.23518,-31.9916 L 8.19449,-32.3661
 L 8.20107,-32.7428 L 8.25481,-33.1157 L 8.35484,-33.4789 L 8.49963,-33.8267 L 8.68686,-34.1536 L 8.91359,-34.4545
 L 9.17624,-34.7246 L 9.47067,-34.9596 L 9.79224,-35.1559 L 10.1359,-35.3104 L 10.4962,-35.4205 L 10.8674,-35.4846
 L 11.2438,-35.5017 L 11.6193,-35.4715 L 11.9881,-35.3945 L 12.3443,-35.2718 L 12.6823,-35.1055 L 12.9968,-34.8981
 L 13.2829,-34.6529 L 13.5359,-34.3738 L 13.752,-34.0652 L 13.9277,-33.732 L 14.0603,-33.3793 L 14.1476,-33.0128
 L 14.1883,-32.6383 L 14.1817,-32.2616 L 14.128,-31.8887 L 14.028,-31.5255 L 13.8832,-31.1777 L 13.6959,-30.8507
 L 13.4692,-30.5499 L 13.2065,-30.2798 L 12.9121,-30.0447 L 12.5906,-29.8484 L 12.2469,-29.694 L 11.8866,-29.5839
 L 11.5154,-29.5197 L 11.139,-29.5026 z
M -1.17731,18.713 L -3.5134,18.4179 L -5.79407,17.8323 L -7.98335,16.9655 L -10.0467,15.8311 L -11.9517,14.4471
 L -13.6682,12.8353 L -15.1691,11.021 L -16.4307,9.03287 L -17.4333,6.90233 L -18.1609,4.66293 L -18.6021,2.34999
 L -18.75,-0 L -18.6021,-2.34999 L -18.1609,-4.66293 L -17.4333,-6.90233 L -16.4307,-9.03287 L -15.1691,-11.021
 L -13.6682,-12.8353 L -11.9517,-14.4471 L -10.0467,-15.8311 L -7.98335,-16.9655 L -5.79407,-17.8323 L -3.5134,-18.4179
 L -1.17731,-18.713 L 1.17731,-18.713 L 3.5134,-18.4179 L 5.79407,-17.8323 L 7.98335,-16.9655 L 10.0467,-15.8311
 L 11.9517,-14.4471 L 13.6682,-12.8353 L 15.1691,-11.021 L 16.4307,-9.03287 L 17.4333,-6.90233 L 18.1609,-4.66293
 L 18.6021,-2.34999 L 18.75,-0 L 18.6021,2.34999 L 18.1609,4.66293 L 17.4333,6.90233 L 16.4307,9.03287
 L 15.1691,11.021 L 13.6682,12.8353 L 11.9517,14.4471 L 10.0467,15.8311 L 7.98335,16.9655 L 5.79407,17.8323
 L 3.5134,18.4179 L 1.17731,18.713 z
M -11.6193,35.4715 L -11.9881,35.3945 L -12.3443,35.2718 L -12.6823,35.1055 L -12.9968,34.8981 L -13.2829,34.6529
 L -13.5359,34.3738 L -13.752,34.0652 L -13.9277,33.732 L -14.0603,33.3793 L -14.1476,33.0128 L -14.1883,32.6383
 L -14.1817,32.2616 L -14.128,31.8887 L -14.028,31.5255 L -13.8832,31.1777 L -13.6959,30.8507 L -13.4692,30.5499
 L -13.2065,30.2798 L -12.9121,30.0447 L -12.5906,29.8484 L -12.2469,29.694 L -11.8866,29.5839 L -11.5154,29.5197
 L -11.139,29.5026 L -10.7635,29.5329 L -10.3947,29.6099 L -10.0385,29.7325 L -9.70049,29.8989 L -9.38596,30.1063
 L -9.09991,30.3514 L -8.84685,30.6305 L -8.63075,30.9391 L -8.45503,31.2724 L -8.32248,31.6251 L -8.23518,31.9916
 L -8.19449,32.3661 L -8.20107,32.7428 L -8.25481,33.1157 L -8.35484,33.4789 L -8.49963,33.8267 L -8.68686,34.1536
 L -8.91359,34.4545 L -9.17624,34.7246 L -9.47067,34.9596 L -9.79224,35.1559 L -10.1359,35.3104 L -10.4962,35.4205
 L -10.8674,35.4846 L -11.2438,35.5017 z
" stroke="black" fill="lightgray" stroke-width="0.5"/>
</svg>
