<?xml version="1.0" standalone="no"?>
<!DOCTYPE svg PUBLIC "-//W3C//DTD SVG 1.1//EN" "http://www.w3.org/Graphics/SVG/1.1/DTD/svg11.dtd">
<svg width="91mm" height="96mm" viewBox="-41 -48 91 96" xmlns="http://www.w3.org/2000/svg" version="1.1">
<title>OpenSCAD Model</title>
<path d="
M 50,-0 L 15.4508,-47.5528 L -40.4508,-29.3893 L -40.4508,29.3893 L 15.4508,47.5528 z
M 5.09509,-30.9651 L 4.72299,-31.024 L 4.36122,-31.1291 L 4.01546,-31.2787 L 3.69118,-31.4705 L 3.39351,-31.7014
 L 3.12711,-31.9678 L 2.89618,-32.2655 L 2.70441,-32.5898 L 2.55479,-32.9356 L 2.44968,-33.2973 L 2.39075,-33.6694
 L 2.37892,-34.046 L 2.41437,-34.4211 L 2.49655,-34.7887 L 2.62416,-35.1432 L 2.79521,-35.4789 L 3.00697,-35.7905
 L 3.2561,-36.0731 L 3.53871,-36.3222 L 3.85031,-36.534 L 4.18599,-36.705 L 4.54047,-36.8327 L 4.90813,-36.9148
 L 5.2832,-36.9503 L 5.65976,-36.9385 L 6.03186,-36.8795 L 6.39363,-36.7744 L 6.7394,-36.6248 L 7.06367,-36.433
 L 7.36134,-36.2021 L 7.62775,-35.9357 L 7.85867,-35.638 L 8.05045,-35.3138 L 8.20006,-34.968 L 8.30518,-34.6062
 L 8.36411,-34.2341 L 8.37593,-33.8575 L 8.34048,-33.4825 L 8.2583,-33.1148 L 8.13069,-32.7603 L 7.95964,-32.4246
 L 7.74788,-32.1131 L 7.49875,-31.8304 L 7.21614,-31.5813 L 6.90454,-31.3695 L 6.56886,-31.1985 L 6.21439,-31.0709
 L 5.84673,-30.9887 L 5.47165,-30.9532 z
M -1.17731,18.713 L -3.5134,18.4179 L -5.79407,17.8323 L -7.98335,16.9655 L -10.0467,15.8311 L -11.9517,14.4471
 L -13.6682,12.8353 L -15.1691,11.021 L -16.4307,9.03287 L -17.4333,6.90233 L -18.1609,4.66293 L -18.6021,2.34999
 L -18.75,-0 L -18.6021,-2.34999 L -18.1609,-4.66293 L -17.4333,-6.90233 L -16.4307,-9.03287 L -15.1691,-11.021
 L -13.6682,-12.8353 L -11.9517,-14.4471 L -10.0467,-15.8311 L -7.98335,-16.9655 L -5.79407,-17.8323 L -3.5134,-18.4179
 L -1.17731,-18.713 L 1.17731,-18.713 L 3.5134,-18.4179 L 5.79407,-17.8323 L 7.98335,-16.9655 L 10.0467,-15.8311
 L 11.9517,-14.4471 L 13.6682,-12.8353 L 15.1691,-11.021 L 16.4307,-9.03287 L 17.4333,-6.90233 L 18.1609,-4.66293
 L 18.6021,-2.34999 L 18.75,-0 L 18.6021,2.34999 L 18.1609,4.66293 L 17.4333,6.90233 L 16.4307,9.03287
 L 15.1691,11.021 L 13.6682,12.8353 L 11.9517,14.4471 L 10.0467,15.8311 L 7.98335,16.9655 L 5.79407,17.8323
 L 3.5134,18.4179 L 1.17731,18.713 z
M -5.65976,36.9385 L -6.03186,36.8795 L -6.39363,36.7744 L -6.7394,36.6248 L -7.06367,36.433 L -7.36134,36.2021
 L -7.62775,35.9357 L -7.85867,35.638 L -8.05045,35.3138 L -8.20006,34.968 L -8.30518,34.6062 L -8.36411,34.2341
 L -8.37593,33.8575 L -8.34048,33.4825 L -8.2583,33.1148 L -8.13069,32.7603 L -7.95964,32.4246 L -7.74788,32.1131
 L -7.49875,31.8304 L -7.21614,31.5813 L -6.90454,31.3695 L -6.56886,31.1985 L -6.21439,31.0709 L -5.84673,30.9887
 L -5.47165,30.9532 L -5.09509,30.9651 L -4.72299,31.024 L -4.36122,31.1291 L -4.01546,31.2787 L -3.69118,31.4705
 L -3.39351,31.7014 L -3.12711,31.9678 L -2.89618,32.2655 L -2.70441,32.5898 L -2.55479,32.9356 L -2.44968,33.2973
 L -2.39075,33.6694 L -2.37892,34.046 L -2.41437,34.4211 L -2.49655,34.7887 L -2.62416,35.1432 L -2.79521,35.4789
 L -3.00697,35.7905 L -3.2561,36.0731 L -3.53871,36.3222 L -3.85031,36.534 L -4.18599,36.705 L -4.54047,36.8327
 L -4.90813,36.9148 L -5.2832,36.9503 z
" stroke="black" fill="lightgray" stroke-width="0.5"/>
</svg>
