<?xml version="1.0" standalone="no"?>
<!DOCTYPE svg PUBLIC "-//W3C//DTD SVG 1.1//EN" "http://www.w3.org/Graphics/SVG/1.1/DTD/svg11.dtd">
<svg width="91mm" height="96mm" viewBox="-41 -48 91 96" xmlns="http://www.w3.org/2000/svg" version="1.1">
<title>OpenSCAD Model</title>
<path d="
M 50,-0 L 15.4508,-47.5528 L -40.4508,-29.3893 L -40.4508,29.3893 L 15.4508,47.5528 z
M 7.24271,-30.5342 L 6.87563,-30.619 L 6.52206,-30.7491 L 6.18758,-30.9225 L 5.87747,-31.1364 L 5.59662,-31.3875
 L 5.34944,-31.6718 L 5.13986,-31.9849 L 4.97118,-32.3218 L 4.84604,-32.6771 L 4.76642,-33.0453 L 4.73358,-33.4207
 L 4.74805,-33.7971 L 4.80957,-34.1688 L 4.91722,-34.5298 L 5.06924,-34.8746 L 5.26328,-35.1975 L 5.49626,-35.4935
 L 5.76451,-35.7581 L 6.0638,-35.9869 L 6.38942,-36.1764 L 6.73621,-36.3236 L 7.09872,-36.4262 L 7.47122,-36.4825
 L 7.84785,-36.4917 L 8.22267,-36.4537 L 8.58975,-36.3689 L 8.94331,-36.2388 L 9.2778,-36.0655 L 9.58791,-35.8515
 L 9.86874,-35.6004 L 10.1159,-35.3161 L 10.3255,-35.003 L 10.4942,-34.6662 L 10.6193,-34.3108 L 10.6989,-33.9426
 L 10.7318,-33.5673 L 10.7173,-33.1908 L 10.6558,-32.8191 L 10.5482,-32.4581 L 10.3961,-32.1134 L 10.2021,-31.7904
 L 9.9691,-31.4944 L 9.70085,-31.2298 L 9.40157,-31.001 L 9.07594,-30.8115 L 8.72916,-30.6643 L 8.36665,-30.5617
 L 7.99414,-30.5054 L 7.61751,-30.4962 z
M -1.17731,18.713 L -3.5134,18.4179 L -5.79407,17.8323 L -7.98335,16.9655 L -10.0467,15.8311 L -11.9517,14.4471
 L -13.6682,12.8353 L -15.1691,11.021 L -16.4307,9.03287 L -17.4333,6.90233 L -18.1609,4.66293 L -18.6021,2.34999
 L -18.75,-0 L -18.6021,-2.34999 L -18.1609,-4.66293 L -17.4333,-6.90233 L -16.4307,-9.03287 L -15.1691,-11.021
 L -13.6682,-12.8353 L -11.9517,-14.4471 L -10.0467,-15.8311 L -7.98335,-16.9655 L -5.79407,-17.8323 L -3.5134,-18.4179
 L -1.17731,-18.713 L 1.17731,-18.713 L 3.5134,-18.4179 L 5.79407,-17.8323 L 7.98335,-16.9655 L 10.0467,-15.8311
 L 11.9517,-14.4471 L 13.6682,-12.8353 L 15.1691,-11.021 L 16.4307,-9.03287 L 17.4333,-6.90233 L 18.1609,-4.66293
 L 18.6021,-2.34999 L 18.75,-0 L 18.6021,2.34999 L 18.1609,4.66293 L 17.4333,6.90233 L 16.4307,9.03287
 L 15.1691,11.021 L 13.6682,12.8353 L 11.9517,14.4471 L 10.0467,15.8311 L 7.98335,16.9655 L 5.79407,17.8323
 L 3.5134,18.4179 L 1.17731,18.713 z
M -8.22267,36.4537 L -8.58975,36.3689 L -8.94331,36.2388 L -9.2778,36.0655 L -9.58791,35.8515 L -9.86874,35.6004
 L -10.1159,35.3161 L -10.3255,35.003 L -10.4942,34.6662 L -10.6193,34.3108 L -10.6989,33.9426 L -10.7318,33.5673
 L -10.7173,33.1908 L -10.6558,32.8191 L -10.5482,32.4581 L -10.3961,32.1134 L -10.2021,31.7904 L -9.9691,31.4944
 L -9.70085,31.2298 L -9.40157,31.001 L -9.07594,30.8115 L -8.72916,30.6643 L -8.36665,30.5617 L -7.99414,30.5054
 L -7.61751,30.4962 L -7.24271,30.5342 L -6.87563,30.619 L -6.52206,30.7491 L -6.18758,30.9225 L -5.87747,31.1364
 L -5.59662,31.3875 L -5.34944,31.6718 L -5.13986,31.9849 L -4.97118,32.3218 L -4.84604,32.6771 L -4.76642,33.0453
 L -4.73358,33.4207 L -4.74805,33.7971 L -4.80957,34.1688 L -4.91722,34.5298 L -5.06924,34.8746 L -5.26328,35.1975
 L -5.49626,35.4935 L -5.76451,35.7581 L -6.0638,35.9869 L -6.38942,36.1764 L -6.73621,36.3236 L -7.09872,36.4262
 L -7.47122,36.4825 L -7.84785,36.4917 z
" stroke="black" fill="lightgray" stroke-width="0.5"/>
</svg>
