<?xml version="1.0" standalone="no"?>
<!DOCTYPE svg PUBLIC "-//W3C//DTD SVG 1.1//EN" "http://www.w3.org/Graphics/SVG/1.1/DTD/svg11.dtd">
<svg width="73mm" height="78mm" viewBox="-33 -39 73 78" xmlns="http://www.w3.org/2000/svg" version="1.1">
<title>OpenSCAD Model</title>
<path d="
M 40,-0 L 12.3607,-38.0423 L -32.3607,-23.5114 L -32.3607,23.5114 L 12.3607,38.0423 z
M 7.93823,-26.4942 L 7.72105,-26.5279 L 7.5098,-26.5885 L 7.3078,-26.675 L 7.11826,-26.7862 L 6.94414,-26.9203
 L 6.78821,-27.0752 L 6.65291,-27.2484 L 6.54037,-27.4371 L 6.45239,-27.6385 L 6.39034,-27.8493 L 6.35519,-28.0663
 L 6.34753,-28.2859 L 6.36745,-28.5048 L 6.41463,-28.7194 L 6.48836,-28.9265 L 6.58745,-29.1226 L 6.71033,-29.3048
 L 6.8551,-29.4702 L 7.01944,-29.6161 L 7.20078,-29.7402 L 7.39624,-29.8407 L 7.60275,-29.9158 L 7.81706,-29.9645
 L 8.03577,-29.986 L 8.25545,-29.9798 L 8.47263,-29.9462 L 8.68387,-29.8857 L 8.88586,-29.7991 L 9.07541,-29.6879
 L 9.24953,-29.5538 L 9.40547,-29.3989 L 9.54077,-29.2257 L 9.65331,-29.037 L 9.74129,-28.8356 L 9.80333,-28.6248
 L 9.83849,-28.4078 L 9.84615,-28.1882 L 9.82623,-27.9693 L 9.77905,-27.7547 L 9.70531,-27.5477 L 9.60623,-27.3515
 L 9.48334,-27.1693 L 9.33858,-27.0039 L 9.17424,-26.858 L 8.9929,-26.7339 L 8.79744,-26.6334 L 8.59093,-26.5582
 L 8.37662,-26.5096 L 8.1579,-26.4881 z
M -1.17731,18.713 L -3.5134,18.4179 L -5.79407,17.8323 L -7.98335,16.9655 L -10.0467,15.8311 L -11.9517,14.4471
 L -13.6682,12.8353 L -15.1691,11.021 L -16.4307,9.03287 L -17.4333,6.90233 L -18.1609,4.66293 L -18.6021,2.34999
 L -18.75,-0 L -18.6021,-2.34999 L -18.1609,-4.66293 L -17.4333,-6.90233 L -16.4307,-9.03287 L -15.1691,-11.021
 L -13.6682,-12.8353 L -11.9517,-14.4471 L -10.0467,-15.8311 L -7.98335,-16.9655 L -5.79407,-17.8323 L -3.5134,-18.4179
 L -1.17731,-18.713 L 1.17731,-18.713 L 3.5134,-18.4179 L 5.79407,-17.8323 L 7.98335,-16.9655 L 10.0467,-15.8311
 L 11.9517,-14.4471 L 13.6682,-12.8353 L 15.1691,-11.021 L 16.4307,-9.03287 L 17.4333,-6.90233 L 18.1609,-4.66293
 L 18.6021,-2.34999 L 18.75,-0 L 18.6021,2.34999 L 18.1609,4.66293 L 17.4333,6.90233 L 16.4307,9.03287
 L 15.1691,11.021 L 13.6682,12.8353 L 11.9517,14.4471 L 10.0467,15.8311 L 7.98335,16.9655 L 5.79407,17.8323
 L 3.5134,18.4179 L 1.17731,18.713 z
M -8.25545,29.9798 L -8.47263,29.9462 L -8.68387,29.8857 L -8.88586,29.7991 L -9.07541,29.6879 L -9.24953,29.5538
 L -9.40547,29.3989 L -9.54077,29.2257 L -9.65331,29.037 L -9.74129,28.8356 L -9.80333,28.6248 L -9.83849,28.4078
 L -9.84615,28.1882 L -9.82623,27.9693 L -9.77905,27.7547 L -9.70531,27.5477 L -9.60623,27.3515 L -9.48334,27.1693
 L -9.33858,27.0039 L -9.17424,26.858 L -8.9929,26.7339 L -8.79744,26.6334 L -8.59093,26.5582 L -8.37662,26.5096
 L -8.1579,26.4881 L -7.93823,26.4942 L -7.72105,26.5279 L -7.5098,26.5885 L -7.3078,26.675 L -7.11826,26.7862
 L -6.94414,26.9203 L -6.78821,27.0752 L -6.65291,27.2484 L -6.54037,27.4371 L -6.45239,27.6385 L -6.39034,27.8493
 L -6.35519,28.0663 L -6.34753,28.2859 L -6.36745,28.5048 L -6.41463,28.7194 L -6.48836,28.9265 L -6.58745,29.1226
 L -6.71033,29.3048 L -6.8551,29.4702 L -7.01944,29.6161 L -7.20078,29.7402 L -7.39624,29.8407 L -7.60275,29.9158
 L -7.81706,29.9645 L -8.03577,29.986 z
" stroke="black" fill="lightgray" stroke-width="0.5"/>
</svg>
