<?xml version="1.0" standalone="no"?>
<!DOCTYPE svg PUBLIC "-//W3C//DTD SVG 1.1//EN" "http://www.w3.org/Graphics/SVG/1.1/DTD/svg11.dtd">
<svg width="91mm" height="96mm" viewBox="-41 -48 91 96" xmlns="http://www.w3.org/2000/svg" version="1.1">
<title>OpenSCAD Model</title>
<path d="
M 50,-0 L 15.4508,-47.5528 L -40.4508,-29.3893 L -40.4508,29.3893 L 15.4508,47.5528 z
M 4.55391,-31.0493 L 4.18083,-31.1017 L 3.81728,-31.2005 L 3.46896,-31.3441 L 3.14139,-31.5302 L 2.83972,-31.7558
 L 2.56871,-32.0175 L 2.33263,-32.3112 L 2.13522,-32.632 L 1.9796,-32.9751 L 1.86819,-33.335 L 1.80276,-33.706
 L 1.78436,-34.0823 L 1.81326,-34.458 L 1.88902,-34.827 L 2.01044,-35.1837 L 2.17558,-35.5223 L 2.38188,-35.8375
 L 2.62605,-36.1244 L 2.90425,-36.3785 L 3.21211,-36.5956 L 3.54477,-36.7725 L 3.89696,-36.9063 L 4.26312,-36.9949
 L 4.63753,-37.0369 L 5.01422,-37.0316 L 5.3873,-36.9792 L 5.75085,-36.8804 L 6.09918,-36.7368 L 6.42674,-36.5508
 L 6.72841,-36.3251 L 6.99942,-36.0634 L 7.2355,-35.7697 L 7.43291,-35.4489 L 7.58853,-35.1058 L 7.69994,-34.7459
 L 7.76537,-34.3749 L 7.78377,-33.9986 L 7.75487,-33.6229 L 7.67911,-33.2539 L 7.55771,-32.8972 L 7.39255,-32.5586
 L 7.18625,-32.2434 L 6.94208,-31.9565 L 6.66388,-31.7024 L 6.35602,-31.4853 L 6.02336,-31.3084 L 5.67119,-31.1746
 L 5.30501,-31.086 L 4.9306,-31.044 z
M -1.17731,18.713 L -3.5134,18.4179 L -5.79407,17.8323 L -7.98335,16.9655 L -10.0467,15.8311 L -11.9517,14.4471
 L -13.6682,12.8353 L -15.1691,11.021 L -16.4307,9.03287 L -17.4333,6.90233 L -18.1609,4.66293 L -18.6021,2.34999
 L -18.75,-0 L -18.6021,-2.34999 L -18.1609,-4.66293 L -17.4333,-6.90233 L -16.4307,-9.03287 L -15.1691,-11.021
 L -13.6682,-12.8353 L -11.9517,-14.4471 L -10.0467,-15.8311 L -7.98335,-16.9655 L -5.79407,-17.8323 L -3.5134,-18.4179
 L -1.17731,-18.713 L 1.17731,-18.713 L 3.5134,-18.4179 L 5.79407,-17.8323 L 7.98335,-16.9655 L 10.0467,-15.8311
 L 11.9517,-14.4471 L 13.6682,-12.8353 L 15.1691,-11.021 L 16.4307,-9.03287 L 17.4333,-6.90233 L 18.1609,-4.66293
 L 18.6021,-2.34999 L 18.75,-0 L 18.6021,2.34999 L 18.1609,4.66293 L 17.4333,6.90233 L 16.4307,9.03287
 L 15.1691,11.021 L 13.6682,12.8353 L 11.9517,14.4471 L 10.0467,15.8311 L 7.98335,16.9655 L 5.79407,17.8323
 L 3.5134,18.4179 L 1.17731,18.713 z
M -5.01422,37.0316 L -5.3873,36.9792 L -5.75085,36.8804 L -6.09918,36.7368 L -6.42674,36.5508 L -6.72841,36.3251
 L -6.99942,36.0634 L -7.2355,35.7697 L -7.43291,35.4489 L -7.58853,35.1058 L -7.69994,34.7459 L -7.76537,34.3749
 L -7.78377,33.9986 L -7.75487,33.6229 L -7.67911,33.2539 L -7.55771,32.8972 L -7.39255,32.5586 L -7.18625,32.2434
 L -6.94208,31.9565 L -6.66388,31.7024 L -6.35602,31.4853 L -6.02336,31.3084 L -5.67119,31.1746 L -5.30501,31.086
 L -4.9306,31.044 L -4.55391,31.0493 L -4.18083,31.1017 L -3.81728,31.2005 L -3.46896,31.3441 L -3.14139,31.5302
 L -2.83972,31.7558 L -2.56871,32.0175 L -2.33263,32.3112 L -2.13522,32.632 L -1.9796,32.9751 L -1.86819,33.335
 L -1.80276,33.706 L -1.78436,34.0823 L -1.81326,34.458 L -1.88902,34.827 L -2.01044,35.1837 L -2.17558,35.5223
 L -2.38188,35.8375 L -2.62605,36.1244 L -2.90425,36.3785 L -3.21211,36.5956 L -3.54477,36.7725 L -3.89696,36.9063
 L -4.26312,36.9949 L -4.63753,37.0369 z
" stroke="black" fill="lightgray" stroke-width="0.5"/>
</svg>
