<?xml version="1.0" standalone="no"?>
<!DOCTYPE svg PUBLIC "-//W3C//DTD SVG 1.1//EN" "http://www.w3.org/Graphics/SVG/1.1/DTD/svg11.dtd">
<svg width="73mm" height="78mm" viewBox="-33 -39 73 78" xmlns="http://www.w3.org/2000/svg" version="1.1">
<title>OpenSCAD Model</title>
<path d="
M 40,-0 L 12.3607,-38.0423 L -32.3607,-23.5114 L -32.3607,23.5114 L 12.3607,38.0423 z
M 1.81764,-27.5688 L 1.60207,-27.6115 L 1.39354,-27.6809 L 1.19534,-27.7758 L 1.01062,-27.8949 L 0.84227,-28.0361
 L 0.692947,-28.1974 L 0.565018,-28.3761 L 0.460495,-28.5694 L 0.381012,-28.7743 L 0.32785,-28.9875 L 0.301834,-29.2057
 L 0.303345,-29.4255 L 0.332428,-29.6433 L 0.388565,-29.8558 L 0.470886,-30.0596 L 0.57811,-30.2514 L 0.708511,-30.4283
 L 0.860077,-30.5875 L 1.03038,-30.7263 L 1.21677,-30.8428 L 1.41626,-30.935 L 1.62573,-31.0014 L 1.84189,-31.0411
 L 2.06131,-31.0534 L 2.28053,-31.0381 L 2.49611,-30.9954 L 2.70464,-30.926 L 2.90283,-30.831 L 3.08755,-30.712
 L 3.25591,-30.5707 L 3.40523,-30.4095 L 3.53316,-30.2308 L 3.63768,-30.0375 L 3.71716,-29.8326 L 3.77032,-29.6193
 L 3.79636,-29.4011 L 3.79483,-29.1814 L 3.76575,-28.9635 L 3.70961,-28.7511 L 3.62729,-28.5473 L 3.52007,-28.3554
 L 3.38966,-28.1786 L 3.2381,-28.0194 L 3.06779,-27.8805 L 2.88142,-27.764 L 2.68192,-27.6719 L 2.47244,-27.6054
 L 2.25629,-27.5657 L 2.03687,-27.5535 z
M -1.17731,18.713 L -3.5134,18.4179 L -5.79407,17.8323 L -7.98335,16.9655 L -10.0467,15.8311 L -11.9517,14.4471
 L -13.6682,12.8353 L -15.1691,11.021 L -16.4307,9.03287 L -17.4333,6.90233 L -18.1609,4.66293 L -18.6021,2.34999
 L -18.75,-0 L -18.6021,-2.34999 L -18.1609,-4.66293 L -17.4333,-6.90233 L -16.4307,-9.03287 L -15.1691,-11.021
 L -13.6682,-12.8353 L -11.9517,-14.4471 L -10.0467,-15.8311 L -7.98335,-16.9655 L -5.79407,-17.8323 L -3.5134,-18.4179
 L -1.17731,-18.713 L 1.17731,-18.713 L 3.5134,-18.4179 L 5.79407,-17.8323 L 7.98335,-16.9655 L 10.0467,-15.8311
 L 11.9517,-14.4471 L 13.6682,-12.8353 L 15.1691,-11.021 L 16.4307,-9.03287 L 17.4333,-6.90233 L 18.1609,-4.66293
 L 18.6021,-2.34999 L 18.75,-0 L 18.6021,2.34999 L 18.1609,4.66293 L 17.4333,6.90233 L 16.4307,9.03287
 L 15.1691,11.021 L 13.6682,12.8353 L 11.9517,14.4471 L 10.0467,15.8311 L 7.98335,16.9655 L 5.79407,17.8323
 L 3.5134,18.4179 L 1.17731,18.713 z
M -2.28053,31.0381 L -2.49611,30.9954 L -2.70464,30.926 L -2.90283,30.831 L -3.08755,30.712 L -3.25591,30.5707
 L -3.40523,30.4095 L -3.53316,30.2308 L -3.63768,30.0375 L -3.71716,29.8326 L -3.77032,29.6193 L -3.79636,29.4011
 L -3.79483,29.1814 L -3.76575,28.9635 L -3.70961,28.7511 L -3.62729,28.5473 L -3.52007,28.3554 L -3.38966,28.1786
 L -3.2381,28.0194 L -3.06779,27.8805 L -2.88142,27.764 L -2.68192,27.6719 L -2.47244,27.6054 L -2.25629,27.5657
 L -2.03687,27.5535 L -1.81764,27.5688 L -1.60207,27.6115 L -1.39354,27.6809 L -1.19534,27.7758 L -1.01062,27.8949
 L -0.84227,28.0361 L -0.692947,28.1974 L -0.565018,28.3761 L -0.460495,28.5694 L -0.381012,28.7743 L -0.32785,28.9875
 L -0.301834,29.2057 L -0.303345,29.4255 L -0.332428,29.6433 L -0.388565,29.8558 L -0.470886,30.0596 L -0.57811,30.2514
 L -0.708511,30.4283 L -0.860077,30.5875 L -1.03038,30.7263 L -1.21677,30.8428 L -1.41626,30.935 L -1.62573,31.0014
 L -1.84189,31.0411 L -2.06131,31.0534 z
" stroke="black" fill="lightgray" stroke-width="0.5"/>
</svg>
