<?xml version="1.0" standalone="no"?>
<!DOCTYPE svg PUBLIC "-//W3C//DTD SVG 1.1//EN" "http://www.w3.org/Graphics/SVG/1.1/DTD/svg11.dtd">
<svg width="73mm" height="78mm" viewBox="-33 -39 73 78" xmlns="http://www.w3.org/2000/svg" version="1.1">
<title>OpenSCAD Model</title>
<path d="
M 40,-0 L 12.3607,-38.0423 L -32.3607,-23.5114 L -32.3607,23.5114 L 12.3607,38.0423 z
M 5.85175,-27.0018 L 5.6368,-27.0475 L 5.42924,-27.1198 L 5.23241,-27.2175 L 5.04936,-27.3391 L 4.883,-27.4827
 L 4.73595,-27.6461 L 4.61052,-27.8265 L 4.5087,-28.0213 L 4.4321,-28.2273 L 4.38191,-28.4412 L 4.35895,-28.6598
 L 4.36354,-28.8795 L 4.39565,-29.0969 L 4.45474,-29.3086 L 4.53992,-29.5112 L 4.64978,-29.7015 L 4.78267,-29.8766
 L 4.93643,-30.0336 L 5.10866,-30.1701 L 5.29665,-30.2839 L 5.49741,-30.3733 L 5.70779,-30.4368 L 5.92448,-30.4735
 L 6.14406,-30.4827 L 6.36305,-30.4643 L 6.578,-30.4186 L 6.78554,-30.3463 L 6.98239,-30.2486 L 7.16544,-30.127
 L 7.3318,-29.9834 L 7.47885,-29.8201 L 7.60426,-29.6396 L 7.70609,-29.4449 L 7.7827,-29.2389 L 7.83289,-29.0249
 L 7.85585,-28.8064 L 7.85126,-28.5866 L 7.81915,-28.3692 L 7.76004,-28.1575 L 7.67488,-27.955 L 7.565,-27.7646
 L 7.43213,-27.5896 L 7.27837,-27.4326 L 7.10612,-27.2961 L 6.91815,-27.1822 L 6.71738,-27.0928 L 6.507,-27.0293
 L 6.29031,-26.9927 L 6.07074,-26.9835 z
M -1.17731,18.713 L -3.5134,18.4179 L -5.79407,17.8323 L -7.98335,16.9655 L -10.0467,15.8311 L -11.9517,14.4471
 L -13.6682,12.8353 L -15.1691,11.021 L -16.4307,9.03287 L -17.4333,6.90233 L -18.1609,4.66293 L -18.6021,2.34999
 L -18.75,-0 L -18.6021,-2.34999 L -18.1609,-4.66293 L -17.4333,-6.90233 L -16.4307,-9.03287 L -15.1691,-11.021
 L -13.6682,-12.8353 L -11.9517,-14.4471 L -10.0467,-15.8311 L -7.98335,-16.9655 L -5.79407,-17.8323 L -3.5134,-18.4179
 L -1.17731,-18.713 L 1.17731,-18.713 L 3.5134,-18.4179 L 5.79407,-17.8323 L 7.98335,-16.9655 L 10.0467,-15.8311
 L 11.9517,-14.4471 L 13.6682,-12.8353 L 15.1691,-11.021 L 16.4307,-9.03287 L 17.4333,-6.90233 L 18.1609,-4.66293
 L 18.6021,-2.34999 L 18.75,-0 L 18.6021,2.34999 L 18.1609,4.66293 L 17.4333,6.90233 L 16.4307,9.03287
 L 15.1691,11.021 L 13.6682,12.8353 L 11.9517,14.4471 L 10.0467,15.8311 L 7.98335,16.9655 L 5.79407,17.8323
 L 3.5134,18.4179 L 1.17731,18.713 z
M -6.36305,30.4643 L -6.578,30.4186 L -6.78554,30.3463 L -6.98239,30.2486 L -7.16544,30.127 L -7.3318,29.9834
 L -7.47885,29.8201 L -7.60426,29.6396 L -7.70609,29.4449 L -7.7827,29.2389 L -7.83289,29.0249 L -7.85585,28.8064
 L -7.85126,28.5866 L -7.81915,28.3692 L -7.76004,28.1575 L -7.67488,27.955 L -7.565,27.7646 L -7.43213,27.5896
 L -7.27837,27.4326 L -7.10612,27.2961 L -6.91815,27.1822 L -6.71738,27.0928 L -6.507,27.0293 L -6.29031,26.9927
 L -6.07074,26.9835 L -5.85175,27.0018 L -5.6368,27.0475 L -5.42924,27.1198 L -5.23241,27.2175 L -5.04936,27.3391
 L -4.883,27.4827 L -4.73595,27.6461 L -4.61052,27.8265 L -4.5087,28.0213 L -4.4321,28.2273 L -4.38191,28.4412
 L -4.35895,28.6598 L -4.36354,28.8795 L -4.39565,29.0969 L -4.45474,29.3086 L -4.53992,29.5112 L -4.64978,29.7015
 L -4.78267,29.8766 L -4.93643,30.0336 L -5.10866,30.1701 L -5.29665,30.2839 L -5.49741,30.3733 L -5.70779,30.4368
 L -5.92448,30.4735 L -6.14406,30.4827 z
" stroke="black" fill="lightgray" stroke-width="0.5"/>
</svg>
