<?xml version="1.0" standalone="no"?>
<!DOCTYPE svg PUBLIC "-//W3C//DTD SVG 1.1//EN" "http://www.w3.org/Graphics/SVG/1.1/DTD/svg11.dtd">
<svg width="91mm" height="96mm" viewBox="-41 -48 91 96" xmlns="http://www.w3.org/2000/svg" version="1.1">
<title>OpenSCAD Model</title>
<path d="
M 50,-0 L 15.4508,-47.5528 L -40.4508,-29.3893 L -40.4508,29.3893 L 15.4508,47.5528 z
M 5.63474,-30.8714 L 5.26372,-30.9369 L 4.90384,-31.0483 L 4.56073,-31.2039 L 4.23985,-31.4013 L 3.94626,-31.6374
 L 3.68454,-31.9084 L 3.45886,-32.2101 L 3.27277,-32.5376 L 3.12921,-32.886 L 3.03043,-33.2495 L 2.978,-33.6226
 L 2.97273,-33.9993 L 3.01472,-34.3737 L 3.10332,-34.7399 L 3.23711,-35.0921 L 3.41397,-35.4247 L 3.63115,-35.7326
 L 3.88518,-36.0108 L 4.17207,-36.2549 L 4.48734,-36.4612 L 4.82594,-36.6264 L 5.18259,-36.7478 L 5.55164,-36.8236
 L 5.92728,-36.8525 L 6.30356,-36.8341 L 6.67458,-36.7686 L 7.03445,-36.6572 L 7.37756,-36.5016 L 7.69844,-36.3042
 L 7.99203,-36.0681 L 8.25375,-35.7971 L 8.47945,-35.4954 L 8.66553,-35.1679 L 8.80908,-34.8195 L 8.90787,-34.456
 L 8.9603,-34.0829 L 8.96556,-33.7062 L 8.92357,-33.3318 L 8.83498,-32.9656 L 8.7012,-32.6134 L 8.52432,-32.2808
 L 8.30714,-31.9729 L 8.05312,-31.6947 L 7.76622,-31.4506 L 7.45096,-31.2443 L 7.11235,-31.0791 L 6.75571,-30.9577
 L 6.38666,-30.8819 L 6.01102,-30.853 z
M -1.17731,18.713 L -3.5134,18.4179 L -5.79407,17.8323 L -7.98335,16.9655 L -10.0467,15.8311 L -11.9517,14.4471
 L -13.6682,12.8353 L -15.1691,11.021 L -16.4307,9.03287 L -17.4333,6.90233 L -18.1609,4.66293 L -18.6021,2.34999
 L -18.75,-0 L -18.6021,-2.34999 L -18.1609,-4.66293 L -17.4333,-6.90233 L -16.4307,-9.03287 L -15.1691,-11.021
 L -13.6682,-12.8353 L -11.9517,-14.4471 L -10.0467,-15.8311 L -7.98335,-16.9655 L -5.79407,-17.8323 L -3.5134,-18.4179
 L -1.17731,-18.713 L 1.17731,-18.713 L 3.5134,-18.4179 L 5.79407,-17.8323 L 7.98335,-16.9655 L 10.0467,-15.8311
 L 11.9517,-14.4471 L 13.6682,-12.8353 L 15.1691,-11.021 L 16.4307,-9.03287 L 17.4333,-6.90233 L 18.1609,-4.66293
 L 18.6021,-2.34999 L 18.75,-0 L 18.6021,2.34999 L 18.1609,4.66293 L 17.4333,6.90233 L 16.4307,9.03287
 L 15.1691,11.021 L 13.6682,12.8353 L 11.9517,14.4471 L 10.0467,15.8311 L 7.98335,16.9655 L 5.79407,17.8323
 L 3.5134,18.4179 L 1.17731,18.713 z
M -6.30356,36.8341 L -6.67458,36.7686 L -7.03445,36.6572 L -7.37756,36.5016 L -7.69844,36.3042 L -7.99203,36.0681
 L -8.25375,35.7971 L -8.47945,35.4954 L -8.66553,35.1679 L -8.80908,34.8195 L -8.90787,34.456 L -8.9603,34.0829
 L -8.96556,33.7062 L -8.92357,33.3318 L -8.83498,32.9656 L -8.7012,32.6134 L -8.52432,32.2808 L -8.30714,31.9729
 L -8.05312,31.6947 L -7.76622,31.4506 L -7.45096,31.2443 L -7.11235,31.0791 L -6.75571,30.9577 L -6.38666,30.8819
 L -6.01102,30.853 L -5.63474,30.8714 L -5.26372,30.9369 L -4.90384,31.0483 L -4.56073,31.2039 L -4.23985,31.4013
 L -3.94626,31.6374 L -3.68454,31.9084 L -3.45886,32.2101 L -3.27277,32.5376 L -3.12921,32.886 L -3.03043,33.2495
 L -2.978,33.6226 L -2.97273,33.9993 L -3.01472,34.3737 L -3.10332,34.7399 L -3.23711,35.0921 L -3.41397,35.4247
 L -3.63115,35.7326 L -3.88518,36.0108 L -4.17207,36.2549 L -4.48734,36.4612 L -4.82594,36.6264 L -5.18259,36.7478
 L -5.55164,36.8236 L -5.92728,36.8525 z
" stroke="black" fill="lightgray" stroke-width="0.5"/>
</svg>
