<?xml version="1.0" standalone="no"?>
<!DOCTYPE svg PUBLIC "-//W3C//DTD SVG 1.1//EN" "http://www.w3.org/Graphics/SVG/1.1/DTD/svg11.dtd">
<svg width="73mm" height="78mm" viewBox="-33 -39 73 78" xmlns="http://www.w3.org/2000/svg" version="1.1">
<title>OpenSCAD Model</title>
<path d="
M 40,-0 L 12.3607,-38.0423 L -32.3607,-23.5114 L -32.3607,23.5114 L 12.3607,38.0423 z
M 7.47462,-26.6288 L 7.2569,-26.6586 L 7.04463,-26.7155 L 6.84116,-26.7985 L 6.64969,-26.9064 L 6.47327,-27.0374
 L 6.31464,-27.1895 L 6.17635,-27.3603 L 6.06053,-27.5471 L 5.96904,-27.7469 L 5.90332,-27.9566 L 5.8644,-28.1729
 L 5.85291,-28.3924 L 5.869,-28.6116 L 5.91243,-28.827 L 5.98254,-29.0353 L 6.07819,-29.2331 L 6.19788,-29.4174
 L 6.33974,-29.5853 L 6.5015,-29.7341 L 6.68065,-29.8614 L 6.87431,-29.9652 L 7.0795,-30.044 L 7.29291,-30.0964
 L 7.51122,-30.1217 L 7.73097,-30.1194 L 7.9487,-30.0895 L 8.16098,-30.0327 L 8.36444,-29.9496 L 8.55591,-29.8417
 L 8.73235,-29.7107 L 8.89096,-29.5586 L 9.02927,-29.3878 L 9.14507,-29.201 L 9.23656,-29.0012 L 9.30228,-28.7915
 L 9.3412,-28.5752 L 9.35269,-28.3557 L 9.33659,-28.1366 L 9.29317,-27.9211 L 9.22307,-27.7128 L 9.12741,-27.515
 L 9.00772,-27.3307 L 8.86586,-27.1628 L 8.7041,-27.0141 L 8.52496,-26.8867 L 8.33128,-26.7829 L 8.12611,-26.7041
 L 7.91269,-26.6517 L 7.69438,-26.6265 z
M -1.17731,18.713 L -3.5134,18.4179 L -5.79407,17.8323 L -7.98335,16.9655 L -10.0467,15.8311 L -11.9517,14.4471
 L -13.6682,12.8353 L -15.1691,11.021 L -16.4307,9.03287 L -17.4333,6.90233 L -18.1609,4.66293 L -18.6021,2.34999
 L -18.75,-0 L -18.6021,-2.34999 L -18.1609,-4.66293 L -17.4333,-6.90233 L -16.4307,-9.03287 L -15.1691,-11.021
 L -13.6682,-12.8353 L -11.9517,-14.4471 L -10.0467,-15.8311 L -7.98335,-16.9655 L -5.79407,-17.8323 L -3.5134,-18.4179
 L -1.17731,-18.713 L 1.17731,-18.713 L 3.5134,-18.4179 L 5.79407,-17.8323 L 7.98335,-16.9655 L 10.0467,-15.8311
 L 11.9517,-14.4471 L 13.6682,-12.8353 L 15.1691,-11.021 L 16.4307,-9.03287 L 17.4333,-6.90233 L 18.1609,-4.66293
 L 18.6021,-2.34999 L 18.75,-0 L 18.6021,2.34999 L 18.1609,4.66293 L 17.4333,6.90233 L 16.4307,9.03287
 L 15.1691,11.021 L 13.6682,12.8353 L 11.9517,14.4471 L 10.0467,15.8311 L 7.98335,16.9655 L 5.79407,17.8323
 L 3.5134,18.4179 L 1.17731,18.713 z
M -7.73097,30.1194 L -7.9487,30.0895 L -8.16098,30.0327 L -8.36444,29.9496 L -8.55591,29.8417 L -8.73235,29.7107
 L -8.89096,29.5586 L -9.02927,29.3878 L -9.14507,29.201 L -9.23656,29.0012 L -9.30228,28.7915 L -9.3412,28.5752
 L -9.35269,28.3557 L -9.33659,28.1366 L -9.29317,27.9211 L -9.22307,27.7128 L -9.12741,27.515 L -9.00772,27.3307
 L -8.86586,27.1628 L -8.7041,27.0141 L -8.52496,26.8867 L -8.33128,26.7829 L -8.12611,26.7041 L -7.91269,26.6517
 L -7.69438,26.6265 L -7.47462,26.6288 L -7.2569,26.6586 L -7.04463,26.7155 L -6.84116,26.7985 L -6.64969,26.9064
 L -6.47327,27.0374 L -6.31464,27.1895 L -6.17635,27.3603 L -6.06053,27.5471 L -5.96904,27.7469 L -5.90332,27.9566
 L -5.8644,28.1729 L -5.85291,28.3924 L -5.869,28.6116 L -5.91243,28.827 L -5.98254,29.0353 L -6.07819,29.2331
 L -6.19788,29.4174 L -6.33974,29.5853 L -6.5015,29.7341 L -6.68065,29.8614 L -6.87431,29.9652 L -7.0795,30.044
 L -7.29291,30.0964 L -7.51122,30.1217 z
" stroke="black" fill="lightgray" stroke-width="0.5"/>
</svg>
