<?xml version="1.0" standalone="no"?>
<!DOCTYPE svg PUBLIC "-//W3C//DTD SVG 1.1//EN" "http://www.w3.org/Graphics/SVG/1.1/DTD/svg11.dtd">
<svg width="91mm" height="96mm" viewBox="-41 -48 91 96" xmlns="http://www.w3.org/2000/svg" version="1.1">
<title>OpenSCAD Model</title>
<path d="
M 50,-0 L 15.4508,-47.5528 L -40.4508,-29.3893 L -40.4508,29.3893 L 15.4508,47.5528 z
M 7.77449,-30.4032 L 7.40895,-30.4943 L 7.05771,-30.6306 L 6.7263,-30.8098 L 6.41998,-31.0291 L 6.14355,-31.285
 L 5.90138,-31.5736 L 5.6973,-31.8903 L 5.5345,-32.2301 L 5.4156,-32.5876 L 5.34242,-32.9571 L 5.31613,-33.333
 L 5.33717,-33.7091 L 5.40517,-34.0797 L 5.51909,-34.4388 L 5.67711,-34.7808 L 5.87675,-35.1003 L 6.11488,-35.3922
 L 6.3877,-35.652 L 6.69093,-35.8756 L 7.01981,-36.0594 L 7.36913,-36.2005 L 7.73337,-36.2968 L 8.1068,-36.3466
 L 8.48354,-36.3492 L 8.85762,-36.3046 L 9.22316,-36.2135 L 9.5744,-36.0772 L 9.90581,-35.898 L 10.2121,-35.6787
 L 10.4886,-35.4228 L 10.7307,-35.1342 L 10.9348,-34.8175 L 11.0976,-34.4777 L 11.2165,-34.1202 L 11.2897,-33.7507
 L 11.316,-33.3748 L 11.2949,-32.9987 L 11.2269,-32.6281 L 11.113,-32.269 L 10.955,-31.927 L 10.7554,-31.6075
 L 10.5172,-31.3156 L 10.2444,-31.0558 L 9.94118,-30.8322 L 9.6123,-30.6484 L 9.26299,-30.5073 L 8.89874,-30.411
 L 8.52531,-30.3612 L 8.14857,-30.3586 z
M -1.17731,18.713 L -3.5134,18.4179 L -5.79407,17.8323 L -7.98335,16.9655 L -10.0467,15.8311 L -11.9517,14.4471
 L -13.6682,12.8353 L -15.1691,11.021 L -16.4307,9.03287 L -17.4333,6.90233 L -18.1609,4.66293 L -18.6021,2.34999
 L -18.75,-0 L -18.6021,-2.34999 L -18.1609,-4.66293 L -17.4333,-6.90233 L -16.4307,-9.03287 L -15.1691,-11.021
 L -13.6682,-12.8353 L -11.9517,-14.4471 L -10.0467,-15.8311 L -7.98335,-16.9655 L -5.79407,-17.8323 L -3.5134,-18.4179
 L -1.17731,-18.713 L 1.17731,-18.713 L 3.5134,-18.4179 L 5.79407,-17.8323 L 7.98335,-16.9655 L 10.0467,-15.8311
 L 11.9517,-14.4471 L 13.6682,-12.8353 L 15.1691,-11.021 L 16.4307,-9.03287 L 17.4333,-6.90233 L 18.1609,-4.66293
 L 18.6021,-2.34999 L 18.75,-0 L 18.6021,2.34999 L 18.1609,4.66293 L 17.4333,6.90233 L 16.4307,9.03287
 L 15.1691,11.021 L 13.6682,12.8353 L 11.9517,14.4471 L 10.0467,15.8311 L 7.98335,16.9655 L 5.79407,17.8323
 L 3.5134,18.4179 L 1.17731,18.713 z
M -8.85762,36.3046 L -9.22316,36.2135 L -9.5744,36.0772 L -9.90581,35.898 L -10.2121,35.6787 L -10.4886,35.4228
 L -10.7307,35.1342 L -10.9348,34.8175 L -11.0976,34.4777 L -11.2165,34.1202 L -11.2897,33.7507 L -11.316,33.3748
 L -11.2949,32.9987 L -11.2269,32.6281 L -11.113,32.269 L -10.955,31.927 L -10.7554,31.6075 L -10.5172,31.3156
 L -10.2444,31.0558 L -9.94118,30.8322 L -9.6123,30.6484 L -9.26299,30.5073 L -8.89874,30.411 L -8.52531,30.3612
 L -8.14857,30.3586 L -7.77449,30.4032 L -7.40895,30.4943 L -7.05771,30.6306 L -6.7263,30.8098 L -6.41998,31.0291
 L -6.14355,31.285 L -5.90138,31.5736 L -5.6973,31.8903 L -5.5345,32.2301 L -5.4156,32.5876 L -5.34242,32.9571
 L -5.31613,33.333 L -5.33717,33.7091 L -5.40517,34.0797 L -5.51909,34.4388 L -5.67711,34.7808 L -5.87675,35.1003
 L -6.11488,35.3922 L -6.3877,35.652 L -6.69093,35.8756 L -7.01981,36.0594 L -7.36913,36.2005 L -7.73337,36.2968
 L -8.1068,36.3466 L -8.48354,36.3492 z
" stroke="black" fill="lightgray" stroke-width="0.5"/>
</svg>
