<?xml version="1.0" standalone="no"?>
<!DOCTYPE svg PUBLIC "-//W3C//DTD SVG 1.1//EN" "http://www.w3.org/Graphics/SVG/1.1/DTD/svg11.dtd">
<svg width="73mm" height="78mm" viewBox="-33 -39 73 78" xmlns="http://www.w3.org/2000/svg" version="1.1">
<title>OpenSCAD Model</title>
<path d="
M 40,-0 L 12.3607,-38.0423 L -32.3607,-23.5114 L -32.3607,23.5114 L 12.3607,38.0423 z
M 4.90584,-27.1896 L 4.68941,-27.2278 L 4.47948,-27.2928 L 4.27934,-27.3836 L 4.09216,-27.4987 L 3.92088,-27.6364
 L 3.76823,-27.7945 L 3.63658,-27.9705 L 3.52803,-28.1616 L 3.44429,-28.3647 L 3.38666,-28.5768 L 3.35608,-28.7944
 L 3.35301,-29.0142 L 3.37749,-29.2326 L 3.42918,-29.4462 L 3.50722,-29.6516 L 3.61038,-29.8457 L 3.73708,-30.0253
 L 3.88525,-30.1875 L 4.05263,-30.33 L 4.23653,-30.4503 L 4.43405,-30.5467 L 4.64209,-30.6175 L 4.85736,-30.6617
 L 5.07648,-30.6785 L 5.29597,-30.6678 L 5.51241,-30.6296 L 5.72234,-30.5647 L 5.92247,-30.4739 L 6.10965,-30.3587
 L 6.28093,-30.221 L 6.43358,-30.0629 L 6.56523,-29.8869 L 6.67378,-29.6959 L 6.75752,-29.4927 L 6.81516,-29.2806
 L 6.84573,-29.063 L 6.8488,-28.8432 L 6.82433,-28.6248 L 6.77263,-28.4112 L 6.6946,-28.2058 L 6.59143,-28.0117
 L 6.46474,-27.8322 L 6.31656,-27.6699 L 6.14919,-27.5274 L 5.96529,-27.4071 L 5.76776,-27.3108 L 5.55972,-27.2399
 L 5.34445,-27.1958 L 5.12534,-27.1789 z
M -1.17731,18.713 L -3.5134,18.4179 L -5.79407,17.8323 L -7.98335,16.9655 L -10.0467,15.8311 L -11.9517,14.4471
 L -13.6682,12.8353 L -15.1691,11.021 L -16.4307,9.03287 L -17.4333,6.90233 L -18.1609,4.66293 L -18.6021,2.34999
 L -18.75,-0 L -18.6021,-2.34999 L -18.1609,-4.66293 L -17.4333,-6.90233 L -16.4307,-9.03287 L -15.1691,-11.021
 L -13.6682,-12.8353 L -11.9517,-14.4471 L -10.0467,-15.8311 L -7.98335,-16.9655 L -5.79407,-17.8323 L -3.5134,-18.4179
 L -1.17731,-18.713 L 1.17731,-18.713 L 3.5134,-18.4179 L 5.79407,-17.8323 L 7.98335,-16.9655 L 10.0467,-15.8311
 L 11.9517,-14.4471 L 13.6682,-12.8353 L 15.1691,-11.021 L 16.4307,-9.03287 L 17.4333,-6.90233 L 18.1609,-4.66293
 L 18.6021,-2.34999 L 18.75,-0 L 18.6021,2.34999 L 18.1609,4.66293 L 17.4333,6.90233 L 16.4307,9.03287
 L 15.1691,11.021 L 13.6682,12.8353 L 11.9517,14.4471 L 10.0467,15.8311 L 7.98335,16.9655 L 5.79407,17.8323
 L 3.5134,18.4179 L 1.17731,18.713 z
M -5.29597,30.6678 L -5.51241,30.6296 L -5.72234,30.5647 L -5.92247,30.4739 L -6.10965,30.3587 L -6.28093,30.221
 L -6.43358,30.0629 L -6.56523,29.8869 L -6.67378,29.6959 L -6.75752,29.4927 L -6.81516,29.2806 L -6.84573,29.063
 L -6.8488,28.8432 L -6.82433,28.6248 L -6.77263,28.4112 L -6.6946,28.2058 L -6.59143,28.0117 L -6.46474,27.8322
 L -6.31656,27.6699 L -6.14919,27.5274 L -5.96529,27.4071 L -5.76776,27.3108 L -5.55972,27.2399 L -5.34445,27.1958
 L -5.12534,27.1789 L -4.90584,27.1896 L -4.68941,27.2278 L -4.47948,27.2928 L -4.27934,27.3836 L -4.09216,27.4987
 L -3.92088,27.6364 L -3.76823,27.7945 L -3.63658,27.9705 L -3.52803,28.1616 L -3.44429,28.3647 L -3.38666,28.5768
 L -3.35608,28.7944 L -3.35301,29.0142 L -3.37749,29.2326 L -3.42918,29.4462 L -3.50722,29.6516 L -3.61038,29.8457
 L -3.73708,30.0253 L -3.88525,30.1875 L -4.05263,30.33 L -4.23653,30.4503 L -4.43405,30.5467 L -4.64209,30.6175
 L -4.85736,30.6617 L -5.07648,30.6785 z
" stroke="black" fill="lightgray" stroke-width="0.5"/>
</svg>
