<?xml version="1.0" standalone="no"?>
<!DOCTYPE svg PUBLIC "-//W3C//DTD SVG 1.1//EN" "http://www.w3.org/Graphics/SVG/1.1/DTD/svg11.dtd">
<svg width="73mm" height="78mm" viewBox="-33 -39 73 78" xmlns="http://www.w3.org/2000/svg" version="1.1">
<title>OpenSCAD Model</title>
<path d="
M 40,-0 L 12.3607,-38.0423 L -32.3607,-23.5114 L -32.3607,23.5114 L 12.3607,38.0423 z
M 0.854401,-27.6154 L 0.637466,-27.6506 L 0.426636,-27.7126 L 0.22525,-27.8006 L 0.0364838,-27.9131 L -0.136673,-28.0484
 L -0.291534,-28.2044 L -0.425629,-28.3785 L -0.536835,-28.5681 L -0.623413,-28.7701 L -0.68399,-28.9813 L -0.717606,-29.1985
 L -0.723755,-29.4182 L -0.702301,-29.6369 L -0.65361,-29.8512 L -0.578445,-30.0577 L -0.477982,-30.2532 L -0.353836,-30.4345
 L -0.207916,-30.5988 L -0.0425568,-30.7436 L 0.139618,-30.8665 L 0.335785,-30.9656 L 0.542801,-31.0393 L 0.757446,-31.0865
 L 0.976303,-31.1064 L 1.19592,-31.0987 L 1.41287,-31.0636 L 1.62369,-31.0015 L 1.82507,-30.9136 L 2.01384,-30.801
 L 2.18703,-30.6657 L 2.34187,-30.5098 L 2.47597,-30.3357 L 2.58717,-30.1461 L 2.67377,-29.9441 L 2.73433,-29.7329
 L 2.76796,-29.5157 L 2.77409,-29.296 L 2.75264,-29.0773 L 2.70395,-28.863 L 2.6288,-28.6565 L 2.52834,-28.461
 L 2.40417,-28.2797 L 2.25826,-28.1153 L 2.09291,-27.9706 L 1.91071,-27.8477 L 1.71455,-27.7486 L 1.50752,-27.6749
 L 1.29288,-27.6277 L 1.07402,-27.6078 z
M -1.17731,18.713 L -3.5134,18.4179 L -5.79407,17.8323 L -7.98335,16.9655 L -10.0467,15.8311 L -11.9517,14.4471
 L -13.6682,12.8353 L -15.1691,11.021 L -16.4307,9.03287 L -17.4333,6.90233 L -18.1609,4.66293 L -18.6021,2.34999
 L -18.75,-0 L -18.6021,-2.34999 L -18.1609,-4.66293 L -17.4333,-6.90233 L -16.4307,-9.03287 L -15.1691,-11.021
 L -13.6682,-12.8353 L -11.9517,-14.4471 L -10.0467,-15.8311 L -7.98335,-16.9655 L -5.79407,-17.8323 L -3.5134,-18.4179
 L -1.17731,-18.713 L 1.17731,-18.713 L 3.5134,-18.4179 L 5.79407,-17.8323 L 7.98335,-16.9655 L 10.0467,-15.8311
 L 11.9517,-14.4471 L 13.6682,-12.8353 L 15.1691,-11.021 L 16.4307,-9.03287 L 17.4333,-6.90233 L 18.1609,-4.66293
 L 18.6021,-2.34999 L 18.75,-0 L 18.6021,2.34999 L 18.1609,4.66293 L 17.4333,6.90233 L 16.4307,9.03287
 L 15.1691,11.021 L 13.6682,12.8353 L 11.9517,14.4471 L 10.0467,15.8311 L 7.98335,16.9655 L 5.79407,17.8323
 L 3.5134,18.4179 L 1.17731,18.713 z
M -1.19592,31.0987 L -1.41287,31.0636 L -1.62369,31.0015 L -1.82507,30.9136 L -2.01384,30.801 L -2.18703,30.6657
 L -2.34187,30.5098 L -2.47597,30.3357 L -2.58717,30.1461 L -2.67377,29.9441 L -2.73433,29.7329 L -2.76796,29.5157
 L -2.77409,29.296 L -2.75264,29.0773 L -2.70395,28.863 L -2.6288,28.6565 L -2.52834,28.461 L -2.40417,28.2797
 L -2.25826,28.1153 L -2.09291,27.9706 L -1.91071,27.8477 L -1.71455,27.7486 L -1.50752,27.6749 L -1.29288,27.6277
 L -1.07402,27.6078 L -0.854401,27.6154 L -0.637466,27.6506 L -0.426636,27.7126 L -0.22525,27.8006 L -0.0364838,27.9131
 L 0.136673,28.0484 L 0.291534,28.2044 L 0.425629,28.3785 L 0.536835,28.5681 L 0.623413,28.7701 L 0.68399,28.9813
 L 0.717606,29.1985 L 0.723755,29.4182 L 0.702301,29.6369 L 0.65361,29.8512 L 0.578445,30.0577 L 0.477982,30.2532
 L 0.353836,30.4345 L 0.207916,30.5988 L 0.0425568,30.7436 L -0.139618,30.8665 L -0.335785,30.9656 L -0.542801,31.0393
 L -0.757446,31.0865 L -0.976303,31.1064 z
" stroke="black" fill="lightgray" stroke-width="0.5"/>
</svg>
