<?xml version="1.0" standalone="no"?>
<!DOCTYPE svg PUBLIC "-//W3C//DTD SVG 1.1//EN" "http://www.w3.org/Graphics/SVG/1.1/DTD/svg11.dtd">
<svg width="91mm" height="96mm" viewBox="-41 -48 91 96" xmlns="http://www.w3.org/2000/svg" version="1.1">
<title>OpenSCAD Model</title>
<path d="
M 50,-0 L 15.4508,-47.5528 L -40.4508,-29.3893 L -40.4508,29.3893 L 15.4508,47.5528 z
M 3.09285,-31.2287 L 2.72607,-31.3147 L 2.37296,-31.446 L 2.03908,-31.6206 L 1.72972,-31.8356 L 1.44975,-32.0877
 L 1.20357,-32.3729 L 0.995087,-32.6867 L 0.827576,-33.0241 L 0.703674,-33.3799 L 0.625351,-33.7484 L 0.593826,-34.1238
 L 0.609589,-34.5003 L 0.672424,-34.8717 L 0.781311,-35.2324 L 0.934555,-35.5766 L 1.12973,-35.8988 L 1.36372,-36.1941
 L 1.6329,-36.4577 L 1.933,-36.6854 L 2.25926,-36.8738 L 2.60657,-37.0198 L 2.96942,-37.1211 L 3.34213,-37.1761
 L 3.71878,-37.1841 L 4.09346,-37.1447 L 4.46024,-37.0586 L 4.81337,-36.9273 L 5.14723,-36.7528 L 5.45659,-36.5378
 L 5.73657,-36.2857 L 5.98274,-36.0005 L 6.19124,-35.6867 L 6.35873,-35.3492 L 6.48264,-34.9934 L 6.56097,-34.6249
 L 6.59248,-34.2495 L 6.57672,-33.8731 L 6.51389,-33.5016 L 6.405,-33.141 L 6.25175,-32.7968 L 6.05659,-32.4745
 L 5.82259,-32.1793 L 5.55342,-31.9157 L 5.25333,-31.6879 L 4.92705,-31.4995 L 4.57974,-31.3535 L 4.21689,-31.2522
 L 3.84418,-31.1972 L 3.46753,-31.1893 z
M -1.17731,18.713 L -3.5134,18.4179 L -5.79407,17.8323 L -7.98335,16.9655 L -10.0467,15.8311 L -11.9517,14.4471
 L -13.6682,12.8353 L -15.1691,11.021 L -16.4307,9.03287 L -17.4333,6.90233 L -18.1609,4.66293 L -18.6021,2.34999
 L -18.75,-0 L -18.6021,-2.34999 L -18.1609,-4.66293 L -17.4333,-6.90233 L -16.4307,-9.03287 L -15.1691,-11.021
 L -13.6682,-12.8353 L -11.9517,-14.4471 L -10.0467,-15.8311 L -7.98335,-16.9655 L -5.79407,-17.8323 L -3.5134,-18.4179
 L -1.17731,-18.713 L 1.17731,-18.713 L 3.5134,-18.4179 L 5.79407,-17.8323 L 7.98335,-16.9655 L 10.0467,-15.8311
 L 11.9517,-14.4471 L 13.6682,-12.8353 L 15.1691,-11.021 L 16.4307,-9.03287 L 17.4333,-6.90233 L 18.1609,-4.66293
 L 18.6021,-2.34999 L 18.75,-0 L 18.6021,2.34999 L 18.1609,4.66293 L 17.4333,6.90233 L 16.4307,9.03287
 L 15.1691,11.021 L 13.6682,12.8353 L 11.9517,14.4471 L 10.0467,15.8311 L 7.98335,16.9655 L 5.79407,17.8323
 L 3.5134,18.4179 L 1.17731,18.713 z
M -4.09346,37.1447 L -4.46024,37.0586 L -4.81337,36.9273 L -5.14723,36.7528 L -5.45659,36.5378 L -5.73657,36.2857
 L -5.98274,36.0005 L -6.19124,35.6867 L -6.35873,35.3492 L -6.48264,34.9934 L -6.56097,34.6249 L -6.59248,34.2495
 L -6.57672,33.8731 L -6.51389,33.5016 L -6.405,33.141 L -6.25175,32.7968 L -6.05659,32.4745 L -5.82259,32.1793
 L -5.55342,31.9157 L -5.25333,31.6879 L -4.92705,31.4995 L -4.57974,31.3535 L -4.21689,31.2522 L -3.84418,31.1972
 L -3.46753,31.1893 L -3.09285,31.2287 L -2.72607,31.3147 L -2.37296,31.446 L -2.03908,31.6206 L -1.72972,31.8356
 L -1.44975,32.0877 L -1.20357,32.3729 L -0.995087,32.6867 L -0.827576,33.0241 L -0.703674,33.3799 L -0.625351,33.7484
 L -0.593826,34.1238 L -0.609589,34.5003 L -0.672424,34.8717 L -0.781311,35.2324 L -0.934555,35.5766 L -1.12973,35.8988
 L -1.36372,36.1941 L -1.6329,36.4577 L -1.933,36.6854 L -2.25926,36.8738 L -2.60657,37.0198 L -2.96942,37.1211
 L -3.34213,37.1761 L -3.71878,37.1841 z
" stroke="black" fill="lightgray" stroke-width="0.5"/>
</svg>
