<?xml version="1.0" standalone="no"?>
<!DOCTYPE svg PUBLIC "-//W3C//DTD SVG 1.1//EN" "http://www.w3.org/Graphics/SVG/1.1/DTD/svg11.dtd">
<svg width="91mm" height="96mm" viewBox="-41 -48 91 96" xmlns="http://www.w3.org/2000/svg" version="1.1">
<title>OpenSCAD Model</title>
<path d="
M 50,-0 L 15.4508,-47.5528 L -40.4508,-29.3893 L -40.4508,29.3893 L 15.4508,47.5528 z
M 0.906921,-31.3684 L 0.535034,-31.4286 L 0.173599,-31.535 L -0.1716,-31.6858 L -0.495209,-31.8787 L -0.792084,-32.1106
 L -1.05757,-32.378 L -1.28743,-32.6765 L -1.47807,-33.0014 L -1.62648,-33.3477 L -1.73033,-33.7098 L -1.78796,-34.0822
 L -1.79849,-34.4588 L -1.76172,-34.8337 L -1.67827,-35.2011 L -1.54941,-35.5551 L -1.37718,-35.8902 L -1.16435,-36.201
 L -0.91423,-36.4828 L -0.630753,-36.7309 L -0.318405,-36.9416 L 0.0178528,-37.1115 L 0.372757,-37.2378 L 0.740707,-37.3187
 L 1.11591,-37.3529 L 1.49242,-37.3397 L 1.8643,-37.2795 L 2.22572,-37.1731 L 2.57095,-37.0223 L 2.89455,-36.8294
 L 3.19144,-36.5974 L 3.45691,-36.3301 L 3.68677,-36.0316 L 3.87741,-35.7067 L 4.02583,-35.3604 L 4.12967,-34.9982
 L 4.1873,-34.6259 L 4.19783,-34.2494 L 4.16106,-33.8744 L 4.07761,-33.507 L 3.94875,-33.153 L 3.77654,-32.8179
 L 3.56369,-32.507 L 3.31357,-32.2253 L 3.03009,-31.9772 L 2.71776,-31.7665 L 2.38148,-31.5966 L 2.02657,-31.4703
 L 1.65862,-31.3894 L 1.28343,-31.3552 z
M -1.17731,18.713 L -3.5134,18.4179 L -5.79407,17.8323 L -7.98335,16.9655 L -10.0467,15.8311 L -11.9517,14.4471
 L -13.6682,12.8353 L -15.1691,11.021 L -16.4307,9.03287 L -17.4333,6.90233 L -18.1609,4.66293 L -18.6021,2.34999
 L -18.75,-0 L -18.6021,-2.34999 L -18.1609,-4.66293 L -17.4333,-6.90233 L -16.4307,-9.03287 L -15.1691,-11.021
 L -13.6682,-12.8353 L -11.9517,-14.4471 L -10.0467,-15.8311 L -7.98335,-16.9655 L -5.79407,-17.8323 L -3.5134,-18.4179
 L -1.17731,-18.713 L 1.17731,-18.713 L 3.5134,-18.4179 L 5.79407,-17.8323 L 7.98335,-16.9655 L 10.0467,-15.8311
 L 11.9517,-14.4471 L 13.6682,-12.8353 L 15.1691,-11.021 L 16.4307,-9.03287 L 17.4333,-6.90233 L 18.1609,-4.66293
 L 18.6021,-2.34999 L 18.75,-0 L 18.6021,2.34999 L 18.1609,4.66293 L 17.4333,6.90233 L 16.4307,9.03287
 L 15.1691,11.021 L 13.6682,12.8353 L 11.9517,14.4471 L 10.0467,15.8311 L 7.98335,16.9655 L 5.79407,17.8323
 L 3.5134,18.4179 L 1.17731,18.713 z
M -1.49242,37.3397 L -1.8643,37.2795 L -2.22572,37.1731 L -2.57095,37.0223 L -2.89455,36.8294 L -3.19144,36.5974
 L -3.45691,36.3301 L -3.68677,36.0316 L -3.87741,35.7067 L -4.02583,35.3604 L -4.12967,34.9982 L -4.1873,34.6259
 L -4.19783,34.2494 L -4.16106,33.8744 L -4.07761,33.507 L -3.94875,33.153 L -3.77654,32.8179 L -3.56369,32.507
 L -3.31357,32.2253 L -3.03009,31.9772 L -2.71776,31.7665 L -2.38148,31.5966 L -2.02657,31.4703 L -1.65862,31.3894
 L -1.28343,31.3552 L -0.906921,31.3684 L -0.535034,31.4286 L -0.173599,31.535 L 0.1716,31.6858 L 0.495209,31.8787
 L 0.792084,32.1106 L 1.05757,32.378 L 1.28743,32.6765 L 1.47807,33.0014 L 1.62648,33.3477 L 1.73033,33.7098
 L 1.78796,34.0822 L 1.79849,34.4588 L 1.76172,34.8337 L 1.67827,35.2011 L 1.54941,35.5551 L 1.37718,35.8902
 L 1.16435,36.201 L 0.91423,36.4828 L 0.630753,36.7309 L 0.318405,36.9416 L -0.0178528,37.1115 L -0.372757,37.2378
 L -0.740707,37.3187 L -1.11591,37.3529 z
" stroke="black" fill="lightgray" stroke-width="0.5"/>
</svg>
