<?xml version="1.0" standalone="no"?>
<!DOCTYPE svg PUBLIC "-//W3C//DTD SVG 1.1//EN" "http://www.w3.org/Graphics/SVG/1.1/DTD/svg11.dtd">
<svg width="73mm" height="78mm" viewBox="-33 -39 73 78" xmlns="http://www.w3.org/2000/svg" version="1.1">
<title>OpenSCAD Model</title>
<path d="
M 40,-0 L 12.3607,-38.0423 L -32.3607,-23.5114 L -32.3607,23.5114 L 12.3607,38.0423 z
M 6.3221,-26.8956 L 6.10797,-26.945 L 5.90173,-27.0209 L 5.70662,-27.1221 L 5.52573,-27.2469 L 5.36189,-27.3933
 L 5.21771,-27.5592 L 5.09546,-27.7418 L 4.99706,-27.9383 L 4.92406,-28.1456 L 4.87761,-28.3604 L 4.85846,-28.5793
 L 4.8669,-28.799 L 4.90279,-29.0158 L 4.96558,-29.2264 L 5.05426,-29.4274 L 5.16745,-29.6158 L 5.30336,-29.7885
 L 5.45982,-29.9428 L 5.63443,-30.0763 L 5.82436,-30.1869 L 6.02666,-30.2728 L 6.23811,-30.3326 L 6.45541,-30.3654
 L 6.67511,-30.3708 L 6.89375,-30.3486 L 7.10788,-30.2992 L 7.31413,-30.2233 L 7.50923,-30.1221 L 7.69012,-29.9974
 L 7.85396,-29.8509 L 7.99814,-29.685 L 8.12039,-29.5024 L 8.2188,-29.3059 L 8.29179,-29.0986 L 8.33824,-28.8838
 L 8.35739,-28.6649 L 8.34895,-28.4453 L 8.31308,-28.2285 L 8.25027,-28.0178 L 8.16159,-27.8168 L 8.04842,-27.6284
 L 7.91249,-27.4557 L 7.75603,-27.3014 L 7.58144,-27.1679 L 7.39149,-27.0573 L 7.18919,-26.9715 L 6.97774,-26.9116
 L 6.76044,-26.8788 L 6.54074,-26.8734 z
M -1.17731,18.713 L -3.5134,18.4179 L -5.79407,17.8323 L -7.98335,16.9655 L -10.0467,15.8311 L -11.9517,14.4471
 L -13.6682,12.8353 L -15.1691,11.021 L -16.4307,9.03287 L -17.4333,6.90233 L -18.1609,4.66293 L -18.6021,2.34999
 L -18.75,-0 L -18.6021,-2.34999 L -18.1609,-4.66293 L -17.4333,-6.90233 L -16.4307,-9.03287 L -15.1691,-11.021
 L -13.6682,-12.8353 L -11.9517,-14.4471 L -10.0467,-15.8311 L -7.98335,-16.9655 L -5.79407,-17.8323 L -3.5134,-18.4179
 L -1.17731,-18.713 L 1.17731,-18.713 L 3.5134,-18.4179 L 5.79407,-17.8323 L 7.98335,-16.9655 L 10.0467,-15.8311
 L 11.9517,-14.4471 L 13.6682,-12.8353 L 15.1691,-11.021 L 16.4307,-9.03287 L 17.4333,-6.90233 L 18.1609,-4.66293
 L 18.6021,-2.34999 L 18.75,-0 L 18.6021,2.34999 L 18.1609,4.66293 L 17.4333,6.90233 L 16.4307,9.03287
 L 15.1691,11.021 L 13.6682,12.8353 L 11.9517,14.4471 L 10.0467,15.8311 L 7.98335,16.9655 L 5.79407,17.8323
 L 3.5134,18.4179 L 1.17731,18.713 z
M -6.89375,30.3486 L -7.10788,30.2992 L -7.31413,30.2233 L -7.50923,30.1221 L -7.69012,29.9974 L -7.85396,29.8509
 L -7.99814,29.685 L -8.12039,29.5024 L -8.2188,29.3059 L -8.29179,29.0986 L -8.33824,28.8838 L -8.35739,28.6649
 L -8.34895,28.4453 L -8.31308,28.2285 L -8.25027,28.0178 L -8.16159,27.8168 L -8.04842,27.6284 L -7.91249,27.4557
 L -7.75603,27.3014 L -7.58144,27.1679 L -7.39149,27.0573 L -7.18919,26.9715 L -6.97774,26.9116 L -6.76044,26.8788
 L -6.54074,26.8734 L -6.3221,26.8956 L -6.10797,26.945 L -5.90173,27.0209 L -5.70662,27.1221 L -5.52573,27.2469
 L -5.36189,27.3933 L -5.21771,27.5592 L -5.09546,27.7418 L -4.99706,27.9383 L -4.92406,28.1456 L -4.87761,28.3604
 L -4.85846,28.5793 L -4.8669,28.799 L -4.90279,29.0158 L -4.96558,29.2264 L -5.05426,29.4274 L -5.16745,29.6158
 L -5.30336,29.7885 L -5.45982,29.9428 L -5.63443,30.0763 L -5.82436,30.1869 L -6.02666,30.2728 L -6.23811,30.3326
 L -6.45541,30.3654 L -6.67511,30.3708 z
" stroke="black" fill="lightgray" stroke-width="0.5"/>
</svg>
