<?xml version="1.0" standalone="no"?>
<!DOCTYPE svg PUBLIC "-//W3C//DTD SVG 1.1//EN" "http://www.w3.org/Graphics/SVG/1.1/DTD/svg11.dtd">
<svg width="73mm" height="78mm" viewBox="-33 -39 73 78" xmlns="http://www.w3.org/2000/svg" version="1.1">
<title>OpenSCAD Model</title>
<path d="
M 40,-0 L 12.3607,-38.0423 L -32.3607,-23.5114 L -32.3607,23.5114 L 12.3607,38.0423 z
M 8.85803,-26.2011 L 8.64215,-26.2422 L 8.43315,-26.3102 L 8.2343,-26.4037 L 8.04875,-26.5215 L 7.87943,-26.6616
 L 7.72897,-26.8218 L 7.59981,-26.9996 L 7.49393,-27.1922 L 7.41302,-27.3965 L 7.35837,-27.6093 L 7.33083,-27.8274
 L 7.33083,-28.0471 L 7.35837,-28.2652 L 7.41302,-28.4781 L 7.49393,-28.6824 L 7.59981,-28.875 L 7.72897,-29.0528
 L 7.87943,-29.213 L 8.04875,-29.353 L 8.23431,-29.4708 L 8.43315,-29.5644 L 8.64217,-29.6323 L 8.85805,-29.6735
 L 9.07738,-29.6873 L 9.29671,-29.6735 L 9.51257,-29.6323 L 9.72157,-29.5644 L 9.92043,-29.4708 L 10.106,-29.353
 L 10.2753,-29.213 L 10.4258,-29.0528 L 10.5549,-28.875 L 10.6608,-28.6824 L 10.7417,-28.478 L 10.7964,-28.2652
 L 10.8239,-28.0471 L 10.8239,-27.8274 L 10.7964,-27.6094 L 10.7417,-27.3965 L 10.6608,-27.1922 L 10.5549,-26.9996
 L 10.4258,-26.8218 L 10.2753,-26.6616 L 10.106,-26.5215 L 9.92043,-26.4037 L 9.72157,-26.3102 L 9.51256,-26.2422
 L 9.29669,-26.2011 L 9.07736,-26.1873 z
M -1.17731,18.713 L -3.5134,18.4179 L -5.79407,17.8323 L -7.98335,16.9655 L -10.0467,15.8311 L -11.9517,14.4471
 L -13.6682,12.8353 L -15.1691,11.021 L -16.4307,9.03287 L -17.4333,6.90233 L -18.1609,4.66293 L -18.6021,2.34999
 L -18.75,-0 L -18.6021,-2.34999 L -18.1609,-4.66293 L -17.4333,-6.90233 L -16.4307,-9.03287 L -15.1691,-11.021
 L -13.6682,-12.8353 L -11.9517,-14.4471 L -10.0467,-15.8311 L -7.98335,-16.9655 L -5.79407,-17.8323 L -3.5134,-18.4179
 L -1.17731,-18.713 L 1.17731,-18.713 L 3.5134,-18.4179 L 5.79407,-17.8323 L 7.98335,-16.9655 L 10.0467,-15.8311
 L 11.9517,-14.4471 L 13.6682,-12.8353 L 15.1691,-11.021 L 16.4307,-9.03287 L 17.4333,-6.90233 L 18.1609,-4.66293
 L 18.6021,-2.34999 L 18.75,-0 L 18.6021,2.34999 L 18.1609,4.66293 L 17.4333,6.90233 L 16.4307,9.03287
 L 15.1691,11.021 L 13.6682,12.8353 L 11.9517,14.4471 L 10.0467,15.8311 L 7.98335,16.9655 L 5.79407,17.8323
 L 3.5134,18.4179 L 1.17731,18.713 z
M -9.29671,29.6735 L -9.51257,29.6323 L -9.72157,29.5644 L -9.92043,29.4708 L -10.106,29.353 L -10.2753,29.213
 L -10.4258,29.0528 L -10.5549,28.875 L -10.6608,28.6824 L -10.7417,28.478 L -10.7964,28.2652 L -10.8239,28.0471
 L -10.8239,27.8274 L -10.7964,27.6094 L -10.7417,27.3965 L -10.6608,27.1922 L -10.5549,26.9996 L -10.4258,26.8218
 L -10.2753,26.6616 L -10.106,26.5215 L -9.92043,26.4037 L -9.72157,26.3102 L -9.51256,26.2422 L -9.29669,26.2011
 L -9.07736,26.1873 L -8.85803,26.2011 L -8.64215,26.2422 L -8.43315,26.3102 L -8.2343,26.4037 L -8.04875,26.5215
 L -7.87943,26.6616 L -7.72897,26.8218 L -7.59981,26.9996 L -7.49393,27.1922 L -7.41302,27.3965 L -7.35837,27.6093
 L -7.33083,27.8274 L -7.33083,28.0471 L -7.35837,28.2652 L -7.41302,28.4781 L -7.49393,28.6824 L -7.59981,28.875
 L -7.72897,29.0528 L -7.87943,29.213 L -8.04875,29.353 L -8.23431,29.4708 L -8.43315,29.5644 L -8.64217,29.6323
 L -8.85805,29.6735 L -9.07738,29.6873 z
" stroke="black" fill="lightgray" stroke-width="0.5"/>
</svg>
