<?xml version="1.0" standalone="no"?>
<!DOCTYPE svg PUBLIC "-//W3C//DTD SVG 1.1//EN" "http://www.w3.org/Graphics/SVG/1.1/DTD/svg11.dtd">
<svg width="91mm" height="96mm" viewBox="-41 -48 91 96" xmlns="http://www.w3.org/2000/svg" version="1.1">
<title>OpenSCAD Model</title>
<path d="
M 50,-0 L 15.4508,-47.5528 L -40.4508,-29.3893 L -40.4508,29.3893 L 15.4508,47.5528 z
M 9.20311,-30.0557 L 8.83081,-30.1133 L 8.46867,-30.2172 L 8.12241,-30.3656 L 7.79745,-30.5562 L 7.49896,-30.7861
 L 7.23164,-31.0516 L 6.99969,-31.3484 L 6.80678,-31.6721 L 6.65594,-32.0173 L 6.54959,-32.3787 L 6.48935,-32.7506
 L 6.4762,-33.1271 L 6.51035,-33.5023 L 6.59125,-33.8703 L 6.71762,-34.2252 L 6.88748,-34.5615 L 7.09816,-34.8738
 L 7.34633,-35.1573 L 7.62804,-35.4074 L 7.9389,-35.6202 L 8.27399,-35.7924 L 8.62801,-35.9213 L 8.99539,-36.0048
 L 9.37033,-36.0415 L 9.74693,-36.031 L 10.1192,-35.9734 L 10.4814,-35.8695 L 10.8277,-35.7211 L 11.1526,-35.5305
 L 11.4511,-35.3006 L 11.7184,-35.0351 L 11.9504,-34.7383 L 12.1433,-34.4147 L 12.2941,-34.0694 L 12.4005,-33.708
 L 12.4607,-33.3361 L 12.4738,-32.9596 L 12.4397,-32.5844 L 12.3588,-32.2164 L 12.2324,-31.8615 L 12.0626,-31.5253
 L 11.8519,-31.2129 L 11.6037,-30.9295 L 11.322,-30.6793 L 11.0112,-30.4665 L 10.6761,-30.2943 L 10.322,-30.1654
 L 9.95465,-30.0819 L 9.57971,-30.0452 z
M -1.17731,18.713 L -3.5134,18.4179 L -5.79407,17.8323 L -7.98335,16.9655 L -10.0467,15.8311 L -11.9517,14.4471
 L -13.6682,12.8353 L -15.1691,11.021 L -16.4307,9.03287 L -17.4333,6.90233 L -18.1609,4.66293 L -18.6021,2.34999
 L -18.75,-0 L -18.6021,-2.34999 L -18.1609,-4.66293 L -17.4333,-6.90233 L -16.4307,-9.03287 L -15.1691,-11.021
 L -13.6682,-12.8353 L -11.9517,-14.4471 L -10.0467,-15.8311 L -7.98335,-16.9655 L -5.79407,-17.8323 L -3.5134,-18.4179
 L -1.17731,-18.713 L 1.17731,-18.713 L 3.5134,-18.4179 L 5.79407,-17.8323 L 7.98335,-16.9655 L 10.0467,-15.8311
 L 11.9517,-14.4471 L 13.6682,-12.8353 L 15.1691,-11.021 L 16.4307,-9.03287 L 17.4333,-6.90233 L 18.1609,-4.66293
 L 18.6021,-2.34999 L 18.75,-0 L 18.6021,2.34999 L 18.1609,4.66293 L 17.4333,6.90233 L 16.4307,9.03287
 L 15.1691,11.021 L 13.6682,12.8353 L 11.9517,14.4471 L 10.0467,15.8311 L 7.98335,16.9655 L 5.79407,17.8323
 L 3.5134,18.4179 L 1.17731,18.713 z
M -9.74693,36.031 L -10.1192,35.9734 L -10.4814,35.8695 L -10.8277,35.7211 L -11.1526,35.5305 L -11.4511,35.3006
 L -11.7184,35.0351 L -11.9504,34.7383 L -12.1433,34.4147 L -12.2941,34.0694 L -12.4005,33.708 L -12.4607,33.3361
 L -12.4738,32.9596 L -12.4397,32.5844 L -12.3588,32.2164 L -12.2324,31.8615 L -12.0626,31.5253 L -11.8519,31.2129
 L -11.6037,30.9295 L -11.322,30.6793 L -11.0112,30.4665 L -10.6761,30.2943 L -10.322,30.1654 L -9.95465,30.0819
 L -9.57971,30.0452 L -9.20311,30.0557 L -8.83081,30.1133 L -8.46867,30.2172 L -8.12241,30.3656 L -7.79745,30.5562
 L -7.49896,30.7861 L -7.23164,31.0516 L -6.99969,31.3484 L -6.80678,31.6721 L -6.65594,32.0173 L -6.54959,32.3787
 L -6.48935,32.7506 L -6.4762,33.1271 L -6.51035,33.5023 L -6.59125,33.8703 L -6.71762,34.2252 L -6.88748,34.5615
 L -7.09816,34.8738 L -7.34633,35.1573 L -7.62804,35.4074 L -7.9389,35.6202 L -8.27399,35.7924 L -8.62801,35.9213
 L -8.99539,36.0048 L -9.37033,36.0415 z
" stroke="black" fill="lightgray" stroke-width="0.5"/>
</svg>
