<?xml version="1.0" standalone="no"?>
<!DOCTYPE svg PUBLIC "-//W3C//DTD SVG 1.1//EN" "http://www.w3.org/Graphics/SVG/1.1/DTD/svg11.dtd">
<svg width="91mm" height="96mm" viewBox="-41 -48 91 96" xmlns="http://www.w3.org/2000/svg" version="1.1">
<title>OpenSCAD Model</title>
<path d="
M 50,-0 L 15.4508,-47.5528 L -40.4508,-29.3893 L -40.4508,29.3893 L 15.4508,47.5528 z
M 10.2464,-29.7162 L 9.87637,-29.7868 L 9.51808,-29.9032 L 9.1772,-30.0636 L 8.8591,-30.2655 L 8.56882,-30.5056
 L 8.31093,-30.7803 L 8.08948,-31.0851 L 7.90797,-31.4152 L 7.76929,-31.7655 L 7.6756,-32.1304 L 7.62837,-32.5042
 L 7.62837,-32.8809 L 7.6756,-33.2547 L 7.76929,-33.6196 L 7.90797,-33.9699 L 8.08946,-34.3 L 8.31091,-34.6048
 L 8.56882,-34.8795 L 8.8591,-35.1196 L 9.17719,-35.3215 L 9.51808,-35.4819 L 9.87639,-35.5983 L 10.2465,-35.6689
 L 10.6225,-35.6926 L 10.9985,-35.6689 L 11.3685,-35.5983 L 11.7268,-35.4819 L 12.0677,-35.3215 L 12.3858,-35.1196
 L 12.6761,-34.8795 L 12.934,-34.6048 L 13.1554,-34.3 L 13.3369,-33.9699 L 13.4756,-33.6196 L 13.5693,-33.2547
 L 13.6165,-32.8809 L 13.6165,-32.5042 L 13.5693,-32.1304 L 13.4756,-31.7655 L 13.3369,-31.4152 L 13.1554,-31.0851
 L 12.934,-30.7803 L 12.6761,-30.5056 L 12.3858,-30.2655 L 12.0677,-30.0636 L 11.7268,-29.9032 L 11.3685,-29.7868
 L 10.9984,-29.7162 L 10.6225,-29.6926 z
M -1.17731,18.713 L -3.5134,18.4179 L -5.79407,17.8323 L -7.98335,16.9655 L -10.0467,15.8311 L -11.9517,14.4471
 L -13.6682,12.8353 L -15.1691,11.021 L -16.4307,9.03287 L -17.4333,6.90233 L -18.1609,4.66293 L -18.6021,2.34999
 L -18.75,-0 L -18.6021,-2.34999 L -18.1609,-4.66293 L -17.4333,-6.90233 L -16.4307,-9.03287 L -15.1691,-11.021
 L -13.6682,-12.8353 L -11.9517,-14.4471 L -10.0467,-15.8311 L -7.98335,-16.9655 L -5.79407,-17.8323 L -3.5134,-18.4179
 L -1.17731,-18.713 L 1.17731,-18.713 L 3.5134,-18.4179 L 5.79407,-17.8323 L 7.98335,-16.9655 L 10.0467,-15.8311
 L 11.9517,-14.4471 L 13.6682,-12.8353 L 15.1691,-11.021 L 16.4307,-9.03287 L 17.4333,-6.90233 L 18.1609,-4.66293
 L 18.6021,-2.34999 L 18.75,-0 L 18.6021,2.34999 L 18.1609,4.66293 L 17.4333,6.90233 L 16.4307,9.03287
 L 15.1691,11.021 L 13.6682,12.8353 L 11.9517,14.4471 L 10.0467,15.8311 L 7.98335,16.9655 L 5.79407,17.8323
 L 3.5134,18.4179 L 1.17731,18.713 z
M -10.9985,35.6689 L -11.3685,35.5983 L -11.7268,35.4819 L -12.0677,35.3215 L -12.3858,35.1196 L -12.6761,34.8795
 L -12.934,34.6048 L -13.1554,34.3 L -13.3369,33.9699 L -13.4756,33.6196 L -13.5693,33.2547 L -13.6165,32.8809
 L -13.6165,32.5042 L -13.5693,32.1304 L -13.4756,31.7655 L -13.3369,31.4152 L -13.1554,31.0851 L -12.934,30.7803
 L -12.6761,30.5056 L -12.3858,30.2655 L -12.0677,30.0636 L -11.7268,29.9032 L -11.3685,29.7868 L -10.9984,29.7162
 L -10.6225,29.6926 L -10.2464,29.7162 L -9.87637,29.7868 L -9.51808,29.9032 L -9.1772,30.0636 L -8.8591,30.2655
 L -8.56882,30.5056 L -8.31093,30.7803 L -8.08948,31.0851 L -7.90797,31.4152 L -7.76929,31.7655 L -7.6756,32.1304
 L -7.62837,32.5042 L -7.62837,32.8809 L -7.6756,33.2547 L -7.76929,33.6196 L -7.90797,33.9699 L -8.08946,34.3
 L -8.31091,34.6048 L -8.56882,34.8795 L -8.8591,35.1196 L -9.17719,35.3215 L -9.51808,35.4819 L -9.87639,35.5983
 L -10.2465,35.6689 L -10.6225,35.6926 z
" stroke="black" fill="lightgray" stroke-width="0.5"/>
</svg>
