<?xml version="1.0" standalone="no"?>
<!DOCTYPE svg PUBLIC "-//W3C//DTD SVG 1.1//EN" "http://www.w3.org/Graphics/SVG/1.1/DTD/svg11.dtd">
<svg width="91mm" height="96mm" viewBox="-41 -48 91 96" xmlns="http://www.w3.org/2000/svg" version="1.1">
<title>OpenSCAD Model</title>
<path d="
M 50,-0 L 15.4508,-47.5528 L -40.4508,-29.3893 L -40.4508,29.3893 L 15.4508,47.5528 z
M -0.18837,-31.3809 L -0.562134,-31.4281 L -0.927048,-31.5218 L -1.27733,-31.6605 L -1.60747,-31.842 L -1.91226,-32.0634
 L -2.1869,-32.3214 L -2.42705,-32.6116 L -2.62891,-32.9297 L -2.78932,-33.2706 L -2.90575,-33.6289 L -2.97633,-33.999
 L -3,-34.375 L -2.97633,-34.751 L -2.90575,-35.1211 L -2.78932,-35.4794 L -2.62891,-35.8203 L -2.42705,-36.1384
 L -2.1869,-36.4286 L -1.91226,-36.6865 L -1.60747,-36.908 L -1.27733,-37.0895 L -0.927048,-37.2282 L -0.562134,-37.3219
 L -0.18837,-37.3691 L 0.18837,-37.3691 L 0.562134,-37.3219 L 0.927048,-37.2282 L 1.27733,-37.0895 L 1.60747,-36.908
 L 1.91226,-36.6865 L 2.1869,-36.4286 L 2.42705,-36.1384 L 2.62891,-35.8203 L 2.78932,-35.4794 L 2.90575,-35.1211
 L 2.97633,-34.751 L 3,-34.375 L 2.97633,-33.999 L 2.90575,-33.6289 L 2.78932,-33.2706 L 2.62891,-32.9297
 L 2.42705,-32.6116 L 2.1869,-32.3214 L 1.91226,-32.0634 L 1.60747,-31.842 L 1.27733,-31.6605 L 0.927048,-31.5218
 L 0.562134,-31.4281 L 0.18837,-31.3809 z
M -1.17731,18.713 L -3.5134,18.4179 L -5.79407,17.8323 L -7.98335,16.9655 L -10.0467,15.8311 L -11.9517,14.4471
 L -13.6682,12.8353 L -15.1691,11.021 L -16.4307,9.03287 L -17.4333,6.90233 L -18.1609,4.66293 L -18.6021,2.34999
 L -18.75,-0 L -18.6021,-2.34999 L -18.1609,-4.66293 L -17.4333,-6.90233 L -16.4307,-9.03287 L -15.1691,-11.021
 L -13.6682,-12.8353 L -11.9517,-14.4471 L -10.0467,-15.8311 L -7.98335,-16.9655 L -5.79407,-17.8323 L -3.5134,-18.4179
 L -1.17731,-18.713 L 1.17731,-18.713 L 3.5134,-18.4179 L 5.79407,-17.8323 L 7.98335,-16.9655 L 10.0467,-15.8311
 L 11.9517,-14.4471 L 13.6682,-12.8353 L 15.1691,-11.021 L 16.4307,-9.03287 L 17.4333,-6.90233 L 18.1609,-4.66293
 L 18.6021,-2.34999 L 18.75,-0 L 18.6021,2.34999 L 18.1609,4.66293 L 17.4333,6.90233 L 16.4307,9.03287
 L 15.1691,11.021 L 13.6682,12.8353 L 11.9517,14.4471 L 10.0467,15.8311 L 7.98335,16.9655 L 5.79407,17.8323
 L 3.5134,18.4179 L 1.17731,18.713 z
M -0.18837,37.3691 L -0.562134,37.3219 L -0.927048,37.2282 L -1.27733,37.0895 L -1.60747,36.908 L -1.91226,36.6865
 L -2.1869,36.4286 L -2.42705,36.1384 L -2.62891,35.8203 L -2.78932,35.4794 L -2.90575,35.1211 L -2.97633,34.751
 L -3,34.375 L -2.97633,33.999 L -2.90575,33.6289 L -2.78932,33.2706 L -2.62891,32.9297 L -2.42705,32.6116
 L -2.1869,32.3214 L -1.91226,32.0634 L -1.60747,31.842 L -1.27733,31.6605 L -0.927048,31.5218 L -0.562134,31.4281
 L -0.18837,31.3809 L 0.18837,31.3809 L 0.562134,31.4281 L 0.927048,31.5218 L 1.27733,31.6605 L 1.60747,31.842
 L 1.91226,32.0634 L 2.1869,32.3214 L 2.42705,32.6116 L 2.62891,32.9297 L 2.78932,33.2706 L 2.90575,33.6289
 L 2.97633,33.999 L 3,34.375 L 2.97633,34.751 L 2.90575,35.1211 L 2.78932,35.4794 L 2.62891,35.8203
 L 2.42705,36.1384 L 2.1869,36.4286 L 1.91226,36.6865 L 1.60747,36.908 L 1.27733,37.0895 L 0.927048,37.2282
 L 0.562134,37.3219 L 0.18837,37.3691 z
" stroke="black" fill="lightgray" stroke-width="0.5"/>
</svg>
