<?xml version="1.0" standalone="no"?>
<!DOCTYPE svg PUBLIC "-//W3C//DTD SVG 1.1//EN" "http://www.w3.org/Graphics/SVG/1.1/DTD/svg11.dtd">
<svg width="91mm" height="96mm" viewBox="-41 -48 91 96" xmlns="http://www.w3.org/2000/svg" version="1.1">
<title>OpenSCAD Model</title>
<path d="
M 50,-0 L 15.4508,-47.5528 L -40.4508,-29.3893 L -40.4508,29.3893 L 15.4508,47.5528 z
M 2.54736,-31.2779 L 2.17914,-31.3575 L 1.82378,-31.4827 L 1.48692,-31.6514 L 1.17386,-31.8609 L 0.889526,-32.1081
 L 0.638397,-32.3889 L 0.424469,-32.6991 L 0.251099,-33.0335 L 0.121002,-33.3871 L 0.0362549,-33.7542 L -0.00178528,-34.129
 L 0.00738525,-34.5056 L 0.063736,-34.8781 L 0.166306,-35.2407 L 0.313522,-35.5875 L 0.503036,-35.9131 L 0.731842,-36.2124
 L 0.996368,-36.4806 L 1.29245,-36.7136 L 1.61539,-36.9076 L 1.96008,-37.0597 L 2.32112,-37.1673 L 2.69281,-37.2288
 L 3.06927,-37.2433 L 3.44458,-37.2104 L 3.81281,-37.1308 L 4.16817,-37.0057 L 4.50502,-36.837 L 4.81808,-36.6274
 L 5.10242,-36.3803 L 5.35355,-36.0994 L 5.56747,-35.7893 L 5.74083,-35.4548 L 5.87093,-35.1012 L 5.95569,-34.7342
 L 5.99374,-34.3593 L 5.98456,-33.9827 L 5.92821,-33.6102 L 5.82564,-33.2477 L 5.67842,-32.9009 L 5.48891,-32.5753
 L 5.2601,-32.276 L 4.99556,-32.0078 L 4.69949,-31.7748 L 4.37656,-31.5807 L 4.03186,-31.4287 L 3.67082,-31.3211
 L 3.29913,-31.2595 L 2.92267,-31.2451 z
M -1.17731,18.713 L -3.5134,18.4179 L -5.79407,17.8323 L -7.98335,16.9655 L -10.0467,15.8311 L -11.9517,14.4471
 L -13.6682,12.8353 L -15.1691,11.021 L -16.4307,9.03287 L -17.4333,6.90233 L -18.1609,4.66293 L -18.6021,2.34999
 L -18.75,-0 L -18.6021,-2.34999 L -18.1609,-4.66293 L -17.4333,-6.90233 L -16.4307,-9.03287 L -15.1691,-11.021
 L -13.6682,-12.8353 L -11.9517,-14.4471 L -10.0467,-15.8311 L -7.98335,-16.9655 L -5.79407,-17.8323 L -3.5134,-18.4179
 L -1.17731,-18.713 L 1.17731,-18.713 L 3.5134,-18.4179 L 5.79407,-17.8323 L 7.98335,-16.9655 L 10.0467,-15.8311
 L 11.9517,-14.4471 L 13.6682,-12.8353 L 15.1691,-11.021 L 16.4307,-9.03287 L 17.4333,-6.90233 L 18.1609,-4.66293
 L 18.6021,-2.34999 L 18.75,-0 L 18.6021,2.34999 L 18.1609,4.66293 L 17.4333,6.90233 L 16.4307,9.03287
 L 15.1691,11.021 L 13.6682,12.8353 L 11.9517,14.4471 L 10.0467,15.8311 L 7.98335,16.9655 L 5.79407,17.8323
 L 3.5134,18.4179 L 1.17731,18.713 z
M -3.44458,37.2104 L -3.81281,37.1308 L -4.16817,37.0057 L -4.50502,36.837 L -4.81808,36.6274 L -5.10242,36.3803
 L -5.35355,36.0994 L -5.56747,35.7893 L -5.74083,35.4548 L -5.87093,35.1012 L -5.95569,34.7342 L -5.99374,34.3593
 L -5.98456,33.9827 L -5.92821,33.6102 L -5.82564,33.2477 L -5.67842,32.9009 L -5.48891,32.5753 L -5.2601,32.276
 L -4.99556,32.0078 L -4.69949,31.7748 L -4.37656,31.5807 L -4.03186,31.4287 L -3.67082,31.3211 L -3.29913,31.2595
 L -2.92267,31.2451 L -2.54736,31.2779 L -2.17914,31.3575 L -1.82378,31.4827 L -1.48692,31.6514 L -1.17386,31.8609
 L -0.889526,32.1081 L -0.638397,32.3889 L -0.424469,32.6991 L -0.251099,33.0335 L -0.121002,33.3871 L -0.0362549,33.7542
 L 0.00178528,34.129 L -0.00738525,34.5056 L -0.063736,34.8781 L -0.166306,35.2407 L -0.313522,35.5875 L -0.503036,35.9131
 L -0.731842,36.2124 L -0.996368,36.4806 L -1.29245,36.7136 L -1.61539,36.9076 L -1.96008,37.0597 L -2.32112,37.1673
 L -2.69281,37.2288 L -3.06927,37.2433 z
" stroke="black" fill="lightgray" stroke-width="0.5"/>
</svg>
