<?xml version="1.0" standalone="no"?>
<!DOCTYPE svg PUBLIC "-//W3C//DTD SVG 1.1//EN" "http://www.w3.org/Graphics/SVG/1.1/DTD/svg11.dtd">
<svg width="73mm" height="78mm" viewBox="-33 -39 73 78" xmlns="http://www.w3.org/2000/svg" version="1.1">
<title>OpenSCAD Model</title>
<path d="
M 40,-0 L 12.3607,-38.0423 L -32.3607,-23.5114 L -32.3607,23.5114 L 12.3607,38.0423 z
M 1.33623,-27.5963 L 1.11993,-27.6352 L 0.910233,-27.701 L 0.710403,-27.7924 L 0.523636,-27.9082 L 0.352844,-28.0466
 L 0.200729,-28.2052 L 0.0697021,-28.3816 L -0.0381622,-28.5731 L -0.121216,-28.7766 L -0.178085,-28.9888 L -0.207916,-29.2066
 L -0.21022,-29.4263 L -0.184952,-29.6446 L -0.132538,-29.858 L -0.0537872,-30.0632 L 0.0500641,-30.2569 L 0.177368,-30.436
 L 0.326126,-30.5978 L 0.493988,-30.7397 L 0.678299,-30.8594 L 0.876144,-30.955 L 1.08444,-31.0251 L 1.29987,-31.0685
 L 1.51904,-31.0846 L 1.73849,-31.0731 L 1.95479,-31.0342 L 2.16449,-30.9685 L 2.36432,-30.877 L 2.55109,-30.7612
 L 2.72188,-30.6229 L 2.87399,-30.4643 L 3.00502,-30.2878 L 3.1129,-30.0964 L 3.19595,-29.8929 L 3.25282,-29.6806
 L 3.28265,-29.4629 L 3.28496,-29.2431 L 3.25969,-29.0248 L 3.20728,-28.8114 L 3.12852,-28.6062 L 3.02466,-28.4126
 L 2.89735,-28.2334 L 2.7486,-28.0716 L 2.58073,-27.9298 L 2.39642,-27.8101 L 2.19858,-27.7145 L 1.99028,-27.6444
 L 1.77486,-27.6009 L 1.55568,-27.5848 z
M -1.17731,18.713 L -3.5134,18.4179 L -5.79407,17.8323 L -7.98335,16.9655 L -10.0467,15.8311 L -11.9517,14.4471
 L -13.6682,12.8353 L -15.1691,11.021 L -16.4307,9.03287 L -17.4333,6.90233 L -18.1609,4.66293 L -18.6021,2.34999
 L -18.75,-0 L -18.6021,-2.34999 L -18.1609,-4.66293 L -17.4333,-6.90233 L -16.4307,-9.03287 L -15.1691,-11.021
 L -13.6682,-12.8353 L -11.9517,-14.4471 L -10.0467,-15.8311 L -7.98335,-16.9655 L -5.79407,-17.8323 L -3.5134,-18.4179
 L -1.17731,-18.713 L 1.17731,-18.713 L 3.5134,-18.4179 L 5.79407,-17.8323 L 7.98335,-16.9655 L 10.0467,-15.8311
 L 11.9517,-14.4471 L 13.6682,-12.8353 L 15.1691,-11.021 L 16.4307,-9.03287 L 17.4333,-6.90233 L 18.1609,-4.66293
 L 18.6021,-2.34999 L 18.75,-0 L 18.6021,2.34999 L 18.1609,4.66293 L 17.4333,6.90233 L 16.4307,9.03287
 L 15.1691,11.021 L 13.6682,12.8353 L 11.9517,14.4471 L 10.0467,15.8311 L 7.98335,16.9655 L 5.79407,17.8323
 L 3.5134,18.4179 L 1.17731,18.713 z
M -1.73849,31.0731 L -1.95479,31.0342 L -2.16449,30.9685 L -2.36432,30.877 L -2.55109,30.7612 L -2.72188,30.6229
 L -2.87399,30.4643 L -3.00502,30.2878 L -3.1129,30.0964 L -3.19595,29.8929 L -3.25282,29.6806 L -3.28265,29.4629
 L -3.28496,29.2431 L -3.25969,29.0248 L -3.20728,28.8114 L -3.12852,28.6062 L -3.02466,28.4126 L -2.89735,28.2334
 L -2.7486,28.0716 L -2.58073,27.9298 L -2.39642,27.8101 L -2.19858,27.7145 L -1.99028,27.6444 L -1.77486,27.6009
 L -1.55568,27.5848 L -1.33623,27.5963 L -1.11993,27.6352 L -0.910233,27.701 L -0.710403,27.7924 L -0.523636,27.9082
 L -0.352844,28.0466 L -0.200729,28.2052 L -0.0697021,28.3816 L 0.0381622,28.5731 L 0.121216,28.7766 L 0.178085,28.9888
 L 0.207916,29.2066 L 0.21022,29.4263 L 0.184952,29.6446 L 0.132538,29.858 L 0.0537872,30.0632 L -0.0500641,30.2569
 L -0.177368,30.436 L -0.326126,30.5978 L -0.493988,30.7397 L -0.678299,30.8594 L -0.876144,30.955 L -1.08444,31.0251
 L -1.29987,31.0685 L -1.51904,31.0846 z
" stroke="black" fill="lightgray" stroke-width="0.5"/>
</svg>
