<?xml version="1.0" standalone="no"?>
<!DOCTYPE svg PUBLIC "-//W3C//DTD SVG 1.1//EN" "http://www.w3.org/Graphics/SVG/1.1/DTD/svg11.dtd">
<svg width="91mm" height="96mm" viewBox="-41 -48 91 96" xmlns="http://www.w3.org/2000/svg" version="1.1">
<title>OpenSCAD Model</title>
<path d="
M 50,-0 L 15.4508,-47.5528 L -40.4508,-29.3893 L -40.4508,29.3893 L 15.4508,47.5528 z
M 3.63739,-31.17 L 3.27217,-31.2624 L 2.9214,-31.3998 L 2.59064,-31.5802 L 2.28506,-31.8006 L 2.00954,-32.0575
 L 1.76837,-32.3469 L 1.5654,-32.6643 L 1.40381,-33.0047 L 1.28613,-33.3625 L 1.21423,-33.7324 L 1.18929,-34.1083
 L 1.21161,-34.4844 L 1.28093,-34.8547 L 1.39609,-35.2134 L 1.55531,-35.5548 L 1.75607,-35.8736 L 1.99519,-36.1647
 L 2.26892,-36.4236 L 2.57295,-36.6461 L 2.90245,-36.8288 L 3.25226,-36.9687 L 3.61682,-37.0636 L 3.99043,-37.1122
 L 4.36717,-37.1135 L 4.7411,-37.0676 L 5.10632,-36.9751 L 5.45711,-36.8377 L 5.78787,-36.6573 L 6.09343,-36.437
 L 6.36896,-36.18 L 6.61012,-35.8906 L 6.81311,-35.5732 L 6.9747,-35.2329 L 7.09238,-34.875 L 7.16426,-34.5051
 L 7.18922,-34.1292 L 7.16689,-33.7532 L 7.09758,-33.3828 L 6.98242,-33.0241 L 6.8232,-32.6827 L 6.62242,-32.3639
 L 6.3833,-32.0728 L 6.10957,-31.8139 L 5.80556,-31.5914 L 5.47604,-31.4088 L 5.12625,-31.2688 L 4.76167,-31.1739
 L 4.38806,-31.1254 L 4.01132,-31.124 z
M -1.17731,18.713 L -3.5134,18.4179 L -5.79407,17.8323 L -7.98335,16.9655 L -10.0467,15.8311 L -11.9517,14.4471
 L -13.6682,12.8353 L -15.1691,11.021 L -16.4307,9.03287 L -17.4333,6.90233 L -18.1609,4.66293 L -18.6021,2.34999
 L -18.75,-0 L -18.6021,-2.34999 L -18.1609,-4.66293 L -17.4333,-6.90233 L -16.4307,-9.03287 L -15.1691,-11.021
 L -13.6682,-12.8353 L -11.9517,-14.4471 L -10.0467,-15.8311 L -7.98335,-16.9655 L -5.79407,-17.8323 L -3.5134,-18.4179
 L -1.17731,-18.713 L 1.17731,-18.713 L 3.5134,-18.4179 L 5.79407,-17.8323 L 7.98335,-16.9655 L 10.0467,-15.8311
 L 11.9517,-14.4471 L 13.6682,-12.8353 L 15.1691,-11.021 L 16.4307,-9.03287 L 17.4333,-6.90233 L 18.1609,-4.66293
 L 18.6021,-2.34999 L 18.75,-0 L 18.6021,2.34999 L 18.1609,4.66293 L 17.4333,6.90233 L 16.4307,9.03287
 L 15.1691,11.021 L 13.6682,12.8353 L 11.9517,14.4471 L 10.0467,15.8311 L 7.98335,16.9655 L 5.79407,17.8323
 L 3.5134,18.4179 L 1.17731,18.713 z
M -4.7411,37.0676 L -5.10632,36.9751 L -5.45711,36.8377 L -5.78787,36.6573 L -6.09343,36.437 L -6.36896,36.18
 L -6.61012,35.8906 L -6.81311,35.5732 L -6.9747,35.2329 L -7.09238,34.875 L -7.16426,34.5051 L -7.18922,34.1292
 L -7.16689,33.7532 L -7.09758,33.3828 L -6.98242,33.0241 L -6.8232,32.6827 L -6.62242,32.3639 L -6.3833,32.0728
 L -6.10957,31.8139 L -5.80556,31.5914 L -5.47604,31.4088 L -5.12625,31.2688 L -4.76167,31.1739 L -4.38806,31.1254
 L -4.01132,31.124 L -3.63739,31.17 L -3.27217,31.2624 L -2.9214,31.3998 L -2.59064,31.5802 L -2.28506,31.8006
 L -2.00954,32.0575 L -1.76837,32.3469 L -1.5654,32.6643 L -1.40381,33.0047 L -1.28613,33.3625 L -1.21423,33.7324
 L -1.18929,34.1083 L -1.21161,34.4844 L -1.28093,34.8547 L -1.39609,35.2134 L -1.55531,35.5548 L -1.75607,35.8736
 L -1.99519,36.1647 L -2.26892,36.4236 L -2.57295,36.6461 L -2.90245,36.8288 L -3.25226,36.9687 L -3.61682,37.0636
 L -3.99043,37.1122 L -4.36717,37.1135 z
" stroke="black" fill="lightgray" stroke-width="0.5"/>
</svg>
