<?xml version="1.0" standalone="no"?>
<!DOCTYPE svg PUBLIC "-//W3C//DTD SVG 1.1//EN" "http://www.w3.org/Graphics/SVG/1.1/DTD/svg11.dtd">
<svg width="91mm" height="96mm" viewBox="-41 -48 91 96" xmlns="http://www.w3.org/2000/svg" version="1.1">
<title>OpenSCAD Model</title>
<path d="
M 50,-0 L 15.4508,-47.5528 L -40.4508,-29.3893 L -40.4508,29.3893 L 15.4508,47.5528 z
M 1.45422,-31.3477 L 1.08345,-31.4145 L 0.723938,-31.5271 L 0.381393,-31.684 L 0.061203,-31.8825 L -0.231567,-32.1196
 L -0.492325,-32.3915 L -0.716949,-32.694 L -0.901886,-33.0222 L -1.04424,-33.371 L -1.14175,-33.7349 L -1.19287,-34.1082
 L -1.19684,-34.4849 L -1.15352,-34.8591 L -1.06366,-35.225 L -0.92865,-35.5767 L -0.75061,-35.9087 L -0.532379,-36.2158
 L -0.277374,-36.4932 L 0.010376,-36.7363 L 0.32634,-36.9415 L 0.665527,-37.1055 L 1.02258,-37.2257 L 1.39191,-37.3001
 L 1.76762,-37.3277 L 2.14384,-37.308 L 2.51463,-37.2413 L 2.87415,-37.1286 L 3.21669,-36.9718 L 3.53687,-36.7733
 L 3.82967,-36.5362 L 4.09042,-36.2643 L 4.31505,-35.9618 L 4.49998,-35.6336 L 4.64233,-35.2848 L 4.73985,-34.9209
 L 4.79097,-34.5476 L 4.79492,-34.1709 L 4.75162,-33.7966 L 4.66176,-33.4308 L 4.52675,-33.079 L 4.34871,-32.747
 L 4.13048,-32.4399 L 3.87547,-32.1626 L 3.58771,-31.9194 L 3.27174,-31.7142 L 2.93256,-31.5503 L 2.5755,-31.4301
 L 2.20618,-31.3556 L 1.83046,-31.328 z
M -1.17731,18.713 L -3.5134,18.4179 L -5.79407,17.8323 L -7.98335,16.9655 L -10.0467,15.8311 L -11.9517,14.4471
 L -13.6682,12.8353 L -15.1691,11.021 L -16.4307,9.03287 L -17.4333,6.90233 L -18.1609,4.66293 L -18.6021,2.34999
 L -18.75,-0 L -18.6021,-2.34999 L -18.1609,-4.66293 L -17.4333,-6.90233 L -16.4307,-9.03287 L -15.1691,-11.021
 L -13.6682,-12.8353 L -11.9517,-14.4471 L -10.0467,-15.8311 L -7.98335,-16.9655 L -5.79407,-17.8323 L -3.5134,-18.4179
 L -1.17731,-18.713 L 1.17731,-18.713 L 3.5134,-18.4179 L 5.79407,-17.8323 L 7.98335,-16.9655 L 10.0467,-15.8311
 L 11.9517,-14.4471 L 13.6682,-12.8353 L 15.1691,-11.021 L 16.4307,-9.03287 L 17.4333,-6.90233 L 18.1609,-4.66293
 L 18.6021,-2.34999 L 18.75,-0 L 18.6021,2.34999 L 18.1609,4.66293 L 17.4333,6.90233 L 16.4307,9.03287
 L 15.1691,11.021 L 13.6682,12.8353 L 11.9517,14.4471 L 10.0467,15.8311 L 7.98335,16.9655 L 5.79407,17.8323
 L 3.5134,18.4179 L 1.17731,18.713 z
M -2.14384,37.308 L -2.51463,37.2413 L -2.87415,37.1286 L -3.21669,36.9718 L -3.53687,36.7733 L -3.82967,36.5362
 L -4.09042,36.2643 L -4.31505,35.9618 L -4.49998,35.6336 L -4.64233,35.2848 L -4.73985,34.9209 L -4.79097,34.5476
 L -4.79492,34.1709 L -4.75162,33.7966 L -4.66176,33.4308 L -4.52675,33.079 L -4.34871,32.747 L -4.13048,32.4399
 L -3.87547,32.1626 L -3.58771,31.9194 L -3.27174,31.7142 L -2.93256,31.5503 L -2.5755,31.4301 L -2.20618,31.3556
 L -1.83046,31.328 L -1.45422,31.3477 L -1.08345,31.4145 L -0.723938,31.5271 L -0.381393,31.684 L -0.061203,31.8825
 L 0.231567,32.1196 L 0.492325,32.3915 L 0.716949,32.694 L 0.901886,33.0222 L 1.04424,33.371 L 1.14175,33.7349
 L 1.19287,34.1082 L 1.19684,34.4849 L 1.15352,34.8591 L 1.06366,35.225 L 0.92865,35.5767 L 0.75061,35.9087
 L 0.532379,36.2158 L 0.277374,36.4932 L -0.010376,36.7363 L -0.32634,36.9415 L -0.665527,37.1055 L -1.02258,37.2257
 L -1.39191,37.3001 L -1.76762,37.3277 z
" stroke="black" fill="lightgray" stroke-width="0.5"/>
</svg>
