<?xml version="1.0" standalone="no"?>
<!DOCTYPE svg PUBLIC "-//W3C//DTD SVG 1.1//EN" "http://www.w3.org/Graphics/SVG/1.1/DTD/svg11.dtd">
<svg width="73mm" height="78mm" viewBox="-33 -39 73 78" xmlns="http://www.w3.org/2000/svg" version="1.1">
<title>OpenSCAD Model</title>
<path d="
M 40,-0 L 12.3607,-38.0423 L -32.3607,-23.5114 L -32.3607,23.5114 L 12.3607,38.0423 z
M 5.37961,-27.0999 L 5.16389,-27.1418 L 4.95512,-27.2104 L 4.75659,-27.3047 L 4.57146,-27.4231 L 4.40262,-27.5638
 L 4.25273,-27.7245 L 4.12418,-27.9027 L 4.01898,-28.0957 L 3.9388,-28.3003 L 3.88487,-28.5134 L 3.85809,-28.7315
 L 3.85886,-28.9513 L 3.88716,-29.1692 L 3.94257,-29.3819 L 4.02419,-29.5859 L 4.13072,-29.7781 L 4.26053,-29.9555
 L 4.41151,-30.1151 L 4.58134,-30.2546 L 4.7673,-30.3717 L 4.96649,-30.4646 L 5.17574,-30.5318 L 5.39174,-30.5722
 L 5.61111,-30.5853 L 5.8304,-30.5707 L 6.04613,-30.5288 L 6.2549,-30.4601 L 6.45341,-30.3659 L 6.63855,-30.2475
 L 6.80739,-30.1068 L 6.95728,-29.9461 L 7.08583,-29.7678 L 7.19104,-29.5749 L 7.27122,-29.3703 L 7.32513,-29.1572
 L 7.35191,-28.9391 L 7.35115,-28.7193 L 7.32286,-28.5014 L 7.26744,-28.2887 L 7.18584,-28.0847 L 7.0793,-27.8924
 L 6.94949,-27.7151 L 6.79849,-27.5554 L 6.62866,-27.4159 L 6.4427,-27.2988 L 6.24353,-27.2059 L 6.03429,-27.1388
 L 5.81827,-27.0983 L 5.59889,-27.0853 z
M -1.17731,18.713 L -3.5134,18.4179 L -5.79407,17.8323 L -7.98335,16.9655 L -10.0467,15.8311 L -11.9517,14.4471
 L -13.6682,12.8353 L -15.1691,11.021 L -16.4307,9.03287 L -17.4333,6.90233 L -18.1609,4.66293 L -18.6021,2.34999
 L -18.75,-0 L -18.6021,-2.34999 L -18.1609,-4.66293 L -17.4333,-6.90233 L -16.4307,-9.03287 L -15.1691,-11.021
 L -13.6682,-12.8353 L -11.9517,-14.4471 L -10.0467,-15.8311 L -7.98335,-16.9655 L -5.79407,-17.8323 L -3.5134,-18.4179
 L -1.17731,-18.713 L 1.17731,-18.713 L 3.5134,-18.4179 L 5.79407,-17.8323 L 7.98335,-16.9655 L 10.0467,-15.8311
 L 11.9517,-14.4471 L 13.6682,-12.8353 L 15.1691,-11.021 L 16.4307,-9.03287 L 17.4333,-6.90233 L 18.1609,-4.66293
 L 18.6021,-2.34999 L 18.75,-0 L 18.6021,2.34999 L 18.1609,4.66293 L 17.4333,6.90233 L 16.4307,9.03287
 L 15.1691,11.021 L 13.6682,12.8353 L 11.9517,14.4471 L 10.0467,15.8311 L 7.98335,16.9655 L 5.79407,17.8323
 L 3.5134,18.4179 L 1.17731,18.713 z
M -5.8304,30.5707 L -6.04613,30.5288 L -6.2549,30.4601 L -6.45341,30.3659 L -6.63855,30.2475 L -6.80739,30.1068
 L -6.95728,29.9461 L -7.08583,29.7678 L -7.19104,29.5749 L -7.27122,29.3703 L -7.32513,29.1572 L -7.35191,28.9391
 L -7.35115,28.7193 L -7.32286,28.5014 L -7.26744,28.2887 L -7.18584,28.0847 L -7.0793,27.8924 L -6.94949,27.7151
 L -6.79849,27.5554 L -6.62866,27.4159 L -6.4427,27.2988 L -6.24353,27.2059 L -6.03429,27.1388 L -5.81827,27.0983
 L -5.59889,27.0853 L -5.37961,27.0999 L -5.16389,27.1418 L -4.95512,27.2104 L -4.75659,27.3047 L -4.57146,27.4231
 L -4.40262,27.5638 L -4.25273,27.7245 L -4.12418,27.9027 L -4.01898,28.0957 L -3.9388,28.3003 L -3.88487,28.5134
 L -3.85809,28.7315 L -3.85886,28.9513 L -3.88716,29.1692 L -3.94257,29.3819 L -4.02419,29.5859 L -4.13072,29.7781
 L -4.26053,29.9555 L -4.41151,30.1151 L -4.58134,30.2546 L -4.7673,30.3717 L -4.96649,30.4646 L -5.17574,30.5318
 L -5.39174,30.5722 L -5.61111,30.5853 z
" stroke="black" fill="lightgray" stroke-width="0.5"/>
</svg>
