<?xml version="1.0" standalone="no"?>
<!DOCTYPE svg PUBLIC "-//W3C//DTD SVG 1.1//EN" "http://www.w3.org/Graphics/SVG/1.1/DTD/svg11.dtd">
<svg width="73mm" height="78mm" viewBox="-33 -39 73 78" xmlns="http://www.w3.org/2000/svg" version="1.1">
<title>OpenSCAD Model</title>
<path d="
M 40,-0 L 12.3607,-38.0423 L -32.3607,-23.5114 L -32.3607,23.5114 L 12.3607,38.0423 z
M 2.29851,-27.5329 L 2.08371,-27.5793 L 1.87642,-27.6523 L 1.67992,-27.7507 L 1.4973,-27.873 L 1.33144,-28.0172
 L 1.18495,-28.181 L 1.06015,-28.3619 L 0.95903,-28.557 L 0.883133,-28.7632 L 0.83371,-28.9774 L 0.811493,-29.196
 L 0.816849,-29.4157 L 0.849731,-29.633 L 0.909561,-29.8445 L 0.995422,-30.0468 L 1.10599,-30.2367 L 1.23946,-30.4113
 L 1.39377,-30.5678 L 1.56648,-30.7037 L 1.75485,-30.8169 L 1.95593,-30.9056 L 2.16653,-30.9684 L 2.38335,-31.0042
 L 2.60295,-31.0127 L 2.82187,-30.9935 L 3.03668,-30.9471 L 3.24396,-30.8741 L 3.44046,-30.7757 L 3.62309,-30.6534
 L 3.78894,-30.5092 L 3.93542,-30.3454 L 4.06023,-30.1645 L 4.16136,-29.9694 L 4.23726,-29.7632 L 4.28668,-29.549
 L 4.3089,-29.3304 L 4.30353,-29.1107 L 4.27066,-28.8934 L 4.21082,-28.6819 L 4.12495,-28.4796 L 4.0144,-28.2897
 L 3.88092,-28.1151 L 3.72661,-27.9586 L 3.55391,-27.8227 L 3.36552,-27.7095 L 3.16446,-27.6208 L 2.95384,-27.5581
 L 2.73703,-27.5222 L 2.51743,-27.5137 z
M -1.17731,18.713 L -3.5134,18.4179 L -5.79407,17.8323 L -7.98335,16.9655 L -10.0467,15.8311 L -11.9517,14.4471
 L -13.6682,12.8353 L -15.1691,11.021 L -16.4307,9.03287 L -17.4333,6.90233 L -18.1609,4.66293 L -18.6021,2.34999
 L -18.75,-0 L -18.6021,-2.34999 L -18.1609,-4.66293 L -17.4333,-6.90233 L -16.4307,-9.03287 L -15.1691,-11.021
 L -13.6682,-12.8353 L -11.9517,-14.4471 L -10.0467,-15.8311 L -7.98335,-16.9655 L -5.79407,-17.8323 L -3.5134,-18.4179
 L -1.17731,-18.713 L 1.17731,-18.713 L 3.5134,-18.4179 L 5.79407,-17.8323 L 7.98335,-16.9655 L 10.0467,-15.8311
 L 11.9517,-14.4471 L 13.6682,-12.8353 L 15.1691,-11.021 L 16.4307,-9.03287 L 17.4333,-6.90233 L 18.1609,-4.66293
 L 18.6021,-2.34999 L 18.75,-0 L 18.6021,2.34999 L 18.1609,4.66293 L 17.4333,6.90233 L 16.4307,9.03287
 L 15.1691,11.021 L 13.6682,12.8353 L 11.9517,14.4471 L 10.0467,15.8311 L 7.98335,16.9655 L 5.79407,17.8323
 L 3.5134,18.4179 L 1.17731,18.713 z
M -2.82187,30.9935 L -3.03668,30.9471 L -3.24396,30.8741 L -3.44046,30.7757 L -3.62309,30.6534 L -3.78894,30.5092
 L -3.93542,30.3454 L -4.06023,30.1645 L -4.16136,29.9694 L -4.23726,29.7632 L -4.28668,29.549 L -4.3089,29.3304
 L -4.30353,29.1107 L -4.27066,28.8934 L -4.21082,28.6819 L -4.12495,28.4796 L -4.0144,28.2897 L -3.88092,28.1151
 L -3.72661,27.9586 L -3.55391,27.8227 L -3.36552,27.7095 L -3.16446,27.6208 L -2.95384,27.5581 L -2.73703,27.5222
 L -2.51743,27.5137 L -2.29851,27.5329 L -2.08371,27.5793 L -1.87642,27.6523 L -1.67992,27.7507 L -1.4973,27.873
 L -1.33144,28.0172 L -1.18495,28.181 L -1.06015,28.3619 L -0.95903,28.557 L -0.883133,28.7632 L -0.83371,28.9774
 L -0.811493,29.196 L -0.816849,29.4157 L -0.849731,29.633 L -0.909561,29.8445 L -0.995422,30.0468 L -1.10599,30.2367
 L -1.23946,30.4113 L -1.39377,30.5678 L -1.56648,30.7037 L -1.75485,30.8169 L -1.95593,30.9056 L -2.16653,30.9684
 L -2.38335,31.0042 L -2.60295,31.0127 z
" stroke="black" fill="lightgray" stroke-width="0.5"/>
</svg>
