<?xml version="1.0" standalone="no"?>
<!DOCTYPE svg PUBLIC "-//W3C//DTD SVG 1.1//EN" "http://www.w3.org/Graphics/SVG/1.1/DTD/svg11.dtd">
<svg width="73mm" height="78mm" viewBox="-33 -39 73 78" xmlns="http://www.w3.org/2000/svg" version="1.1">
<title>OpenSCAD Model</title>
<path d="
M 40,-0 L 12.3607,-38.0423 L -32.3607,-23.5114 L -32.3607,23.5114 L 12.3607,38.0423 z
M 6.79053,-26.7812 L 6.5773,-26.8343 L 6.37241,-26.9138 L 6.17909,-27.0183 L 6.00041,-27.1463 L 5.83916,-27.2956
 L 5.69789,-27.4639 L 5.57884,-27.6487 L 5.48389,-27.8469 L 5.41452,-28.0554 L 5.37183,-28.271 L 5.35651,-28.4902
 L 5.36876,-28.7096 L 5.40843,-28.9258 L 5.47488,-29.1353 L 5.56708,-29.3348 L 5.68352,-29.5211 L 5.82243,-29.6914
 L 5.98157,-29.843 L 6.15848,-29.9734 L 6.35031,-30.0806 L 6.55408,-30.1629 L 6.76654,-30.2191 L 6.98438,-30.2482
 L 7.20413,-30.2497 L 7.42236,-30.2237 L 7.63559,-30.1705 L 7.84048,-30.091 L 8.0338,-29.9865 L 8.21248,-29.8586
 L 8.37373,-29.7093 L 8.515,-29.5409 L 8.63405,-29.3562 L 8.729,-29.158 L 8.79837,-28.9495 L 8.84106,-28.7339
 L 8.85638,-28.5146 L 8.84413,-28.2952 L 8.80446,-28.0791 L 8.73801,-27.8696 L 8.64581,-27.6701 L 8.52937,-27.4837
 L 8.39046,-27.3134 L 8.23132,-27.1618 L 8.05443,-27.0314 L 7.86258,-26.9242 L 7.65881,-26.8419 L 7.44635,-26.7858
 L 7.22852,-26.7567 L 7.00876,-26.7552 z
M -1.17731,18.713 L -3.5134,18.4179 L -5.79407,17.8323 L -7.98335,16.9655 L -10.0467,15.8311 L -11.9517,14.4471
 L -13.6682,12.8353 L -15.1691,11.021 L -16.4307,9.03287 L -17.4333,6.90233 L -18.1609,4.66293 L -18.6021,2.34999
 L -18.75,-0 L -18.6021,-2.34999 L -18.1609,-4.66293 L -17.4333,-6.90233 L -16.4307,-9.03287 L -15.1691,-11.021
 L -13.6682,-12.8353 L -11.9517,-14.4471 L -10.0467,-15.8311 L -7.98335,-16.9655 L -5.79407,-17.8323 L -3.5134,-18.4179
 L -1.17731,-18.713 L 1.17731,-18.713 L 3.5134,-18.4179 L 5.79407,-17.8323 L 7.98335,-16.9655 L 10.0467,-15.8311
 L 11.9517,-14.4471 L 13.6682,-12.8353 L 15.1691,-11.021 L 16.4307,-9.03287 L 17.4333,-6.90233 L 18.1609,-4.66293
 L 18.6021,-2.34999 L 18.75,-0 L 18.6021,2.34999 L 18.1609,4.66293 L 17.4333,6.90233 L 16.4307,9.03287
 L 15.1691,11.021 L 13.6682,12.8353 L 11.9517,14.4471 L 10.0467,15.8311 L 7.98335,16.9655 L 5.79407,17.8323
 L 3.5134,18.4179 L 1.17731,18.713 z
M -7.42236,30.2237 L -7.63559,30.1705 L -7.84048,30.091 L -8.0338,29.9865 L -8.21248,29.8586 L -8.37373,29.7093
 L -8.515,29.5409 L -8.63405,29.3562 L -8.729,29.158 L -8.79837,28.9495 L -8.84106,28.7339 L -8.85638,28.5146
 L -8.84413,28.2952 L -8.80446,28.0791 L -8.73801,27.8696 L -8.64581,27.6701 L -8.52937,27.4837 L -8.39046,27.3134
 L -8.23132,27.1618 L -8.05443,27.0314 L -7.86258,26.9242 L -7.65881,26.8419 L -7.44635,26.7858 L -7.22852,26.7567
 L -7.00876,26.7552 L -6.79053,26.7812 L -6.5773,26.8343 L -6.37241,26.9138 L -6.17909,27.0183 L -6.00041,27.1463
 L -5.83916,27.2956 L -5.69789,27.4639 L -5.57884,27.6487 L -5.48389,27.8469 L -5.41452,28.0554 L -5.37183,28.271
 L -5.35651,28.4902 L -5.36876,28.7096 L -5.40843,28.9258 L -5.47488,29.1353 L -5.56708,29.3348 L -5.68352,29.5211
 L -5.82243,29.6914 L -5.98157,29.843 L -6.15848,29.9734 L -6.35031,30.0806 L -6.55408,30.1629 L -6.76654,30.2191
 L -6.98438,30.2482 L -7.20413,30.2497 z
" stroke="black" fill="lightgray" stroke-width="0.5"/>
</svg>
