<?xml version="1.0" standalone="no"?>
<!DOCTYPE svg PUBLIC "-//W3C//DTD SVG 1.1//EN" "http://www.w3.org/Graphics/SVG/1.1/DTD/svg11.dtd">
<svg width="91mm" height="96mm" viewBox="-41 -48 91 96" xmlns="http://www.w3.org/2000/svg" version="1.1">
<title>OpenSCAD Model</title>
<path d="
M 50,-0 L 15.4508,-47.5528 L -40.4508,-29.3893 L -40.4508,29.3893 L 15.4508,47.5528 z
M 6.17265,-30.7684 L 5.80284,-30.8403 L 5.44496,-30.958 L 5.10463,-31.1196 L 4.78725,-31.3225 L 4.4978,-31.5637
 L 4.24086,-31.8392 L 4.02048,-32.1448 L 3.84013,-32.4756 L 3.70268,-32.8263 L 3.61024,-33.1916 L 3.56433,-33.5655
 L 3.56566,-33.9422 L 3.61417,-34.3159 L 3.70914,-34.6804 L 3.84904,-35.0302 L 4.03171,-35.3597 L 4.25421,-35.6637
 L 4.51306,-35.9375 L 4.80418,-36.1766 L 5.12299,-36.3774 L 5.46443,-36.5366 L 5.82314,-36.6518 L 6.19345,-36.7211
 L 6.56953,-36.7434 L 6.94543,-36.7184 L 7.31526,-36.6466 L 7.67314,-36.5289 L 8.01347,-36.3673 L 8.33086,-36.1643
 L 8.6203,-35.9231 L 8.87724,-35.6476 L 9.09763,-35.3421 L 9.27797,-35.0113 L 9.41542,-34.6605 L 9.50784,-34.2953
 L 9.55377,-33.9213 L 9.55244,-33.5446 L 9.50394,-33.171 L 9.40895,-32.8064 L 9.26906,-32.4566 L 9.0864,-32.1271
 L 8.86389,-31.8231 L 8.60504,-31.5494 L 8.31392,-31.3102 L 7.99512,-31.1095 L 7.65367,-30.9503 L 7.29497,-30.8351
 L 6.92465,-30.7658 L 6.54857,-30.7434 z
M -1.17731,18.713 L -3.5134,18.4179 L -5.79407,17.8323 L -7.98335,16.9655 L -10.0467,15.8311 L -11.9517,14.4471
 L -13.6682,12.8353 L -15.1691,11.021 L -16.4307,9.03287 L -17.4333,6.90233 L -18.1609,4.66293 L -18.6021,2.34999
 L -18.75,-0 L -18.6021,-2.34999 L -18.1609,-4.66293 L -17.4333,-6.90233 L -16.4307,-9.03287 L -15.1691,-11.021
 L -13.6682,-12.8353 L -11.9517,-14.4471 L -10.0467,-15.8311 L -7.98335,-16.9655 L -5.79407,-17.8323 L -3.5134,-18.4179
 L -1.17731,-18.713 L 1.17731,-18.713 L 3.5134,-18.4179 L 5.79407,-17.8323 L 7.98335,-16.9655 L 10.0467,-15.8311
 L 11.9517,-14.4471 L 13.6682,-12.8353 L 15.1691,-11.021 L 16.4307,-9.03287 L 17.4333,-6.90233 L 18.1609,-4.66293
 L 18.6021,-2.34999 L 18.75,-0 L 18.6021,2.34999 L 18.1609,4.66293 L 17.4333,6.90233 L 16.4307,9.03287
 L 15.1691,11.021 L 13.6682,12.8353 L 11.9517,14.4471 L 10.0467,15.8311 L 7.98335,16.9655 L 5.79407,17.8323
 L 3.5134,18.4179 L 1.17731,18.713 z
M -6.94543,36.7184 L -7.31526,36.6466 L -7.67314,36.5289 L -8.01347,36.3673 L -8.33086,36.1643 L -8.6203,35.9231
 L -8.87724,35.6476 L -9.09763,35.3421 L -9.27797,35.0113 L -9.41542,34.6605 L -9.50784,34.2953 L -9.55377,33.9213
 L -9.55244,33.5446 L -9.50394,33.171 L -9.40895,32.8064 L -9.26906,32.4566 L -9.0864,32.1271 L -8.86389,31.8231
 L -8.60504,31.5494 L -8.31392,31.3102 L -7.99512,31.1095 L -7.65367,30.9503 L -7.29497,30.8351 L -6.92465,30.7658
 L -6.54857,30.7434 L -6.17265,30.7684 L -5.80284,30.8403 L -5.44496,30.958 L -5.10463,31.1196 L -4.78725,31.3225
 L -4.4978,31.5637 L -4.24086,31.8392 L -4.02048,32.1448 L -3.84013,32.4756 L -3.70268,32.8263 L -3.61024,33.1916
 L -3.56433,33.5655 L -3.56566,33.9422 L -3.61417,34.3159 L -3.70914,34.6804 L -3.84904,35.0302 L -4.03171,35.3597
 L -4.25421,35.6637 L -4.51306,35.9375 L -4.80418,36.1766 L -5.12299,36.3774 L -5.46443,36.5366 L -5.82314,36.6518
 L -6.19345,36.7211 L -6.56953,36.7434 z
" stroke="black" fill="lightgray" stroke-width="0.5"/>
</svg>
