<?xml version="1.0" standalone="no"?>
<!DOCTYPE svg PUBLIC "-//W3C//DTD SVG 1.1//EN" "http://www.w3.org/Graphics/SVG/1.1/DTD/svg11.dtd">
<svg width="73mm" height="78mm" viewBox="-33 -39 73 78" xmlns="http://www.w3.org/2000/svg" version="1.1">
<title>OpenSCAD Model</title>
<path d="
M 40,-0 L 12.3607,-38.0423 L -32.3607,-23.5114 L -32.3607,23.5114 L 12.3607,38.0423 z
M 2.77867,-27.4886 L 2.56471,-27.5388 L 2.35873,-27.6154 L 2.16399,-27.7172 L 1.98352,-27.8426 L 1.82021,-27.9897
 L 1.67661,-28.156 L 1.55498,-28.3391 L 1.45726,-28.5359 L 1.38498,-28.7435 L 1.33931,-28.9584 L 1.32091,-29.1774
 L 1.33011,-29.397 L 1.36676,-29.6137 L 1.43028,-29.8241 L 1.51967,-30.0248 L 1.63351,-30.2128 L 1.77002,-30.385
 L 1.92705,-30.5388 L 2.1021,-30.6717 L 2.29242,-30.7816 L 2.49501,-30.8667 L 2.70668,-30.9258 L 2.92409,-30.9579
 L 3.1438,-30.9625 L 3.36235,-30.9396 L 3.57631,-30.8894 L 3.7823,-30.8128 L 3.97705,-30.711 L 4.15752,-30.5855
 L 4.32083,-30.4385 L 4.46443,-30.2721 L 4.58604,-30.0891 L 4.68376,-29.8922 L 4.75604,-29.6847 L 4.80173,-29.4697
 L 4.82013,-29.2507 L 4.81093,-29.0311 L 4.77426,-28.8145 L 4.71074,-28.6041 L 4.62137,-28.4033 L 4.50751,-28.2153
 L 4.37102,-28.0431 L 4.21399,-27.8893 L 4.03894,-27.7565 L 3.84862,-27.6466 L 3.64603,-27.5614 L 3.43436,-27.5023
 L 3.21695,-27.4702 L 2.99722,-27.4656 z
M -1.17731,18.713 L -3.5134,18.4179 L -5.79407,17.8323 L -7.98335,16.9655 L -10.0467,15.8311 L -11.9517,14.4471
 L -13.6682,12.8353 L -15.1691,11.021 L -16.4307,9.03287 L -17.4333,6.90233 L -18.1609,4.66293 L -18.6021,2.34999
 L -18.75,-0 L -18.6021,-2.34999 L -18.1609,-4.66293 L -17.4333,-6.90233 L -16.4307,-9.03287 L -15.1691,-11.021
 L -13.6682,-12.8353 L -11.9517,-14.4471 L -10.0467,-15.8311 L -7.98335,-16.9655 L -5.79407,-17.8323 L -3.5134,-18.4179
 L -1.17731,-18.713 L 1.17731,-18.713 L 3.5134,-18.4179 L 5.79407,-17.8323 L 7.98335,-16.9655 L 10.0467,-15.8311
 L 11.9517,-14.4471 L 13.6682,-12.8353 L 15.1691,-11.021 L 16.4307,-9.03287 L 17.4333,-6.90233 L 18.1609,-4.66293
 L 18.6021,-2.34999 L 18.75,-0 L 18.6021,2.34999 L 18.1609,4.66293 L 17.4333,6.90233 L 16.4307,9.03287
 L 15.1691,11.021 L 13.6682,12.8353 L 11.9517,14.4471 L 10.0467,15.8311 L 7.98335,16.9655 L 5.79407,17.8323
 L 3.5134,18.4179 L 1.17731,18.713 z
M -3.36235,30.9396 L -3.57631,30.8894 L -3.7823,30.8128 L -3.97705,30.711 L -4.15752,30.5855 L -4.32083,30.4385
 L -4.46443,30.2721 L -4.58604,30.0891 L -4.68376,29.8922 L -4.75604,29.6847 L -4.80173,29.4697 L -4.82013,29.2507
 L -4.81093,29.0311 L -4.77426,28.8145 L -4.71074,28.6041 L -4.62137,28.4033 L -4.50751,28.2153 L -4.37102,28.0431
 L -4.21399,27.8893 L -4.03894,27.7565 L -3.84862,27.6466 L -3.64603,27.5614 L -3.43436,27.5023 L -3.21695,27.4702
 L -2.99722,27.4656 L -2.77867,27.4886 L -2.56471,27.5388 L -2.35873,27.6154 L -2.16399,27.7172 L -1.98352,27.8426
 L -1.82021,27.9897 L -1.67661,28.156 L -1.55498,28.3391 L -1.45726,28.5359 L -1.38498,28.7435 L -1.33931,28.9584
 L -1.32091,29.1774 L -1.33011,29.397 L -1.36676,29.6137 L -1.43028,29.8241 L -1.51967,30.0248 L -1.63351,30.2128
 L -1.77002,30.385 L -1.92705,30.5388 L -2.1021,30.6717 L -2.29242,30.7816 L -2.49501,30.8667 L -2.70668,30.9258
 L -2.92409,30.9579 L -3.1438,30.9625 z
" stroke="black" fill="lightgray" stroke-width="0.5"/>
</svg>
