<?xml version="1.0" standalone="no"?>
<!DOCTYPE svg PUBLIC "-//W3C//DTD SVG 1.1//EN" "http://www.w3.org/Graphics/SVG/1.1/DTD/svg11.dtd">
<svg width="91mm" height="96mm" viewBox="-41 -48 91 96" xmlns="http://www.w3.org/2000/svg" version="1.1">
<title>OpenSCAD Model</title>
<path d="
M 50,-0 L 15.4508,-47.5528 L -40.4508,-29.3893 L -40.4508,29.3893 L 15.4508,47.5528 z
M 9.72626,-29.8905 L 9.35503,-29.9546 L 8.99474,-30.0648 L 8.65112,-30.2192 L 8.32954,-30.4155 L 8.03511,-30.6505
 L 7.77246,-30.9206 L 7.54573,-31.2215 L 7.35849,-31.5484 L 7.21371,-31.8963 L 7.11368,-32.2595 L 7.05994,-32.6324
 L 7.05336,-33.009 L 7.09406,-33.3836 L 7.18135,-33.7501 L 7.31392,-34.1027 L 7.48962,-34.436 L 7.70572,-34.7446
 L 7.95879,-35.0237 L 8.24483,-35.2689 L 8.55934,-35.4763 L 8.8974,-35.6426 L 9.25362,-35.7652 L 9.62239,-35.8423
 L 9.99791,-35.8725 L 10.3743,-35.8554 L 10.7455,-35.7913 L 11.1058,-35.6812 L 11.4494,-35.5267 L 11.771,-35.3304
 L 12.0654,-35.0954 L 12.3281,-34.8253 L 12.5548,-34.5244 L 12.742,-34.1975 L 12.8868,-33.8497 L 12.9869,-33.4865
 L 13.0406,-33.1136 L 13.0472,-32.7369 L 13.0065,-32.3623 L 12.9192,-31.9958 L 12.7866,-31.6432 L 12.6109,-31.3099
 L 12.3948,-31.0013 L 12.1418,-30.7222 L 11.8557,-30.4771 L 11.5412,-30.2697 L 11.2031,-30.1033 L 10.8469,-29.9807
 L 10.4781,-29.9036 L 10.1026,-29.8734 z
M -1.17731,18.713 L -3.5134,18.4179 L -5.79407,17.8323 L -7.98335,16.9655 L -10.0467,15.8311 L -11.9517,14.4471
 L -13.6682,12.8353 L -15.1691,11.021 L -16.4307,9.03287 L -17.4333,6.90233 L -18.1609,4.66293 L -18.6021,2.34999
 L -18.75,-0 L -18.6021,-2.34999 L -18.1609,-4.66293 L -17.4333,-6.90233 L -16.4307,-9.03287 L -15.1691,-11.021
 L -13.6682,-12.8353 L -11.9517,-14.4471 L -10.0467,-15.8311 L -7.98335,-16.9655 L -5.79407,-17.8323 L -3.5134,-18.4179
 L -1.17731,-18.713 L 1.17731,-18.713 L 3.5134,-18.4179 L 5.79407,-17.8323 L 7.98335,-16.9655 L 10.0467,-15.8311
 L 11.9517,-14.4471 L 13.6682,-12.8353 L 15.1691,-11.021 L 16.4307,-9.03287 L 17.4333,-6.90233 L 18.1609,-4.66293
 L 18.6021,-2.34999 L 18.75,-0 L 18.6021,2.34999 L 18.1609,4.66293 L 17.4333,6.90233 L 16.4307,9.03287
 L 15.1691,11.021 L 13.6682,12.8353 L 11.9517,14.4471 L 10.0467,15.8311 L 7.98335,16.9655 L 5.79407,17.8323
 L 3.5134,18.4179 L 1.17731,18.713 z
M -10.3743,35.8554 L -10.7455,35.7913 L -11.1058,35.6812 L -11.4494,35.5267 L -11.771,35.3304 L -12.0654,35.0954
 L -12.3281,34.8253 L -12.5548,34.5244 L -12.742,34.1975 L -12.8868,33.8497 L -12.9869,33.4865 L -13.0406,33.1136
 L -13.0472,32.7369 L -13.0065,32.3623 L -12.9192,31.9958 L -12.7866,31.6432 L -12.6109,31.3099 L -12.3948,31.0013
 L -12.1418,30.7222 L -11.8557,30.4771 L -11.5412,30.2697 L -11.2031,30.1033 L -10.8469,29.9807 L -10.4781,29.9036
 L -10.1026,29.8734 L -9.72626,29.8905 L -9.35503,29.9546 L -8.99474,30.0648 L -8.65112,30.2192 L -8.32954,30.4155
 L -8.03511,30.6505 L -7.77246,30.9206 L -7.54573,31.2215 L -7.35849,31.5484 L -7.21371,31.8963 L -7.11368,32.2595
 L -7.05994,32.6324 L -7.05336,33.009 L -7.09406,33.3836 L -7.18135,33.7501 L -7.31392,34.1027 L -7.48962,34.436
 L -7.70572,34.7446 L -7.95879,35.0237 L -8.24483,35.2689 L -8.55934,35.4763 L -8.8974,35.6426 L -9.25362,35.7652
 L -9.62239,35.8423 L -9.99791,35.8725 z
" stroke="black" fill="lightgray" stroke-width="0.5"/>
</svg>
